<svg width="280" height="290" viewBox="0 0 280 290" fill="none" xmlns="http://www.w3.org/2000/svg">
<path d="M252.106 60.6279C250.846 55.8386 249.02 50.9817 246.272 46.8309C243.577 42.7628 239.897 39.57 235.702 37.0983C219.08 27.298 197.342 29.2814 179.307 33.3307C169.222 35.5958 159.498 39.0441 150.409 43.9949C140.474 49.4078 131.4 56.3607 123.033 63.941C114.451 71.7128 107.023 80.758 98.0171 88.0453C88.5447 95.7119 76.7305 99.2016 65.9387 104.479C57.9473 108.386 50.0912 113.404 44.2875 120.241C38.5627 126.98 35.2097 135.011 34.5519 143.838C33.849 153.236 35.7961 164.021 41.1789 171.886C45.8399 178.7 52.5871 183.321 60.0636 186.453C67.7655 192.264 76.4523 196.569 85.703 199.488C98.0622 203.387 110.993 203.56 123.792 202.316C135.58 201.171 147.274 199.33 159.08 198.327C168.196 197.55 177.337 196.701 186.314 194.89C195.252 193.091 204.292 190.255 211.991 185.251C220.64 179.628 227.015 171.53 229.812 161.534C231.413 155.824 231.883 149.897 233.04 144.097C234.247 138.046 235.961 132.099 238.074 126.3C242.148 115.113 248.407 104.844 251.564 93.3079C254.477 82.6587 254.921 71.3409 252.106 60.6279Z" fill="#DEF7F7"/>
<path d="M206.634 134.994C206.72 133.931 206.807 132.864 206.875 131.801C207.066 128.939 207.13 126.024 207.19 123.203L207.228 121.546C207.54 108.437 207.559 95.3874 207.491 79.8324C207.472 75.5615 207.465 71.2943 207.457 67.0234C207.438 57.58 207.42 47.8135 207.277 38.2124L207.239 35.3763C207.311 34.6626 207.269 33.9264 207.228 33.2165L207.183 32.4239C207.104 28.1041 206.976 23.0143 206.596 17.9883C206.157 12.1322 204.326 8.26696 201.003 6.17093C200 5.53987 198.872 5.12292 197.782 4.72099L197.229 4.51439C195.474 3.85704 194.045 3.35369 192.726 2.93674C189.193 1.82111 186.291 1.25015 183.592 1.14122C181.228 1.04731 178.814 1.07736 176.476 1.10741C175.443 1.12243 174.405 1.1337 173.375 1.13746C169.21 1.14873 166.023 1.17502 163.05 1.2201C154.998 1.34406 148.386 1.61827 142.244 2.09157C140.977 2.18923 139.711 2.29065 138.444 2.39207C137.237 2.48974 136.031 2.58364 134.847 2.67755C131.674 2.57237 128.776 2.50852 125.979 2.48222C125.062 2.47471 124.145 2.47095 123.232 2.4672C122.953 2.4672 122.72 2.60243 122.596 2.83156C116.364 2.13664 109.97 2.62121 103.787 3.09075L103.433 3.1208C102.787 3.07572 102.14 3.02689 101.494 2.96679C100.253 2.85034 98.9942 2.71887 97.7801 2.5874C95.7616 2.37329 93.6754 2.14791 91.6117 2.00893C89.3639 1.85492 87.0748 1.8474 84.8608 1.83614C83.7406 1.83238 82.5791 1.82862 81.4402 1.80233C77.576 1.72345 73.648 1.56192 69.8477 1.40791C66.7805 1.28396 63.6117 1.15248 60.4881 1.06609C54.2107 0.893299 47.4259 1.01726 39.7427 1.44172C37.6453 1.55817 35.5403 1.65959 33.4391 1.76477C29.0787 1.97888 24.5718 2.2005 20.1514 2.54232C17.5051 2.74892 14.3965 3.0945 11.4082 4.12749C9.46857 4.79612 7.31472 5.76149 6.01414 7.81996C5.63825 8.41721 5.29995 9.10086 4.98421 9.91223C4.13845 10.7011 3.76256 11.843 3.40171 12.9473C3.23256 13.4657 3.07093 13.9578 2.86419 14.4085C2.32667 15.5805 1.92822 16.591 1.72148 17.7028C1.50347 18.8786 1.48467 20.0543 1.48467 21.3577C1.48843 23.758 1.43205 26.1884 1.37567 28.5361C1.29297 31.9769 1.20652 35.5379 1.29297 39.0425C1.36439 41.9311 1.5185 44.8611 1.6651 47.6971C1.82297 50.7134 1.98461 53.8312 2.04851 56.9001C2.15752 62.0124 1.8117 67.1811 1.4734 72.1808C1.42077 72.9846 1.36439 73.7885 1.31176 74.5923C1.09751 77.9167 0.962187 80.7152 1.00729 83.5474C1.04864 86.0078 1.27793 88.7086 1.729 92.048C1.9395 93.5918 2.18007 95.1545 2.41312 96.6645C2.61234 97.9454 2.81532 99.2714 2.99951 100.579C3.42051 103.572 3.7137 106.607 3.99186 109.545L4.04072 110.037C3.8415 112.336 3.59341 114.669 3.3566 116.93C3.16114 118.778 2.95816 120.694 2.78149 122.576C2.31539 127.62 1.89063 133.597 2.2966 139.652C2.46199 142.116 2.93937 144.561 3.39795 146.928L3.59717 147.95C4.09335 150.541 4.31512 153.193 4.52938 155.759L4.59328 156.521C4.94662 160.71 5.70591 165.503 8.65289 169.27C9.89708 170.863 11.5209 172.174 13.4756 173.17C13.9905 173.579 14.5318 173.932 15.0956 174.225C15.355 174.36 15.6444 174.338 15.8775 174.176C16.2271 174.293 16.5766 174.402 16.9225 174.499C20.4596 175.487 24.1997 175.69 27.812 175.889L27.8721 175.893C33.7247 176.212 39.0323 176.377 44.103 176.4C44.6218 176.404 45.1443 176.404 45.663 176.404C56.5262 176.404 67.5322 175.908 78.1887 175.427L78.8954 175.397C89.1309 174.935 101.272 174.462 113.71 174.45C120.255 174.443 126.904 174.353 133.339 174.266C138.47 174.195 143.774 174.124 148.988 174.097C154.814 174.064 160.712 174.202 166.256 174.349L167.248 174.375C169.639 174.439 172.112 174.507 174.541 174.42C175.563 174.383 176.604 174.323 177.608 174.263C178.931 174.184 180.295 174.101 181.641 174.079C183.739 174.045 185.971 174.105 188.05 174.785C188.257 174.852 188.46 174.834 188.629 174.732C192.884 176.002 197.218 175.371 200.533 172.997C204.007 170.506 206.348 166.374 206.961 161.653C207.461 157.772 207.081 153.839 206.713 150.034C206.457 147.382 206.19 144.64 206.228 141.951C206.262 139.622 206.45 137.27 206.634 134.994ZM204.458 19.3444C204.375 19.0326 204.296 18.7171 204.217 18.4015C203.683 16.2679 203.127 14.0667 201.759 12.2674C200.969 11.2307 199.943 10.3254 198.62 9.49528C197.109 8.54868 195.602 7.7561 194.139 7.14006C190.745 5.71642 187.039 5.33703 183.536 5.07033C180.664 4.85246 177.739 4.76982 174.909 4.68718C173.909 4.65713 172.909 4.63084 171.909 4.59703C166.944 4.428 161.896 4.10871 157.017 3.80069C154.314 3.63166 151.517 3.45511 148.766 3.30486C148.465 3.28983 148.164 3.27105 147.86 3.25603C149.796 3.13207 151.521 3.03816 153.149 2.97806C160.069 2.71136 167.06 2.65877 172.984 2.63999C173.883 2.63623 174.781 2.63248 175.679 2.62872C178.04 2.61745 180.483 2.60243 182.882 2.62872C185.539 2.65501 188.426 3.17714 191.967 4.27023C193.294 4.67967 194.726 5.17551 196.466 5.82535C196.673 5.90423 196.88 5.97936 197.09 6.05449C198.161 6.44514 199.27 6.85083 200.24 7.45935C202.014 8.57873 203.367 10.4193 204.146 12.7783C204.916 15.111 205.093 17.5488 205.217 20.0505C205.254 20.8018 205.288 21.5531 205.318 22.3043C205.021 21.3352 204.717 20.3398 204.458 19.3444ZM179.889 6.3625C182.115 6.46017 183.949 6.59164 185.659 6.76819C187.388 6.94849 189.223 7.1626 191.001 7.64341C192.512 8.05285 194.008 8.65386 195.575 9.48025C196.985 10.224 198.346 10.9753 199.473 11.997C201.326 13.6723 202.041 15.9862 202.612 18.2099C203.078 20.0167 203.495 21.508 203.935 22.8978L203.965 22.9955C204.491 24.6633 205.036 26.3837 205.33 28.1304C205.461 28.908 205.551 29.7494 205.615 30.7711C205.657 32.2999 205.694 33.8287 205.724 35.335C205.702 35.5379 205.675 35.7257 205.634 35.9022C205.574 36.1727 205.506 36.4394 205.435 36.7061C205.322 37.1305 205.209 37.5738 205.138 38.0208C205.1 38.2612 205.082 38.4828 205.078 38.6932C192.433 38.6857 179.581 38.3739 167.154 38.0734L165.324 38.0283C162.786 37.9682 160.249 37.8968 157.712 37.8292C147.266 37.5437 136.459 37.2507 125.859 37.5212C121.198 37.6414 116.466 37.9569 111.887 38.2612C103.734 38.8059 95.3067 39.3656 87.0033 38.8434C85.3569 38.7382 83.7105 38.6256 82.0679 38.5129C77.3467 38.1898 72.4639 37.8518 67.63 37.7541C61.8864 37.6376 56.0488 37.6639 50.403 37.6902L47.7041 37.7015C44.9074 37.7128 42.0657 37.6865 39.3142 37.6639C34.7584 37.6226 30.0448 37.5813 25.4138 37.7053C23.2863 37.7616 21.1437 37.9832 19.0688 38.1973C17.5803 38.3513 16.0391 38.5091 14.5205 38.603C13.5958 38.6631 12.6599 38.7007 11.7577 38.7382C9.58134 38.8284 7.33352 38.9223 5.11201 39.3017C5.17215 35.7407 5.23605 32.067 5.2774 28.4534C5.31123 25.4935 5.32627 22.8077 5.32627 20.2346C5.32627 20.0919 5.29244 19.9604 5.22478 19.8477C5.51045 15.1373 9.29566 11.5199 16.4752 9.10086C19.8356 7.97021 23.2863 7.18514 26.7294 6.7757C30.7702 6.29489 34.7735 6.18596 39.5435 6.17469C47.8657 6.14839 57.5486 6.15215 67.1338 6.49773C67.8668 6.52403 68.596 6.55783 69.329 6.58788C70.9416 6.65925 72.6105 6.73438 74.2569 6.73814C76.3205 6.73814 78.5458 6.65925 81.0568 6.48271C83.6504 6.3024 86.2816 6.03946 88.8226 5.78779C90.7773 5.59246 92.7995 5.39337 94.788 5.23185C97.5621 5.00647 100.238 4.83368 103.452 4.6346L103.738 4.65713C103.873 4.6684 104.009 4.67967 104.144 4.68718C106.741 4.85622 109.388 4.86373 111.947 4.86749C112.601 4.86749 113.252 4.87124 113.906 4.875C121.157 4.92008 127.246 4.85246 133.414 4.37917C134.151 4.32282 134.888 4.26272 135.602 4.20638C138.718 4.31531 142.015 4.45805 145.676 4.64586C150.055 4.87124 154.506 5.13419 158.81 5.38962C162.031 5.58119 165.249 5.77276 168.47 5.94931C170.612 6.06575 172.793 6.12961 174.901 6.18971C176.533 6.23855 178.228 6.28738 179.889 6.3625ZM88.7775 4.28901C87.2326 4.44302 85.6313 4.60079 84.0601 4.73977C79.0457 5.18302 74.411 5.30322 69.8928 5.10414C60.2475 4.68718 50.6473 4.67967 41.3591 4.67216C33.1233 4.66465 25.068 4.85998 17.2081 7.29032C9.32197 9.72441 4.98421 13.2366 3.94299 18.0334C3.78512 18.7621 3.70242 19.5434 3.6949 20.3548C3.6949 20.5088 3.73625 20.6516 3.81519 20.7718C3.81143 27.0223 3.70242 33.3742 3.59717 39.5196C3.522 43.8468 3.44682 48.3018 3.40923 52.7193C3.33781 51.0252 3.25136 49.3386 3.1649 47.6708C3.11603 46.7092 3.06341 45.7438 3.0183 44.7822C2.76646 39.621 2.72511 34.1893 2.8905 27.6834C2.91681 26.6354 2.91681 25.5648 2.91681 24.5281C2.91681 22.7927 2.91305 21.0009 3.04086 19.258C3.15362 17.7141 3.6949 16.3618 4.26626 14.9307C4.48051 14.3935 4.70605 13.8338 4.90151 13.2666C4.94286 13.1502 4.98045 13.03 5.0218 12.9023C5.24733 12.2149 5.52549 11.3584 6.06677 10.9565C6.14195 10.9001 6.20585 10.8325 6.25471 10.7574H6.28478L6.33741 10.6635C6.48401 10.4118 6.59301 10.1226 6.70202 9.84086C6.79224 9.60421 6.87493 9.37883 6.98018 9.17975C7.47635 8.23315 8.08906 7.5157 8.85963 6.97854C11.0511 5.45347 13.9905 4.84495 16.5766 4.44678C19.1026 4.05988 21.7038 3.93216 24.2185 3.81196L25.2747 3.75937C27.8909 3.6279 30.5485 3.47389 33.1195 3.3274L36.4123 3.13958C42.4642 2.79024 48.719 2.42963 54.8873 2.47471C59.8679 2.50852 64.9311 2.71512 69.8252 2.9142C71.5655 2.98557 73.3059 3.05694 75.0463 3.1208C77.3392 3.20344 79.6735 3.23349 81.9326 3.25978C86.0523 3.30861 90.3074 3.35745 94.4723 3.75562C92.5627 3.91338 90.6457 4.10495 88.7775 4.28901ZM2.56348 79.5545C2.65369 76.8461 2.85291 74.0928 3.04462 71.4333C3.18369 69.4988 3.32653 67.5229 3.42802 65.5434C3.45809 67.7108 3.50696 69.7805 3.57086 71.7976C3.66859 74.9454 3.83398 78.1383 3.99186 81.2298C4.11966 83.7014 4.25122 86.2595 4.34519 88.7725C4.52186 93.3927 4.582 97.288 4.52186 100.819C4.32264 99.3127 4.11214 97.8327 3.89037 96.4016C3.0822 91.169 2.3605 85.5045 2.56348 79.5545ZM3.75505 129.848C3.92796 126.249 4.27002 122.617 4.63463 119.052C4.73612 121.914 4.73612 124.608 4.63463 127.215C4.41285 133.022 4.48803 138.784 4.8564 144.336C5.16839 149.009 6.27727 153.592 7.34855 158.02C7.60792 159.091 7.86728 160.165 8.11537 161.239C8.20934 161.649 8.30331 162.062 8.39728 162.479C8.87091 164.609 9.36332 166.795 10.2429 168.79C8.90474 167.238 7.88607 165.326 7.20947 163.095C6.38627 160.383 6.16826 157.524 5.95776 154.756C5.7435 151.931 5.40144 149.354 4.91279 146.875C4.28881 143.701 3.84526 141.008 3.7137 138.179C3.59717 135.606 3.61221 132.883 3.75505 129.848ZM6.04797 130.419C6.06677 129.375 6.10436 128.33 6.13819 127.29C6.19833 125.558 6.25847 123.77 6.24344 122.005C6.22088 119.379 6.08556 116.532 5.82996 113.301C5.73974 112.171 5.64201 111.04 5.53676 109.943C5.92017 105.266 6.08556 100.541 6.03294 95.8945C5.9728 90.4591 5.71719 84.9448 5.4691 79.6108C5.20598 73.9763 4.9391 68.154 4.89775 62.4144C4.84889 55.4501 4.95038 48.5122 5.08194 40.823C7.326 40.4023 9.51368 40.3197 11.8216 40.2295C12.5922 40.1995 13.3703 40.1694 14.1484 40.1243C15.7685 40.0342 17.4036 39.8614 18.9861 39.6961C20.5836 39.5271 22.23 39.3543 23.8576 39.2641C28.327 39.02 32.894 39.0876 37.307 39.1514C39.4082 39.1815 41.5996 39.2153 43.7196 39.2115C45.9411 39.2078 48.1627 39.2003 50.3842 39.189C61.1158 39.1402 72.2158 39.0876 83.0903 40.0229C89.1835 40.5488 95.412 40.654 102.137 40.3384C105.396 40.1882 108.703 39.9666 111.902 39.7562C115.082 39.5459 118.368 39.328 121.604 39.1777C132.46 38.6706 143.545 38.9636 154.261 39.2491C156.483 39.3092 158.704 39.3656 160.926 39.4181C163.038 39.467 165.147 39.5196 167.26 39.5722C179.72 39.8727 192.606 40.1882 205.285 40.1919C205.337 40.1919 205.39 40.1882 205.439 40.1769C205.533 40.3046 205.66 40.391 205.807 40.4248C205.886 46.6678 205.897 53.016 205.909 59.1539C205.916 62.651 205.92 66.1444 205.939 69.6415L205.95 71.8728C206.014 84.2311 206.081 97.0063 205.935 109.571C205.863 115.615 205.769 122.639 205.495 129.48C205.424 131.29 205.273 133.131 205.13 134.908C205.018 136.32 204.897 137.781 204.818 139.22C204.657 142.142 204.74 145.286 205.07 148.832C205.127 149.433 205.187 150.046 205.251 150.658C205.773 155.83 206.311 161.179 204.262 165.931C202.443 170.146 198.928 173.072 194.861 173.756C192.764 174.109 190.49 173.846 188.106 172.97C187.873 172.884 187.644 172.914 187.467 173.049C184.329 172.268 180.983 172.501 177.747 172.726C176.822 172.79 175.864 172.858 174.943 172.895C171.094 173.061 167.162 172.918 163.362 172.783C161.666 172.723 159.911 172.659 158.186 172.625C150.025 172.46 141.722 172.599 133.693 172.734C130.389 172.79 126.968 172.846 123.607 172.88C121.066 172.907 118.522 172.925 115.981 172.948C107.185 173.016 98.0883 173.091 89.1384 173.447C85.4922 173.594 81.7897 173.759 78.2075 173.921C70.5093 174.266 62.5442 174.627 54.7106 174.796C45.3961 174.995 34.4126 175.07 23.587 174.097C20.6926 173.838 17.3435 173.38 14.419 171.979C11.7878 169.823 10.8067 166.299 10.0249 162.873C9.68283 161.378 9.30694 159.861 8.94232 158.396C8.03643 154.752 7.10047 150.985 6.62309 147.217C5.9089 141.534 5.95024 135.565 6.04797 130.419Z" fill="#004748"/>
<path d="M17.167 100.644C17.167 100.899 17.276 101.113 17.479 101.245C17.6519 101.358 17.8737 101.395 18.0766 101.358C18.2082 101.534 18.4112 101.632 18.6518 101.632H67.6377C67.9346 101.632 68.1752 101.478 68.2955 101.222C68.5473 101.023 68.7127 100.666 68.5436 100.276C68.0625 99.179 68.0963 97.8004 68.1264 96.5871L68.1301 96.3955C68.1527 95.5015 68.2128 94.5962 68.2729 93.721C68.3105 93.1651 68.3481 92.6092 68.3782 92.057C68.4834 89.991 68.833 87.9213 69.1713 85.9154C69.4833 84.0523 69.8103 82.129 69.9419 80.202C70.2238 76.1039 69.8179 71.9682 69.3367 68.1142C69.2465 67.3779 69.1488 66.6455 69.0548 65.9092C68.8932 64.6546 68.724 63.3587 68.5812 62.0815C68.4271 60.748 68.3519 59.3544 68.3444 57.7017C68.3368 56.5109 68.3293 55.0309 67.8144 53.7425C67.3182 52.4992 66.3785 51.6652 65.0253 51.2633C63.5367 50.8201 61.9467 50.8389 60.4093 50.8539H60.3266C58.9171 50.8652 57.2481 50.8539 55.5566 50.636C46.7533 49.5091 38.1492 49.8059 30.8982 50.2491C30.0826 50.2979 29.2594 50.3693 28.4587 50.4369C27.4664 50.5233 26.4364 50.6097 25.4253 50.6586C24.8878 50.6848 24.339 50.6773 23.809 50.6698C23.4256 50.6661 23.0384 50.6623 22.655 50.6661L22.5046 50.6698C20.8695 50.6961 18.133 50.7412 17.3211 52.5555C17.1407 52.9574 17.0956 53.3894 17.1707 53.8965V100.644H17.167ZM66.7431 93.9464L66.6904 94.8705C66.6078 96.2866 66.5439 97.7929 66.7543 99.2917C66.7957 99.5809 66.8521 99.8589 66.9235 100.133H18.6705V53.6411C18.6705 53.5622 18.6593 53.4871 18.633 53.4082C18.6668 53.0438 18.9299 52.7809 19.4637 52.5818C20.3169 52.2587 21.2604 52.2024 22.234 52.1723C22.7753 52.1536 23.3278 52.1573 23.8616 52.1611C24.2675 52.1648 24.6773 52.1686 25.0832 52.1611C26.0455 52.1461 27.0266 52.0559 27.9701 51.9657C28.5339 51.9132 29.094 51.8606 29.654 51.823C36.6869 51.3535 45.0204 50.9966 53.523 51.8981C53.9854 51.947 54.444 52.0033 54.9025 52.0597C56.1129 52.2099 57.3609 52.3639 58.6163 52.3639C59.0336 52.3639 59.4433 52.3602 59.8605 52.3527C60.9619 52.3376 62.1046 52.3226 63.2172 52.4353C64.2885 52.5442 65.5929 52.8034 66.198 53.8251C66.7957 54.8393 66.8183 56.1353 66.837 57.2772L66.8483 58.0059C66.8596 59.0877 66.8746 60.2034 66.9949 61.3115C67.1603 62.8591 67.3633 64.4292 67.5588 65.9468L67.7166 67.1789C68.1903 70.8976 68.6451 74.8605 68.5098 78.8159C68.4346 81.081 68.0549 83.3461 67.6866 85.5398C67.4234 87.1212 67.149 88.7514 66.9912 90.3817C66.8746 91.5649 66.807 92.7744 66.7431 93.9464Z" fill="#004748"/>
<path d="M79.5346 99.1789C80.2638 100.159 81.3915 100.734 82.8875 100.888C83.1807 100.918 83.4739 100.933 83.7671 100.933C84.8835 100.933 86.0112 100.734 87.2291 100.497L87.4546 100.452C88.8078 100.189 90.0896 99.9376 91.4353 99.8137C94.6003 99.5169 98.0284 99.3404 102.22 99.254C103.505 99.2277 104.813 99.2314 106.08 99.2352C107.959 99.239 109.903 99.2465 111.812 99.1526C112.891 99.1 113.989 99.0211 115.049 98.9422C116.413 98.8408 117.826 98.7356 119.217 98.6943C121.664 98.6192 124.036 98.6229 126.115 99.4343C126.513 99.592 126.897 99.7986 127.258 100.058C127.483 100.219 127.739 100.238 127.96 100.118C128.303 100.182 128.697 100.043 128.859 99.6371C130.069 96.5682 130.137 93.2063 130.062 90.6182C130.013 88.8753 129.866 87.1098 129.727 85.4007C129.614 84.0033 129.494 82.5534 129.43 81.1297C129.385 80.1268 129.378 79.1051 129.366 78.1172C129.359 77.4298 129.355 76.7386 129.336 76.0512C129.291 74.2331 129.212 72.385 129.133 70.6007L129.099 69.8232C128.972 66.9083 128.844 63.8957 128.908 60.932L128.915 60.654C128.96 58.5693 129.009 56.4131 128.603 54.3396C128.442 53.5057 128.182 52.5704 127.524 51.9919C126.758 51.3195 125.641 51.2144 124.656 51.1655C123.461 51.1054 122.224 51.2031 121.134 51.2895C119.965 51.3834 118.83 51.4285 117.661 51.4285H81.1171C80.8427 51.4285 80.6096 51.5637 80.4856 51.7928C80.2563 51.9168 80.121 52.1497 80.121 52.4239C80.1172 59.1853 79.6737 66.0443 79.2452 72.6818L79.1174 74.6576C78.8542 78.7595 78.655 82.2078 78.5272 85.6974C78.4558 87.6883 78.4144 89.5289 78.4032 91.3244L78.3957 92.0757C78.3806 93.2965 78.3693 94.5623 78.4746 95.7982C78.5573 96.8199 78.7603 98.1346 79.5346 99.1789ZM127.641 70.2965C127.75 73.1588 127.866 76.1188 127.87 79.0299C127.874 81.1673 128.051 83.3309 128.22 85.4194C128.295 86.3623 128.374 87.3014 128.434 88.2442C128.614 91.0201 128.75 94.2318 128.032 97.2256C127.934 97.6275 127.81 98.052 127.648 98.5177C125.942 97.4772 123.788 97.2594 121.709 97.1842C119.379 97.1016 117.022 97.2782 114.74 97.4472L114.09 97.496C111.827 97.6651 109.523 97.6763 107.298 97.6876L105.978 97.6951C101.682 97.7289 98.3855 97.8266 95.2881 98.0106C93.6455 98.1083 91.9014 98.221 90.1723 98.4276C89.3077 98.529 88.4432 98.7093 87.6087 98.8784C87.1163 98.9798 86.6239 99.0812 86.1315 99.1676C84.7933 99.4042 83.3762 99.5996 82.0944 99.2089C80.8878 98.8446 80.3841 97.8153 80.1774 97.019C79.9105 95.9935 79.903 94.8929 79.8992 93.8336V93.5256C79.8879 91.7639 79.903 89.9533 79.9518 87.9963C80.0533 84.0334 80.2789 80.0667 80.463 77.0579C80.557 75.5403 80.6548 74.0228 80.7525 72.5052C81.1209 66.8369 81.4967 60.9771 81.5945 55.1998C81.6058 54.4373 81.6133 53.6785 81.6133 52.916H114.101C114.65 52.916 115.199 52.9197 115.752 52.9273C116.891 52.9385 118.063 52.9498 119.221 52.9122C119.845 52.8934 120.476 52.8409 121.089 52.7883C121.476 52.7545 121.864 52.7244 122.254 52.6981L122.307 52.6944C123.367 52.6267 124.461 52.5591 125.495 52.7357C126.209 52.8596 126.619 53.0362 126.867 53.6748C127.209 54.5537 127.295 55.5417 127.363 56.5596C127.438 57.7353 127.434 58.9148 127.423 59.8088C127.374 63.3172 127.509 66.867 127.641 70.2965Z" fill="#004748"/>
<path d="M17.2234 155.513C17.2685 155.719 17.3136 155.926 17.3587 156.132C17.5466 157.008 17.7459 157.909 18.0917 158.762C18.5878 159.975 19.3058 160.813 20.2267 161.248C21.3882 161.804 22.7565 161.879 24.057 161.91C24.3051 161.917 24.5532 161.917 24.8013 161.917C26.3913 161.917 27.9964 161.804 29.5525 161.695C30.5599 161.624 31.6011 161.553 32.6236 161.511C35.9051 161.38 39.4272 161.245 42.938 161.17C46.2007 161.098 49.4333 161.087 53.29 161.094C56.5377 161.102 60.0146 161.155 63.4352 161.496C64.296 161.583 65.1531 161.688 65.9838 161.812C66.2544 161.853 66.5063 161.759 66.6867 161.556C68.2842 161.173 68.2993 158.225 68.3068 156.955V156.797C68.3143 155.693 68.2617 154.626 68.1978 153.439C68.1339 152.305 68.1376 151.148 68.1376 150.028V149.502C68.1376 148.853 68.1414 148.206 68.1414 147.557C68.1564 143.977 68.1677 140.273 67.7429 136.637C67.6264 135.63 67.4911 134.624 67.3558 133.617C66.9498 130.574 66.5288 127.423 66.589 124.305C66.604 123.486 66.6265 122.746 66.7506 122.025C66.8295 121.574 66.9197 121.127 67.0137 120.676L67.1415 120.057C67.4009 118.776 67.6678 117.45 67.5512 116.135C67.4234 114.685 66.7882 113.693 65.7131 113.265C64.5817 112.814 63.2736 112.848 62.1196 112.878C60.8378 112.912 59.5448 113.029 58.2931 113.145L57.8345 113.186C56.2858 113.325 54.786 113.337 53.523 113.329C50.67 113.31 47.7719 113.261 44.9678 113.213C43.4266 113.186 41.8817 113.16 40.3406 113.137C39.4572 113.126 38.5739 113.122 37.6906 113.122C36.4877 113.119 35.2473 113.119 34.0294 113.089C32.7025 113.055 31.3606 112.882 30.06 112.713L29.8044 112.679C29.3646 112.623 28.9211 112.563 28.4775 112.499C25.9102 112.142 23.2564 111.774 20.6928 112.195C20.1666 112.281 19.6742 112.424 19.1893 112.627C18.9337 112.615 18.6818 112.721 18.5315 112.905C18.3849 113.085 18.3435 113.318 18.4225 113.558C18.8923 115.012 18.5202 116.496 18.1368 117.769L18.0127 118.178C17.6068 119.512 17.2271 120.77 17.1068 122.16C16.9302 124.196 17.0091 126.262 17.0843 128.264C17.1294 129.47 17.1745 130.717 17.167 131.942C17.1482 134.436 16.964 136.968 16.7836 139.42C16.5092 143.196 16.2235 147.102 16.5355 150.956C16.6595 152.511 16.8888 154.044 17.2234 155.513ZM18.5803 128.553C18.5352 127.1 18.4864 125.593 18.5127 124.113C18.5465 122.325 18.7457 120.928 19.1554 119.576C19.2193 119.358 19.287 119.144 19.3547 118.926C19.7193 117.761 20.0952 116.556 20.1515 115.297C20.1741 114.835 20.1403 114.366 20.0501 113.9C21.0161 113.551 22.1362 113.528 23.1173 113.543C24.6547 113.562 26.1808 113.735 27.613 113.911C28.1129 113.971 28.6128 114.039 29.1128 114.103C30.0713 114.227 31.0636 114.358 32.0409 114.46C33.3941 114.599 34.7624 114.602 36.0855 114.61L36.7997 114.614C39.5174 114.632 42.2839 114.681 44.9565 114.726C46.4789 114.753 48.0012 114.779 49.5236 114.802C49.9784 114.809 50.4295 114.817 50.8843 114.824C52.4668 114.85 54.1057 114.88 55.7107 114.85C56.5565 114.835 57.4135 114.753 58.2404 114.67C58.5412 114.64 58.8419 114.61 59.1426 114.584C60.6123 114.456 61.9354 114.351 63.2699 114.396L63.4089 114.4C64.1795 114.422 65.2395 114.452 65.6943 115.068C66.2882 115.868 66.0965 117.202 65.9575 118.178C65.8635 118.832 65.7282 119.489 65.5966 120.124C65.4801 120.691 65.356 121.277 65.2658 121.863C64.9764 123.693 65.0591 125.593 65.1568 127.227C65.2733 129.192 65.5214 131.145 65.7883 133.144L65.856 133.647C66.0965 135.446 66.3446 137.302 66.495 139.139C66.6453 140.976 66.6416 142.85 66.6416 144.664V145.269C66.6416 145.848 66.6416 146.426 66.6378 147.004C66.6303 149.39 66.6228 151.858 66.7431 154.284C66.7957 155.355 66.837 156.504 66.7882 157.635C66.7544 158.379 66.7092 159.4 66.3409 160.013C66.307 160.069 66.2807 160.095 66.2657 160.107C66.2469 160.107 66.2168 160.103 66.1868 160.099C65.9687 160.073 65.7808 160.133 65.6455 160.268C59.7215 159.46 53.6208 159.536 47.7231 159.607L46.1706 159.626C40.0963 159.693 33.8114 159.926 26.9552 160.343C25.4215 160.437 24.1322 160.471 22.8392 160.347C21.8318 160.249 20.7003 160.073 20.0237 159.194C19.4073 158.394 19.163 157.312 18.9449 156.358C18.6555 155.077 18.351 153.751 18.1856 152.425C17.6368 148.105 17.9639 143.684 18.2796 139.405C18.4187 137.535 18.5615 135.597 18.6292 133.696C18.6893 131.975 18.6367 130.236 18.5803 128.553Z" fill="#004748"/>
<path d="M128.009 112.521C126.72 111.729 125.07 111.676 123.626 111.695C121.796 111.714 119.958 112.01 118.184 112.296L118.033 112.318C115.789 112.679 114.03 112.863 112.331 112.919C109.745 113.006 107.117 112.957 104.573 112.912C103.077 112.886 101.528 112.856 100.006 112.856C96.1489 112.856 92.375 112.792 88.6349 112.063C86.8757 111.721 84.4663 111.252 82.5793 112.071C81.929 112.352 81.4554 112.841 81.2336 113.449C80.9893 113.569 80.8464 113.806 80.8464 114.095C80.8464 119.001 80.775 123.989 80.7111 128.816C80.666 132.114 80.6171 135.525 80.5946 138.879C80.5608 143.65 80.5758 147.579 80.6397 151.249C80.6773 153.364 80.7374 155.426 80.8126 157.387C80.8201 157.56 80.8239 157.74 80.8276 157.924C80.854 158.957 80.8803 160.129 81.384 161.064C81.7636 161.767 82.4703 162.157 83.4288 162.187C84.2971 162.214 85.1842 162.071 86.0412 161.932C86.3795 161.876 86.7141 161.823 87.0486 161.778C88.8566 161.541 90.7925 161.308 92.7283 161.188C94.7393 161.068 96.7428 161.094 98.7876 161.136C101.287 161.188 103.828 161.29 106.283 161.387C107.88 161.451 109.474 161.515 111.072 161.568C112.485 161.613 113.917 161.774 115.3 161.932C115.8 161.988 116.304 162.045 116.808 162.097C118.608 162.285 120.503 162.458 122.42 162.458C122.95 162.458 123.48 162.443 124.01 162.413C125.386 162.334 127.949 162.187 129.231 160.666C129.953 159.81 130.002 158.664 129.99 157.567C129.979 156.553 129.877 155.535 129.78 154.547C129.75 154.25 129.72 153.954 129.693 153.657C129.565 152.267 129.618 150.843 129.667 149.465L129.686 148.879C129.705 148.334 129.723 147.789 129.742 147.245C129.795 145.765 129.851 144.236 129.866 142.73C129.881 140.893 129.855 139.03 129.829 137.223C129.795 135.033 129.761 132.768 129.81 130.544C129.855 128.411 129.96 126.645 130.144 124.989C130.186 124.613 130.231 124.237 130.276 123.862C130.355 123.186 130.438 122.483 130.501 121.792C130.704 119.594 130.844 117.066 129.96 114.914C129.528 113.874 128.851 113.04 128.009 112.521ZM128.325 137.133L128.336 137.843C128.393 141.697 128.28 145.607 128.171 149.39L128.167 149.54C128.126 150.99 128.081 152.489 128.22 153.969L128.284 154.607C128.389 155.655 128.498 156.741 128.49 157.808C128.487 158.634 128.438 159.415 127.915 159.881C127.524 160.227 126.882 160.49 125.949 160.685C123.912 161.109 121.811 161.004 119.473 160.839C118.052 160.737 116.612 160.576 115.222 160.422C114.549 160.347 113.88 160.272 113.207 160.204C112.29 160.11 111.361 160.08 110.463 160.05L110.083 160.035C108.839 159.99 107.598 159.941 106.354 159.892L103.028 159.761C100.881 159.674 98.6862 159.588 96.4947 159.588C95.1453 159.588 93.7921 159.622 92.4501 159.708C90.6609 159.825 88.9055 160.031 86.8268 160.305C86.5149 160.347 86.2029 160.396 85.8871 160.448C85.1053 160.572 84.3009 160.704 83.5153 160.689C82.9214 160.681 82.7372 160.546 82.5793 160.009C82.4402 159.528 82.3989 159.006 82.3725 158.517C82.3274 157.736 82.3011 156.936 82.2786 156.166L82.2635 155.644C82.147 152.057 82.0906 148.18 82.0869 143.789C82.0869 138.801 82.1545 133.729 82.2222 128.827C82.2635 125.856 82.3049 122.881 82.3312 119.91C82.3462 118.246 82.3538 116.582 82.3538 114.914C82.5191 114.779 82.6094 114.576 82.6018 114.339C82.583 113.761 82.9439 113.438 83.8047 113.265C84.7745 113.07 85.827 113.167 86.7404 113.276C87.3644 113.351 87.9921 113.472 88.601 113.588C88.992 113.663 89.3829 113.738 89.7776 113.802C91.4879 114.08 93.3297 114.249 95.4122 114.317C96.709 114.358 98.0246 114.358 99.2951 114.362C99.9642 114.362 100.633 114.362 101.302 114.369C102.392 114.381 103.483 114.399 104.573 114.418C105.475 114.433 106.377 114.452 107.275 114.463C108.888 114.482 111.019 114.493 113.184 114.396C114.962 114.317 116.642 114.061 118.653 113.742C120.243 113.487 122.228 113.171 124.134 113.205C125.423 113.227 126.656 113.31 127.536 114.02C128.983 115.188 129.156 117.397 129.133 119.403C129.118 120.86 128.945 122.333 128.78 123.76C128.693 124.508 128.603 125.278 128.536 126.044C128.212 129.729 128.269 133.493 128.325 137.133Z" fill="#004748"/>
<path d="M144.511 60.2897C144.485 60.8757 144.458 61.4804 144.447 62.0664C144.417 63.9446 144.631 65.8453 144.834 67.6821C144.954 68.7639 145.078 69.8796 145.154 70.9802C145.266 72.678 145.293 74.1918 145.225 75.6004C145.169 76.8363 145.011 78.0834 144.857 79.2891C144.812 79.6385 144.766 79.9878 144.725 80.3372C144.293 83.9169 144.18 86.6703 144.361 89.2659C144.458 90.6708 144.62 92.0869 144.778 93.4542C145.03 95.6329 145.289 97.8867 145.281 100.122C145.281 100.351 145.383 100.561 145.563 100.704C145.748 100.85 145.999 100.903 146.229 100.85C150.833 99.7386 155.897 99.1901 162.163 99.1188C168.09 99.0512 173.469 99.3329 178.604 99.9715L179.232 100.05C180.39 100.197 181.589 100.347 182.773 100.467C183.34 100.527 183.919 100.561 184.483 100.599C185.137 100.64 185.814 100.685 186.471 100.76C186.723 100.79 186.971 100.82 187.223 100.854C187.866 100.937 188.528 101.023 189.189 101.053C189.366 101.061 189.546 101.065 189.727 101.065C190.448 101.065 191.166 100.978 191.768 100.625C193.365 99.686 193.279 97.2669 193.226 95.8245C193.155 93.875 193.008 91.7451 192.779 89.3148C192.685 88.3156 192.58 87.3164 192.471 86.3172C192.283 84.548 192.087 82.7224 191.967 80.9194C191.779 78.1209 191.858 75.4314 192.204 72.7006C192.542 70.0411 192.892 67.2915 192.786 64.4705C192.764 63.8619 192.734 63.2534 192.704 62.6486C192.666 61.8748 192.628 61.1048 192.606 60.331C192.591 59.8577 192.595 59.3731 192.595 58.9036C192.598 58.1598 192.602 57.3898 192.538 56.6348C192.426 55.3388 192.121 54.3772 191.576 53.6109C191.042 52.8597 190.264 52.2737 189.268 51.8717C187.464 51.143 185.37 51.1505 183.562 51.2557C182.066 51.3421 180.559 51.5374 179.104 51.7215C178.521 51.7966 177.935 51.8717 177.352 51.9394C175.183 52.1948 173.105 52.161 170.613 52.0934C169.579 52.0633 168.541 52.0295 167.504 51.9919C165.67 51.9281 163.771 51.8642 161.903 51.8417C159.411 51.8116 156.885 51.9318 154.449 52.0483L153.453 52.0971C152.141 52.1572 150.597 52.1985 149.1 52.0445C148.886 52.022 148.668 51.9957 148.454 51.9657C148.168 51.9281 147.883 51.8943 147.597 51.868C146.605 51.7816 144.755 51.6163 144.112 52.8597C143.849 53.3705 143.894 53.9753 144.244 54.7115C144.676 56.5108 144.59 58.434 144.511 60.2897ZM191.189 62.4984L191.219 63.1182C191.279 64.2751 191.339 65.4696 191.305 66.6416C191.268 68.0202 191.114 69.395 190.986 70.443L190.866 71.3896C190.584 73.6133 190.29 75.916 190.336 78.2186C190.388 80.9795 190.693 83.8193 190.96 86.321C191.226 88.8114 191.407 91.2831 191.584 93.8036C191.602 94.074 191.629 94.352 191.651 94.63C191.771 95.9973 191.896 97.4097 191.467 98.6455C191.275 99.1977 190.933 99.4531 190.287 99.532C189.445 99.6334 188.565 99.5245 187.712 99.4155L187.607 99.4005C186.441 99.254 185.254 99.1563 184.103 99.0587C183.025 98.9685 181.908 98.8746 180.814 98.7431C180.344 98.6868 179.875 98.6267 179.405 98.5704C177.213 98.2999 174.95 98.0182 172.703 97.8942C169.838 97.7365 167.301 97.6463 164.952 97.62C164.437 97.6125 163.933 97.6125 163.437 97.6125C158.099 97.6125 153.619 97.9506 149.446 98.6605C148.612 98.8032 147.736 98.976 146.77 99.1939C146.717 97.0866 146.473 94.968 146.24 92.9208C146.142 92.0832 146.048 91.2418 145.962 90.4041C145.691 87.7108 145.74 84.7659 146.112 81.4077C146.18 80.8029 146.259 80.1982 146.338 79.5934C146.462 78.6506 146.59 77.6739 146.665 76.7048C146.785 75.2135 146.8 73.6472 146.714 71.9192C146.635 70.2928 146.473 68.6738 146.326 67.2802C146.293 66.9496 146.255 66.6153 146.217 66.281C146.093 65.1729 145.962 64.0272 145.951 62.9003C145.943 62.0589 145.977 61.1874 146.014 60.346C146.093 58.4791 146.172 56.5484 145.781 54.7003C145.8 54.5463 145.766 54.3922 145.676 54.227L145.669 54.2119C145.623 54.0354 145.571 53.8626 145.518 53.686C145.503 53.6372 145.481 53.5921 145.458 53.5471C145.466 53.5396 145.469 53.5358 145.473 53.5283L145.518 53.502C145.86 53.3104 146.544 53.3254 146.838 53.333C147.401 53.348 147.958 53.4118 148.578 53.4907C149.461 53.6034 150.405 53.6485 151.454 53.6598C152.889 53.6598 154.344 53.5809 155.75 53.502C157.039 53.4306 158.374 53.3592 159.686 53.348C162.264 53.3292 164.877 53.4156 167.41 53.502L168.004 53.5208C168.549 53.5396 169.094 53.5621 169.639 53.5846C171.575 53.6673 173.575 53.7537 175.529 53.626C176.773 53.5433 178.029 53.378 179.239 53.2203C179.882 53.1339 180.525 53.0512 181.171 52.9761C183.134 52.7545 185.054 52.5742 186.938 52.8259C189.065 53.1076 190.366 53.9903 190.809 55.4478C191.087 56.3643 191.08 57.3485 191.076 58.2988V58.5279C191.061 59.8126 191.117 61.086 191.189 62.4984Z" fill="#004748"/>
<path d="M144.169 141.054C144.639 144.217 145.12 147.489 145.011 150.731C144.966 152.038 144.748 153.356 144.541 154.63C144.24 156.466 143.928 158.363 144.116 160.283C144.158 160.7 144.424 160.967 144.845 161.015C149.51 161.556 155.566 162.157 161.764 162.157C162.193 162.157 162.621 162.154 163.05 162.15C165.219 162.12 167.406 161.954 169.519 161.793C170.417 161.725 171.312 161.658 172.214 161.598C175.078 161.41 178.04 161.335 181.017 161.372C184.051 161.41 187.246 161.56 191.069 161.842C191.354 161.864 191.602 161.733 191.726 161.492C194 160.816 193.786 157.139 193.692 155.557C193.64 154.678 193.538 153.796 193.44 152.939C193.403 152.624 193.369 152.304 193.335 151.989C193.065 149.465 192.873 147.376 192.73 145.423C192.644 144.262 192.613 143.083 192.58 141.937C192.546 140.724 192.512 139.465 192.414 138.23C192.317 136.979 192.181 135.713 192.046 134.488C191.922 133.343 191.794 132.156 191.696 130.987C191.467 128.181 191.475 125.931 191.723 123.91C191.858 122.791 192.162 121.675 192.459 120.601C192.595 120.113 192.726 119.624 192.847 119.132C193.268 117.401 193.617 115.718 193.256 114.125C193.162 113.708 192.854 112.687 192.05 112.191C191.422 111.808 190.711 111.901 190.035 112.059C188.964 112.311 188.144 112.42 187.295 112.431C186.644 112.435 185.99 112.416 185.355 112.397C184.806 112.379 184.242 112.36 183.682 112.36C182.025 112.36 180.367 112.36 178.706 112.36H176.217C174.77 112.36 173.323 112.371 171.876 112.379C168.936 112.397 165.895 112.42 162.911 112.352C161.862 112.33 160.817 112.288 159.768 112.251C158.806 112.217 157.847 112.179 156.885 112.157C154.506 112.097 151.739 112.048 148.988 112.209C148.003 112.266 146.849 112.356 145.736 112.578C145.003 112.724 144.244 112.908 143.733 113.404C143.47 113.659 143.327 113.967 143.304 114.324C143.3 114.418 143.308 114.512 143.338 114.595C143.316 114.666 143.304 114.745 143.304 114.824V124.136C143.304 125.079 143.297 126.025 143.289 126.968C143.27 129.075 143.252 131.254 143.327 133.395C143.413 135.968 143.797 138.553 144.169 141.054ZM190.027 127.468C190.039 129.845 190.298 132.238 190.546 134.556C190.779 136.727 191.023 138.97 191.057 141.186C191.114 144.604 191.388 148.259 191.944 153.029C192.08 154.198 192.215 155.441 192.223 156.696V156.748C192.23 157.732 192.238 158.953 191.681 159.753C191.523 159.979 191.335 160.084 191.072 160.095C190.877 160.103 190.708 160.178 190.576 160.305C183.991 159.832 178.518 159.742 173.357 160.027C172.112 160.095 170.853 160.196 169.632 160.29C167.857 160.429 166.027 160.576 164.219 160.625C161.377 160.704 158.4 160.643 155.118 160.448C152.265 160.279 149.228 160.005 145.571 159.592C145.503 157.943 145.774 156.286 146.037 154.686C146.191 153.743 146.353 152.763 146.443 151.794C146.721 148.837 146.3 145.765 145.928 143.049C145.838 142.384 145.74 141.719 145.646 141.054C145.334 138.891 145.015 136.656 144.879 134.439C144.744 132.231 144.766 129.969 144.789 127.783C144.797 126.942 144.808 126.1 144.808 125.263V114.831C144.808 114.741 144.793 114.655 144.763 114.572C144.766 114.561 144.77 114.55 144.77 114.538L144.785 114.535L144.793 114.482L144.921 114.403C145.112 114.298 145.187 114.275 145.496 114.185C146.338 113.949 147.21 113.858 148.029 113.791C150.548 113.577 153.077 113.599 155.457 113.641C157.22 113.671 159.016 113.735 160.749 113.798L161.975 113.843C164.365 113.926 166.801 113.907 169.154 113.892C170.143 113.885 171.131 113.877 172.116 113.877H174.653C178.54 113.874 182.555 113.87 186.505 113.945C187.49 113.964 188.543 113.952 189.55 113.738C189.693 113.708 189.854 113.659 190.024 113.607C190.414 113.487 190.854 113.355 191.174 113.445C191.629 113.577 191.802 114.407 191.854 114.76C191.944 115.354 191.922 116.018 191.779 116.912C191.599 118.073 191.287 119.23 190.986 120.346C190.869 120.785 190.749 121.221 190.64 121.66C190.208 123.328 190.016 125.173 190.027 127.468Z" fill="#004748"/>
<path d="M29.3082 14.2523C29.1203 14.211 28.9286 14.1885 28.7256 14.1847C28.594 14.0495 28.4136 13.9744 28.2069 13.9744C28.2069 13.9744 28.2069 13.9744 28.2031 13.9744C24.6284 13.9894 20.0388 15.3266 17.8737 19.0341C16.855 20.7733 16.5581 22.9595 17.0354 25.187C17.3361 26.5843 18.0315 28.5226 19.6516 29.8448C20.986 30.9304 22.5422 31.3511 24.0721 31.3511C25.6433 31.3511 27.1882 30.9079 28.4399 30.2843C31.5711 28.7292 33.7512 25.773 33.9918 22.7491C34.1046 21.3255 33.7174 19.6539 32.8416 17.7795C32.1913 16.3784 31.0448 14.628 29.3082 14.2523ZM28.4926 28.5451C26.5492 29.7359 23.6323 30.521 21.283 29.1537C18.4826 27.5272 17.7008 23.3764 18.7495 20.6644C20.144 17.0583 24.4329 15.6271 27.7145 15.4957C27.8911 15.6722 28.1355 15.7473 28.3873 15.7023C29.6014 15.4957 30.5863 16.7578 31.199 17.8584C31.9658 19.2295 32.4281 20.7395 32.4995 22.103C32.6386 24.7738 30.5863 27.2605 28.4926 28.5451Z" fill="#004748"/>
<path d="M56.4399 16.2993C55.3461 15.4166 53.1472 13.9704 50.7377 14.2221C49.2153 14.2371 47.4712 14.3273 46.024 15.2438C44.7723 16.0364 43.7988 17.3436 42.9718 19.3607C42.3967 20.7581 41.8366 22.8429 42.4418 24.86C42.9004 26.3963 44.0018 27.6697 45.8023 28.7591C47.381 29.7132 49.1402 30.3367 50.8918 30.5583C51.2527 30.6034 51.6549 30.6372 52.0796 30.6372C53.2374 30.6372 54.5567 30.4043 55.6468 29.5892C56.7256 28.7816 57.6052 27.5232 58.3307 25.7427C58.8156 24.552 59.3644 22.7489 59.2065 20.9234C59.0223 18.7973 57.6014 17.2347 56.4399 16.2993ZM57.297 24.1463C56.8497 25.6563 56.2106 26.8771 55.4025 27.7711C53.0945 30.3367 48.9034 28.6389 47.678 28.0566C46.6292 27.5608 45.1407 26.7494 44.3438 25.461C43.4379 23.9923 43.6371 22.2644 43.9642 21.0736C44.2724 19.9505 45.0091 17.892 46.4864 16.7426C47.6629 15.826 49.2341 15.7359 50.7565 15.7209C50.9068 15.7058 51.0572 15.6983 51.2076 15.6983C52.6886 15.6983 54.053 16.4233 54.9777 17.0656C55.7897 17.6328 57.2143 18.8161 57.6014 20.3487C57.857 21.3629 57.7593 22.6024 57.297 24.1463Z" fill="#004748"/>
<path d="M75.5502 14.2523C75.2908 14.226 75.0089 14.2185 74.6819 14.2147C72.3589 14.0457 70.0509 14.9096 68.3481 16.5887C66.6641 18.249 65.7733 20.5178 65.9124 22.8129C66.0589 25.2996 66.6265 27.0801 67.6903 28.4286C68.7353 29.7471 70.3967 30.6261 72.4942 30.9679C73.2309 31.0881 73.9263 31.1482 74.5804 31.1482C75.7907 31.1482 76.8695 30.9416 77.8356 30.5284C79.1324 29.9725 80.2563 29.0259 81.0833 27.7826C82.6357 25.4574 83.0266 22.2983 82.1019 19.5374C81.0983 16.5399 78.6475 14.5641 75.5502 14.2523ZM74.0541 15.7022C74.1255 15.7172 74.1932 15.7248 74.2571 15.721C74.3887 15.7172 74.5165 15.7172 74.633 15.7172L74.7232 15.721C74.7758 15.7248 74.8285 15.7248 74.851 15.721C76.099 15.7548 77.1928 16.0591 78.1062 16.6225C79.0459 17.2047 79.824 18.095 80.354 19.2069C81.3314 21.2541 81.3314 23.9248 80.3503 26.0133C79.2677 28.3235 77.0988 29.6983 74.5353 29.657C73.1294 29.6419 71.1523 29.394 69.7088 28.3159C68.6488 27.5271 67.9422 26.2349 67.6114 24.4807C67.134 21.9565 67.5362 19.8642 68.8105 18.2603C70.081 16.6638 71.9905 15.7323 74.0541 15.7022Z" fill="#004748"/>
</svg>
