<svg width="280" height="290" viewBox="0 0 280 290" fill="none" xmlns="http://www.w3.org/2000/svg">
<path d="M176.209 48.4621C171.937 38.8703 164.04 30.595 154.296 26.6079C119.548 12.3853 91.9514 56.8711 78.6489 81.9476C61.7332 113.828 45.2634 152.664 61.0831 188.084C68.1469 203.899 83.9207 226.94 103.795 225.005C105.558 224.834 107.221 224.245 108.596 223.304C112.672 223.367 116.823 222.828 120.928 221.637C138.935 216.416 153.4 202.925 157.622 184.306C159.647 175.379 159.456 166.309 157.926 157.328C156.272 147.623 152.738 138.387 152.359 128.452C151.6 108.495 165.148 94.791 174.108 78.3492C179.347 68.7448 180.739 58.6432 176.209 48.4621Z" fill="#DEF7F7"/>
<path d="M32.2837 91.3804C32.0048 91.1635 31.6562 91.2022 31.4354 91.485C30.1144 93.1817 28.3945 94.6266 26.7326 96.0211L26.5196 96.1993C24.42 97.9658 22.1229 99.7864 19.5624 101.15L19.481 101.193C18.7682 101.572 17.6913 102.149 16.9282 102.025C16.6726 101.987 16.4324 102.076 16.2658 102.277C16.0992 102.483 16.0489 102.758 16.1341 102.978C16.2116 103.176 16.3782 103.304 16.6067 103.342C16.7655 103.37 16.9243 103.377 17.0793 103.377C17.8928 103.377 18.6714 103.064 19.3532 102.758C20.6315 102.184 21.8246 101.41 22.824 100.724C25.218 99.0853 27.6275 97.1368 29.9866 94.9326C30.8272 94.1462 31.6949 93.3366 32.4232 92.4031C32.7059 92.0506 32.5704 91.6051 32.2837 91.3804Z" fill="#004748"/>
<path d="M21.5186 61.6727C21.968 61.6456 22.1849 61.266 22.1655 60.9212C22.1461 60.5997 21.8905 60.2898 21.4954 60.3131C17.4357 60.5494 13.314 60.2898 9.32408 60.0458C6.48463 59.8676 3.55222 59.6894 0.662409 59.6816C0.22855 59.6816 0 60.0225 0 60.3595C0 60.6966 0.224677 61.0375 0.662409 61.0413C3.54447 61.0452 6.46914 61.2273 9.30084 61.4055C12.1829 61.5836 15.1386 61.7696 18.0942 61.7696C19.237 61.7657 20.3797 61.7386 21.5186 61.6727Z" fill="#004748"/>
<path d="M34.0579 30.4815C32.3225 29.0017 30.5289 27.4716 28.8283 25.895C26.1787 23.4391 23.1921 20.433 21.1506 16.7491C21.0344 16.5399 20.8368 16.416 20.6083 16.4121C20.6044 16.4121 20.6005 16.4121 20.5967 16.4121C20.3487 16.4121 20.1086 16.5516 19.9769 16.7646C19.8529 16.9699 19.8529 17.2101 19.973 17.427C22.0842 21.2349 25.2258 24.3959 27.7282 26.7279C29.4791 28.3587 31.3308 29.9353 33.1204 31.4616C34.4491 32.5927 35.8243 33.7664 37.1453 34.9479C37.277 35.0641 37.4358 35.1261 37.5946 35.1261C37.6643 35.1261 37.7379 35.1145 37.8077 35.0913C38.0517 35.0099 38.2454 34.8007 38.2958 34.5606C38.3422 34.3436 38.2648 34.1306 38.0904 33.9718C36.7618 32.7864 35.3866 31.6165 34.0579 30.4815Z" fill="#004748"/>
<path d="M65.1524 22.8308C65.1718 22.8308 65.1872 22.8308 65.2066 22.827C65.4158 22.8076 65.594 22.6759 65.6908 22.4667C68.8092 15.7187 69.2431 8.00217 69.2508 0.66144C69.2508 0.417395 69.1346 0.212087 68.9331 0.095875C68.7123 -0.0319583 68.4296 -0.0319583 68.2088 0.095875C68.0073 0.212087 67.8911 0.417395 67.8911 0.66144C67.8872 7.84722 67.4727 15.3855 64.5016 21.812C64.3931 22.0445 64.4164 22.3001 64.5636 22.5093C64.703 22.7107 64.9277 22.8308 65.1524 22.8308Z" fill="#004748"/>
<path d="M92.9077 31.3414C93.0084 31.3414 93.1169 31.3181 93.2214 31.2639C97.0487 29.3386 100.465 26.6696 103.77 24.0897L104.118 23.8186C104.591 23.4467 105.067 23.0787 105.544 22.7107C108.492 20.4252 111.544 18.0622 114.217 15.3583C114.523 15.0484 114.442 14.6456 114.202 14.4054C113.961 14.1691 113.562 14.0916 113.256 14.4015C110.603 17.0821 107.562 19.4374 104.626 21.7151C104.203 22.0405 103.781 22.3698 103.363 22.6952L102.96 23.009C99.6945 25.554 96.3204 28.1881 92.559 30.0824C92.1872 30.2683 92.1407 30.6557 92.284 30.9385C92.3963 31.1632 92.6326 31.3414 92.9077 31.3414Z" fill="#004748"/>
<path d="M206.424 179.725C206.714 179.171 206.931 178.694 207.105 178.245C207.222 177.943 207.043 177.61 206.803 177.463C202.666 174.937 199.513 172.578 196.871 170.044C195.24 168.479 193.795 166.701 192.397 164.978C191.184 163.486 189.929 161.941 188.554 160.534C187.655 159.612 186.664 158.679 185.358 157.517C182.755 154.476 179.858 151.423 176.743 148.452C175.445 147.213 174.082 145.992 172.769 144.815C170.588 142.862 168.333 140.84 166.299 138.671C166.11 138.47 165.924 138.268 165.738 138.067C165.056 137.327 164.351 136.564 163.58 135.874C162.67 135.057 161.705 134.298 160.795 133.6L160.036 133.019C158.382 131.756 156.669 130.451 155.178 128.948C156.751 127.584 158.595 126.465 160.38 125.384L160.818 125.117C161.244 124.857 161.67 124.613 162.096 124.365L162.282 124.253C163.441 123.854 164.68 123.393 166.176 122.796C166.865 122.521 167.551 122.231 168.232 121.944C169.139 121.561 170.076 121.166 171.014 120.809C172.742 120.155 174.535 119.605 176.22 119.113L177.301 118.799C180.315 117.919 183.429 117.013 186.334 115.661C186.784 115.452 187.272 115.258 187.787 115.049C189.995 114.162 192.498 113.155 193.04 110.645C193.055 110.575 193.059 110.505 193.051 110.432C193.191 110.288 193.261 110.087 193.234 109.874C193.203 109.61 193.028 109.397 192.773 109.304C185.87 106.837 178.8 104.462 171.967 102.169C169.561 101.363 167.156 100.553 164.75 99.74C159.393 97.9271 154.992 96.517 150.909 95.3046C149.716 94.9521 148.523 94.5995 147.326 94.247C143.995 93.267 140.551 92.2559 137.184 91.1829C131.87 89.4901 127.585 87.9174 123.696 86.2323C121.178 85.1399 118.653 83.9584 116.204 82.8156C114.252 81.9053 112.234 80.9601 110.231 80.0692C109.015 79.5268 107.798 78.9884 106.578 78.4461C103.313 76.9973 99.9385 75.502 96.6381 73.9796C94.6238 73.0538 92.5978 72.0699 90.6338 71.117C88.3328 70.0013 85.9543 68.8469 83.5836 67.7778C80.6977 66.4723 77.7381 65.2095 74.8754 63.9854C69.2043 61.5643 63.3433 59.058 57.8 56.1295C56.7967 55.5988 55.7779 55.0409 54.7708 54.4638C54.5073 54.3127 54.2091 54.3437 53.9921 54.5451C53.7636 54.7582 53.7016 55.0952 53.8372 55.378C54.0309 55.777 59.6207 72.6936 59.6207 72.6936C60.4845 75.4129 61.3484 78.1362 62.2161 80.8555C63.0451 83.4626 66.605 94.6654 67.159 95.6416C67.341 96.211 67.5541 96.7727 67.7981 97.3344C68.2862 98.4423 68.8324 99.5308 69.3631 100.588C70.1766 102.211 71.0172 103.889 71.6525 105.636C73.907 111.869 76.3552 118.005 78.877 124.268C83.3047 135.27 88.3754 148.1 92.4932 161.17C93.3415 163.862 93.9807 166.663 94.6005 169.37C95.3288 172.562 96.0842 175.863 97.1843 179.016C98.3619 182.394 99.892 185.884 101.732 189.386L101.926 189.762C103.072 191.974 105.203 196.084 108.352 194.569C109.263 194.131 110.084 193.368 110.924 192.179L110.994 192.09C112.028 190.726 112.784 189.181 113.528 187.589L113.907 186.798C114.113 186.376 114.318 185.954 114.527 185.532C114.949 184.672 115.383 183.819 115.813 182.967C116.669 181.271 117.56 179.512 118.366 177.749C119.354 175.599 120.314 173.391 121.24 171.261C121.573 170.502 121.903 169.738 122.236 168.979C122.995 167.251 123.584 165.927 124.149 164.691C124.328 164.3 124.521 163.912 124.711 163.521C125.067 162.793 125.435 162.041 125.73 161.27C126.075 160.376 126.361 159.442 126.636 158.543C126.896 157.703 127.163 156.831 127.477 155.994L127.539 155.832C127.818 155.08 128.399 153.515 129.197 153.279C129.453 153.205 129.72 153.275 130.006 153.492C130.618 153.957 131.037 154.751 131.405 155.448L131.537 155.696C131.633 155.878 131.73 156.064 131.827 156.25C132.149 156.874 132.486 157.521 132.908 158.102C134.577 160.407 136.557 162.518 138.474 164.555C140.404 166.608 142.53 168.704 144.785 170.78C153.148 178.474 162.526 185.206 171.599 191.718L172.753 192.547C173.276 192.923 173.795 193.298 174.314 193.678C174.992 194.17 175.674 194.666 176.332 195.135C177.475 196.235 178.812 197.498 180.241 198.602L180.315 198.66C181.062 199.241 181.899 199.895 182.949 199.849C183.313 199.833 183.696 199.752 184.119 199.613C184.607 199.764 185.021 199.864 185.413 199.926C185.726 199.977 186.028 200 186.319 200C189.058 200 190.855 197.959 192.598 195.979C193.431 195.034 194.214 194.143 195.097 193.457C196.344 192.485 197.688 191.594 198.99 190.726C200.23 189.901 201.512 189.049 202.716 188.127C203.871 187.244 205.192 186.194 206.234 184.923C206.892 184.122 207.644 183.041 207.586 181.817C207.563 181.034 207.167 180.325 206.424 179.725ZM203.418 176.92C204.165 177.416 204.936 177.9 205.61 178.315C205.498 178.574 205.374 178.834 205.238 179.093C205.227 179.093 205.215 179.093 205.203 179.093C204.727 178.725 204.243 178.361 203.762 177.997C201.213 176.076 198.587 174.092 196.565 171.575C198.587 173.449 200.88 175.239 203.418 176.92ZM158.978 133.902C160.737 135.247 162.561 136.633 164.103 138.276C165.594 139.86 167.338 141.693 169.216 143.409C169.925 144.056 170.638 144.699 171.351 145.338C172.393 146.275 173.474 147.24 174.512 148.212C175.527 149.161 176.484 150.075 177.394 150.966C175.376 149.378 173.342 147.79 171.362 146.244C170.181 145.322 168.996 144.396 167.814 143.471C166.702 142.599 165.579 141.696 164.498 140.821C162.24 138.996 159.904 137.114 157.498 135.409L157.212 135.208C155.991 134.348 154.733 133.461 154.004 132.221C153.477 131.33 153.528 130.598 154.171 129.866C155.651 131.365 157.34 132.655 158.978 133.902ZM154.488 127.763L154.423 127.813C154.283 127.921 154.14 128.038 153.997 128.158C153.849 127.921 153.675 127.704 153.501 127.491L153.392 127.36C153.191 127.112 153.013 126.856 153.047 126.674C153.067 126.581 153.152 126.488 153.303 126.407C153.888 126.085 154.624 126.019 155.329 125.954C155.635 125.926 155.949 125.899 156.247 125.849C156.646 125.783 157.053 125.706 157.479 125.617C156.305 126.384 155.356 127.065 154.488 127.763ZM189.368 112.849C188.612 113.224 187.814 113.561 187.043 113.891C186.52 114.112 185.994 114.332 185.478 114.569C182.786 115.797 179.889 116.637 177.088 117.451C176.611 117.59 176.135 117.726 175.658 117.869C175.744 117.826 175.829 117.784 175.91 117.741C177.088 117.129 178.265 116.475 179.404 115.843C180.02 115.498 180.636 115.157 181.256 114.82L181.488 114.693C184.556 113.019 188.023 111.129 191.587 110.734C191.273 111.582 190.576 112.244 189.368 112.849ZM126.307 155.305L126.222 155.533C125.885 156.42 125.602 157.339 125.327 158.23C125.067 159.074 124.796 159.946 124.486 160.782C124.215 161.511 123.859 162.227 123.518 162.924C123.332 163.3 123.146 163.676 122.972 164.056C122.236 165.655 121.531 167.259 120.996 168.479C120.686 169.188 120.376 169.897 120.066 170.606C119.408 172.113 118.738 173.659 118.052 175.193C118.13 174.918 118.207 174.635 118.285 174.34L118.397 173.93C120.043 167.864 121.748 161.588 124.87 156.018C125.497 154.898 126.253 153.624 127.275 152.686C127.76 152.241 128.194 152.02 128.569 152.02C128.616 152.02 128.658 152.024 128.701 152.028C127.368 152.485 126.756 154.104 126.307 155.305ZM148.697 172.473C143.921 168.309 139.888 164.292 136.371 160.197C136.193 159.988 136.011 159.779 135.825 159.57C135.135 158.783 134.423 157.97 133.861 157.106C133.764 156.959 133.675 156.812 133.59 156.661C134.361 157.296 135.224 157.958 136.235 158.694C136.665 159.008 137.095 159.314 137.529 159.62C138.393 160.236 139.288 160.871 140.136 161.534C141.074 162.266 142.003 163.048 142.902 163.804C143.514 164.319 144.126 164.83 144.746 165.334C145.389 165.857 146.032 166.38 146.675 166.899C149.565 169.239 152.552 171.66 155.376 174.174C158.823 177.25 162.054 180.596 164.808 183.49L165.959 184.703C167.268 186.082 168.608 187.492 169.964 188.882C162.802 183.719 155.453 178.361 148.697 172.473ZM191.893 194.84C190.882 196.018 189.836 197.234 188.496 198.021C187.795 198.435 187.039 198.625 186.199 198.598C186.315 198.524 186.431 198.454 186.544 198.385C188.589 197.106 190.549 195.588 192.443 194.124L192.656 193.957C192.401 194.251 192.145 194.546 191.893 194.84ZM193.784 191.354C191.564 193.163 189.259 194.844 187.497 196.107C186.548 196.789 185.366 197.633 184.119 198.16C183.545 197.951 182.937 197.676 182.259 197.319C180.388 196.335 178.637 195.135 177.344 194.22L177.316 194.193C176.886 193.771 176.453 193.353 176.019 192.942C172.854 189.967 169.801 186.779 166.943 183.769C164.088 180.763 161.136 177.652 158.01 174.739C154.713 171.671 151.107 168.747 147.919 166.167C147.07 165.481 146.226 164.784 145.385 164.09C143.119 162.219 140.775 160.286 138.343 158.543L138.165 158.415C136.708 157.373 135.201 156.297 133.822 155.111C132.664 154.116 131.482 153.027 130.859 151.633C130.762 151.416 130.611 151.33 130.502 151.296C130.448 151.28 130.39 151.268 130.328 151.268C130.266 151.268 130.204 151.276 130.142 151.296C130.127 151.28 130.111 151.268 130.096 151.253C129.534 150.796 128.93 150.606 128.29 150.687C127.26 150.819 126.168 151.664 125.048 153.19C123.378 155.468 122.236 158.094 121.205 160.585C120.132 163.18 119.152 166.07 118.215 169.421C117.917 170.486 117.63 171.551 117.339 172.62C116.293 176.51 115.209 180.531 113.578 184.28C113.388 184.718 113.194 185.156 113.001 185.59L112.741 186.124C112.18 187.279 111.602 188.472 110.944 189.618C110.58 190.254 110.165 190.974 109.681 191.633C108.895 192.617 108.116 193.124 107.299 193.182C107.058 193.198 106.865 193.322 106.752 193.523C105.958 193.38 105.311 192.605 104.726 191.776C102.774 189.018 101.418 185.791 100.105 182.673L99.8339 182.026C98.8229 179.632 98.052 177.459 97.4748 175.379C96.9054 173.329 96.425 171.214 95.9602 169.173C95.7588 168.29 95.5573 167.403 95.3481 166.523C93.942 160.577 91.8773 154.704 89.8784 149.026L89.7777 148.735C87.4263 142.057 84.8697 135.568 82.9057 130.66C82.2433 129.002 81.5731 127.344 80.9069 125.686C79.1521 121.328 77.3353 116.819 75.6153 112.361C75.1621 111.179 74.7244 109.967 74.2983 108.793C73.6552 107.007 72.9889 105.163 72.2452 103.385C71.7455 102.192 71.1412 101.03 70.5562 99.9066C69.9481 98.7406 69.3321 97.5358 68.8247 96.3001C66.5934 90.2377 60.5039 70.3693 58.7839 64.9616C57.986 62.4553 56.3551 57.1366 56.2312 56.9313C56.2157 56.8849 56.204 56.8422 56.1885 56.7958C62.0844 59.98 68.3327 62.6567 74.3835 65.2482C76.1693 66.0114 77.9512 66.7745 79.7292 67.5531C82.9096 68.9438 86.0899 70.4739 89.1657 71.9498C90.3704 72.527 91.5751 73.1081 92.7799 73.6814C97.1184 75.7383 101.581 77.7178 105.9 79.6314L106.357 79.8329C108.701 80.871 111.072 81.9634 113.365 83.0132C119.76 85.9534 126.377 88.9904 133.175 91.2991C137.758 92.8525 142.48 94.2432 147.043 95.5835C151.56 96.9122 156.236 98.2835 160.768 99.8213C163.599 100.778 166.435 101.731 169.267 102.68C175.728 104.849 182.41 107.092 188.949 109.386L189.747 109.668C187.109 110.28 184.568 111.536 182.364 112.682C181.217 113.279 180.071 113.91 178.959 114.522C176.755 115.739 174.477 116.994 172.122 118.012C168.546 119.558 165.168 121.018 161.86 122.932C161.116 123.18 160.489 123.385 159.85 123.567C158.393 123.99 156.89 124.423 155.387 124.59L155.054 124.625C153.981 124.733 152.648 124.865 151.971 125.775C151.254 126.74 151.843 127.488 152.362 128.15C152.621 128.483 152.869 128.797 152.97 129.126C152.707 129.44 152.524 129.75 152.416 130.06C151.885 131.559 152.834 133.012 153.443 133.744C154.395 134.886 155.643 135.758 156.844 136.599L157.359 136.959C158.641 137.869 159.888 138.88 161.093 139.856C161.608 140.275 162.127 140.697 162.647 141.108C165.223 143.153 167.861 145.21 170.41 147.201C171.796 148.282 173.179 149.363 174.562 150.447L175.674 151.315C178.622 153.624 181.67 156.01 184.483 158.528L185.366 159.57C188.267 163.01 191.27 166.566 193.939 170.257L194.291 170.746C194.911 171.609 195.554 172.504 196.278 173.322C197.026 174.162 197.882 174.991 198.889 175.863C200.156 176.955 201.508 177.974 202.817 178.962C203.394 179.396 203.968 179.829 204.541 180.271C203.464 181.952 202.081 183.475 200.865 184.772C198.792 187.004 196.41 189.212 193.784 191.354ZM206.18 182.413C205.87 183.579 204.808 184.571 204.034 185.295C202.116 187.089 199.881 188.576 197.719 190.021C197.328 190.281 196.941 190.54 196.553 190.804C198.196 189.382 199.765 187.898 201.241 186.364C202.744 184.807 204.448 182.979 205.738 180.934C206.18 181.371 206.327 181.855 206.18 182.413Z" fill="#004748"/>
</svg>
