<svg width="280" height="290" viewBox="0 0 280 290" fill="none" xmlns="http://www.w3.org/2000/svg">
<path d="M211.849 112.457C210.973 99.8505 206.903 87.6058 200.077 76.9444C186.288 55.4029 164.02 41.8538 140.248 33.6428C116.032 25.2811 87.5033 22.71 64.9327 37.0433C54.21 43.8594 46.0623 53.5104 41.7354 65.4687C37.0084 78.5353 38.5941 93.2908 41.7732 106.508C44.7483 118.881 48.9921 131.284 54.867 142.587C61.074 154.515 69.8108 164.203 80.4731 172.286C89.5421 179.162 99.7589 184.501 109.87 189.666C122.85 196.301 136.209 201.104 150.911 198.065C152.489 197.741 177.755 190.533 186.16 182.442C194.896 174.028 200.333 162.952 204.6 151.778C209.319 139.405 212.778 125.795 211.849 112.457Z" fill="#DEF7F7"/>
<path d="M153.578 84.451C152.812 82.2933 151.855 80.1832 150.675 78.2155C151.095 77.1502 151.272 75.9697 151.353 74.8501C151.53 72.455 151.285 70.0395 150.994 67.6647C150.539 63.9397 150.139 60.2351 149.834 56.4898C149.162 48.2391 148.341 39.8528 145.804 31.9346C143.518 24.8103 139.427 17.4282 131.87 14.9924C127.528 13.5879 122.637 14.1442 118.438 15.7726C114.639 17.245 110.555 19.9115 109.036 23.8876C108.934 24.159 108.839 24.4304 108.751 24.7086C108.31 23.8197 107.815 22.958 107.245 22.1302C104.714 18.4527 100.875 16.2205 96.4787 15.5555C91.5808 14.8159 86.1876 15.4198 81.8528 17.9235C79.6684 19.1855 77.7893 20.97 76.4935 23.148C76.2765 23.5076 76.0865 23.8808 75.9033 24.2607C74.2549 21.7163 72.1994 19.4705 69.6283 17.7064C66.2296 15.3791 62.1729 14.246 58.089 14.0425C53.4556 13.805 48.5713 14.5717 44.216 16.1458C43.5173 16.3969 42.8457 16.6818 42.1741 16.9804C36.937 14.4088 30.3634 14.4699 25.1331 16.9872C18.3425 20.2576 14.435 27.4158 12.0267 34.2348C9.26568 42.0512 8.05816 50.4036 7.4544 58.6474C6.71496 68.7911 6.9931 79.0501 7.47475 89.1937C8.126 102.872 9.7609 116.558 13.4106 129.782C14.9777 135.454 16.9043 141.052 18.8852 146.589C20.5676 151.297 22.4195 155.972 24.7803 160.383C27.0597 164.644 29.8411 168.647 33.2194 172.114C36.9505 175.947 41.3465 179.055 46.0816 181.518C55.2398 186.281 65.4291 188.9 75.693 189.721C86.2758 190.562 97.0418 189.497 107.245 186.566C117.169 183.71 126.633 179.035 134.597 172.419C143.002 165.437 149.596 156.373 153.198 146.032C154.976 140.923 156.027 135.59 156.543 130.216C157.045 125.026 156.957 119.808 156.991 114.597C157.045 104.555 156.977 94.0315 153.578 84.451ZM109.002 30.3402C109.049 30.0416 109.097 29.7363 109.144 29.4377C110.413 33.6513 110.86 38.2108 111.471 42.4515C111.919 45.5387 112.285 48.6327 112.523 51.7402C112.76 54.9563 112.97 58.3014 112.455 61.4971C112.292 62.5285 112.075 63.7226 111.424 64.5775C111.017 65.1136 110.474 65.3239 109.89 65.1203C109.741 65.0661 109.504 64.91 109.3 64.6861C109.103 64.4758 108.886 64.1094 108.717 63.7701C108.249 62.8134 108.011 61.7346 107.821 60.6965C107.258 57.6432 107.204 54.4814 107.218 51.3806C107.238 47.7099 107.455 44.046 107.774 40.3956C108.079 37.0302 108.466 33.6716 109.002 30.3402ZM81.0116 20.1083C84.9394 17.1432 90.1698 16.3019 94.9727 16.7293C99.3144 17.1161 103.337 18.9752 105.915 22.5848C106.858 23.9079 107.611 25.3396 108.222 26.8323C107.984 28.0197 107.808 29.2274 107.625 30.3944C107.075 33.8887 106.675 37.4034 106.376 40.9248C106.051 44.7652 105.84 48.6259 105.861 52.4866C105.874 55.6281 105.983 58.8577 106.688 61.9314C107.068 63.5734 107.76 65.9753 109.639 66.4638C112.007 67.0812 113.181 64.5979 113.594 62.7184C114.307 59.5159 114.151 56.0962 113.947 52.8462C113.737 49.4469 113.337 46.0611 112.862 42.689C112.122 37.4373 111.613 31.7379 109.639 26.7034C109.823 25.8756 110.04 25.0546 110.338 24.2743C110.494 23.8672 111.023 22.9444 111.43 22.3813C112.068 21.506 112.841 20.7257 113.676 20.0337C115.453 18.5545 117.576 17.4757 119.768 16.7361C123.858 15.3588 128.417 15.0263 132.487 16.6479C139.522 19.4501 143.023 27.0494 144.99 33.8752C147.181 41.4676 147.927 49.3926 148.558 57.2429C148.83 60.6626 149.21 64.0415 149.63 67.4476C149.901 69.6595 150.132 71.8918 150.051 74.1241C150.017 74.9655 149.956 75.8814 149.745 76.7567C148.687 75.2097 147.48 73.7713 146.082 72.5025C142.745 69.4628 138.213 68.1465 133.844 67.4815C124.028 65.982 114.11 67.4612 104.253 66.9591C98.229 66.6538 92.2388 65.9549 86.2148 65.6971C84.0711 65.6089 81.9003 65.5614 79.7294 65.6224C80.591 64.1365 81.1066 62.0128 81.3033 61.1375C81.7171 59.2648 81.9952 57.3311 82.0292 55.4177C82.0834 52.0116 82.0359 48.5784 81.8392 45.1723C81.4661 38.6993 80.1093 31.575 76.8056 25.7331C77.7078 23.5619 79.0171 21.6146 81.0116 20.1083ZM66.0125 90.9239C65.1577 90.0826 64.398 89.1598 63.7671 88.1217C61.5691 84.5052 60.9992 79.5182 62.0507 75.4404C62.5663 73.4456 63.5568 71.5526 65.1645 70.2295C67.0097 68.7164 69.5944 68.2075 71.8737 67.7665C73.6104 67.434 75.3471 67.2169 77.0973 67.0744C77.6129 67.2848 78.081 67.2169 78.4948 66.9727C87.7208 66.457 97.0961 68.1058 106.281 68.3907C115.67 68.6825 125.14 67.2916 134.468 68.9403C138.728 69.6935 142.873 71.1319 145.96 74.2734C147.168 75.5015 148.219 76.8585 149.135 78.2969C149.033 78.4801 148.918 78.6497 148.796 78.8194C148.619 78.7176 148.402 78.7108 148.172 78.8669C146.618 79.9389 145.132 78.8126 143.877 77.8152C142.582 76.7839 141.327 75.9222 139.773 75.3183C138.023 74.633 136.178 74.2395 134.339 73.8731C132.406 73.4863 130.473 73.0792 128.519 72.7739C119.849 71.4237 111.03 71.5187 102.292 70.8334C97.727 70.4805 93.1682 70.1141 88.5959 70.528C86.364 70.7316 84.1321 71.0233 81.8867 71.0369C80.4621 71.0437 79.0375 71.0505 77.6129 71.1319C74.7908 71.2947 71.8737 71.6883 69.3298 72.991C66.7519 74.3073 65.1306 76.5735 64.4522 79.3622C63.55 83.0872 64.052 87.4975 66.0125 90.9239ZM76.1408 27.4633C77.8435 30.7608 78.9764 34.4044 79.6412 37.9462C80.2654 41.2709 80.496 44.6566 80.591 48.0356C80.6724 50.8514 80.8081 53.7215 80.6113 56.5305C80.4824 58.4099 80.1636 60.2894 79.6548 62.101C79.4242 62.922 79.1664 63.743 78.7797 64.5097C78.583 64.9032 78.3184 65.4392 77.9181 65.6971C77.735 65.7039 77.5518 65.7106 77.3687 65.7242C76.5817 65.2628 75.8287 62.9831 75.6456 62.447C75.0554 60.7101 74.689 58.9256 74.438 57.114C73.8275 52.7987 73.7325 48.3952 73.8546 44.0392C73.9835 39.4728 74.3702 34.8658 75.3606 30.3944C75.5777 29.397 75.8287 28.4132 76.1408 27.4633ZM52.6958 15.603C56.8272 15.1213 61.0807 15.318 65.0017 16.8108C69.5198 18.5274 72.8506 21.852 75.2453 25.8552C74.9672 26.6016 74.7297 27.3615 74.5194 28.1214C73.3051 32.5453 72.8235 37.1863 72.586 41.7594C72.3418 46.4343 72.3893 51.1635 72.9185 55.818C73.1288 57.65 73.3933 59.4955 73.875 61.28C74.2481 62.6845 74.7365 64.5572 75.6998 65.8599C73.3187 66.0906 70.9579 66.4841 68.6582 67.1423C66.4602 67.7733 64.4794 68.6961 63.0073 70.5009C61.6573 72.1564 60.8568 74.192 60.4972 76.2818C59.7442 80.6446 60.4769 85.7537 63.0208 89.4516C63.8281 90.6186 64.7778 91.6499 65.8361 92.5727C65.3002 92.3759 64.7643 92.1724 64.2284 91.9688C62.0779 91.1546 59.8867 90.4557 57.7227 89.6755C54.1408 88.3863 50.5318 86.2354 48.5577 82.8768C48.5509 82.8701 48.5441 82.8633 48.5373 82.8565C53.9101 77.0756 55.2873 68.3704 55.579 60.6897C55.8639 53.2058 55.7689 45.6405 54.5071 38.238C53.3471 31.3986 51.0745 23.8536 45.5931 19.1991C44.9894 18.6902 44.3449 18.2424 43.6801 17.8217C46.5632 16.6751 49.6092 15.9626 52.6958 15.603ZM52.2481 34.0923C54.0662 41.2166 54.4189 48.6802 54.3375 56.0012C54.2493 64.1704 53.9441 73.0114 49.1207 79.9728C47.8047 81.8727 46.1291 83.535 44.155 84.7631C42.113 86.0319 39.7997 86.7715 37.4729 87.2939C33.6265 88.1624 29.3323 88.2913 25.7436 86.439C18.0033 82.4426 17.9558 72.0547 18.2543 64.5029C18.607 55.7095 20.4522 46.8278 24.0273 38.7672C27.4396 31.0662 32.6224 23.8265 40.0372 19.5655C40.7291 19.1652 41.4482 18.8123 42.1673 18.4731C47.8454 21.6417 50.7082 28.0332 52.2481 34.0923ZM155.62 115.153C155.586 120.134 155.661 125.121 155.193 130.087C154.698 135.305 153.667 140.482 151.964 145.442C148.531 155.443 142.202 164.182 134.17 171.008C126.558 177.474 117.454 182.074 107.923 184.951C98.1747 187.889 87.9107 189.077 77.7486 188.507C67.8441 187.95 57.9397 185.698 48.9511 181.437C44.2974 179.231 39.8947 176.483 36.0822 173.003C32.5885 169.814 29.6647 166.089 27.2564 162.025C24.8346 157.933 22.9283 153.557 21.2459 149.113C19.3872 144.2 17.7048 139.2 16.1241 134.192C12.1352 121.545 10.1001 108.395 9.17749 95.1917C8.72298 88.6441 8.51946 82.0762 8.44484 75.5083C8.40414 71.3558 8.377 67.1966 8.56016 63.0373C8.89257 55.2617 9.76769 47.4385 11.7282 39.8935C13.5395 32.9253 16.3751 25.4685 21.9922 20.6579C26.9444 16.4172 34.5694 15.1891 40.6274 17.72C34.0131 21.16 28.8438 26.8933 25.1941 33.3934C20.6829 41.4201 18.2068 50.5528 17.2435 59.6719C16.789 63.9805 16.694 68.3365 17.0467 72.6518C17.4063 77.0688 18.4781 81.6216 21.5784 84.9598C24.2444 87.8367 28.0434 89.1598 31.9034 89.248C34.1895 89.3023 36.4892 88.9562 38.7008 88.3863C41.0955 87.7689 43.4359 86.9139 45.4846 85.5027C46.2308 84.987 46.9092 84.417 47.5537 83.82C49.6092 87.1243 53.0893 89.3158 56.644 90.7136C58.8148 91.5685 61.0603 92.2199 63.2447 93.0408C65.4359 93.8686 67.6203 94.6964 69.8657 95.3749C71.4939 96.2841 73.2034 97.0372 74.9061 97.6954C79.4174 99.4324 84.1525 100.586 88.9215 101.332C92.5102 101.895 96.1395 102.255 99.7757 102.377C97.6049 103.042 95.4747 103.843 93.5074 104.976C91.5062 106.129 89.6949 107.602 88.0803 109.264C86.459 110.933 85.0344 112.779 83.6301 114.638C82.0427 116.741 80.3807 118.81 78.9493 121.022C76.3375 125.046 74.5466 129.517 73.6715 134.24C72.6335 139.858 72.6946 145.618 72.6946 151.304C72.6946 152.179 74.0514 152.179 74.0514 151.304C74.0514 146.351 73.9903 141.344 74.6823 136.431C75.3267 131.872 76.7242 127.489 79.0307 123.492C80.3468 121.206 81.9477 119.129 83.5284 117.019C84.9394 115.147 86.3301 113.254 87.8768 111.496C89.3625 109.807 90.9974 108.246 92.8629 106.991C95.0541 105.512 97.4624 104.535 99.9724 103.748C101.641 103.225 103.324 102.784 105.026 102.391C105.054 102.391 105.074 102.391 105.101 102.391C110.067 102.214 115.168 101.583 119.802 99.6902C120.602 99.3645 120.317 98.2246 119.442 98.3807C114.592 99.2424 109.7 99.9413 104.897 101.034C104.836 101.034 104.775 101.04 104.714 101.04C99.3144 101.203 93.8873 100.796 88.562 99.9141C84.0033 99.161 79.4784 98.0279 75.1639 96.352C74.2142 95.9856 73.2509 95.5717 72.3011 95.1239C72.3215 94.9067 72.2333 94.6896 71.9551 94.5743C66.6298 92.3148 64.5811 85.6723 65.6394 80.3257C66.1889 77.5438 67.6203 75.3522 70.2049 74.0902C72.7421 72.8485 75.693 72.5703 78.4744 72.4618C79.9465 72.4075 81.4186 72.4414 82.8907 72.3871C85.0751 72.3057 87.2459 71.9936 89.4303 71.824C93.7788 71.4847 98.134 71.8715 102.476 72.2107C110.928 72.8689 119.469 72.7671 127.868 74.0359C130.011 74.3616 132.141 74.8094 134.265 75.2369C136.286 75.644 138.369 76.085 140.241 76.9806C142.812 78.2087 145.512 82.0083 148.599 80.2035C148.843 80.3867 149.182 80.4342 149.454 80.156C149.63 79.9796 149.786 79.7964 149.929 79.6064C151.082 81.6623 151.998 83.8539 152.71 86.093C155.668 95.4292 155.688 105.464 155.62 115.153Z" fill="#004748"/>
</svg>
