<svg width="280" height="290" viewBox="0 0 280 290" fill="none" xmlns="http://www.w3.org/2000/svg">
<path d="M192.136 164.729C190.825 158.293 189.018 151.966 187.76 145.521C187.497 144.181 187.269 142.831 187.054 141.482C187.019 141.276 186.993 141.114 186.971 140.982C186.962 140.847 186.944 140.667 186.927 140.435C186.852 139.62 186.76 138.805 186.694 137.986C186.418 134.581 186.339 131.168 186.387 127.755C186.589 114.681 188.72 101.739 189.422 88.6954C189.773 82.1672 189.751 75.6083 188.966 69.1107C188.098 61.9472 186.269 54.7881 180.906 49.5831C171.189 40.1456 155.07 38.4807 142.449 41.5959C130.912 44.4437 121.498 52.0278 113.719 60.7073C106.654 68.585 100.476 77.2688 92.4031 84.1957C88.0706 87.9111 83.3567 91.2804 79.6558 95.6705C75.2664 100.88 72.2538 106.878 70.9559 113.59C68.7064 125.262 69.4693 137.753 70.4779 149.535C71.5172 161.654 73.736 173.457 78.7086 184.612C83.8215 196.087 92.4118 204.998 102.646 212.087C112.53 218.931 124.102 225.744 136.157 227.527C137.332 227.702 138.49 227.821 139.634 227.9C148.369 232.675 158.516 234.678 168.15 230.739C179.459 226.116 186.659 216.009 190.628 204.784C195.162 191.999 194.811 177.856 192.136 164.729Z" fill="#DEF7F7"/>
<path d="M266.004 248.498C262.979 246.585 260.419 244.053 258.081 241.364C255.729 238.661 253.522 235.823 251.423 232.922C247.247 227.156 243.527 221.06 240.308 214.707C237.04 208.263 234.408 201.581 232.102 194.736C230.937 191.284 229.75 187.828 228.17 184.539C226.648 181.385 224.703 178.47 222.446 175.799C220.202 173.146 217.683 170.736 215.038 168.489C212.41 166.251 209.521 164.275 207.124 161.78C206.51 161.139 205.941 160.467 205.422 159.75C205.4 159.718 205.377 159.691 205.35 159.668C201.657 153.329 195.766 146.931 188.146 145.834C186.413 145.586 184.657 145.627 182.955 146.006C184.341 144.616 185.894 143.371 187.438 142.184C190.34 139.96 193.252 137.767 195.893 135.226C198.497 132.718 200.876 129.911 202.628 126.73C204.483 123.36 205.499 119.651 205.567 115.802C205.643 111.43 204.668 107.116 203.576 102.911C202.443 98.5611 201.233 94.2295 199.969 89.9159C197.441 81.2753 194.678 72.7023 191.685 64.2106C191.315 63.1683 190.945 62.126 190.57 61.0837C190.507 60.9122 190.376 60.8265 190.232 60.7949C187.356 51.3556 184.49 41.9164 181.605 32.4816C180.233 27.9966 178.951 23.4755 177.429 19.0401C176.274 15.6741 175.141 12.0373 172.572 9.52861C167.931 5.00749 159.946 1.37526 153.901 0.423214C152.813 0.251754 151.712 0.152489 150.61 0.175049C145.712 0.283339 140.796 0.558576 135.916 0.982713C131.073 1.40234 126.238 2.05659 121.498 3.17559C112.361 5.33236 103.685 9.05484 95.2746 13.1563C94.2814 13.6391 92.083 14.5145 91.9295 14.5686C80.3685 18.6205 71.0375 28.344 67.5209 40.089C66.4375 43.7032 65.8462 47.552 66.3563 51.315C66.8935 55.3128 68.3877 59.1931 69.5794 63.0329C71.9539 70.6854 74.3465 78.3334 76.8338 85.9498C81.8176 101.205 87.1895 116.348 93.5501 131.089C96.1142 137.031 98.7551 143.055 102.75 148.203C104.556 150.527 106.646 152.643 109.093 154.294C111.842 156.149 114.934 157.227 118.211 157.692C122.103 158.242 126.048 158.283 129.949 158.788C133.849 159.294 137.808 159.971 141.582 161.099C144.985 162.114 147.861 163.819 150.177 166.522C152.285 168.981 153.861 171.837 155.725 174.472C156.361 175.375 157.034 176.25 157.761 177.085C154.709 177.08 153.955 181.259 152.271 183.136C151.251 184.273 150.01 185.189 149.084 186.411C148.24 187.526 147.703 188.848 147.482 190.224C147.026 193.062 147.748 196.04 149.215 198.49C150.813 201.161 153.215 203.246 155.711 205.051C158.971 207.411 162.42 209.527 165.783 211.729C166.27 212.049 166.722 211.269 166.239 210.948C163.444 209.121 160.632 207.32 157.865 205.452C155.431 203.81 153.039 202.023 151.184 199.722C149.437 197.561 148.294 194.894 148.249 192.092C148.227 190.739 148.471 189.362 149.075 188.14C149.698 186.881 150.682 185.938 151.689 184.99C152.262 184.453 152.831 183.907 153.319 183.289C153.829 182.644 154.204 181.926 154.56 181.186C155.224 179.815 156.276 177.685 158.158 178.014C158.307 178.042 158.429 177.996 158.528 177.924C158.546 177.942 158.564 177.965 158.582 177.983C159.481 179.932 159.67 182.134 160 184.246C160.402 186.813 161.318 189.146 162.356 191.515C162.785 192.489 163.205 193.464 163.566 194.466C163.566 194.515 163.571 194.56 163.589 194.614C163.711 194.948 163.828 195.287 163.945 195.621C164.329 196.898 164.595 198.206 164.821 199.519C165.3 202.303 165.728 205.091 166.329 207.853C166.667 209.401 167.453 212.505 167.457 212.514C167.272 212.595 167.719 215.821 171.155 217.703C173.254 218.853 175.294 220.09 177.231 221.515C181.149 224.403 184.91 229.051 184.192 234.253C184.147 234.582 184.079 235.038 183.781 235.246C183.479 235.458 183.05 235.363 182.716 235.304C181.98 235.174 181.244 234.98 180.526 234.767C179.434 234.443 178.373 234.036 177.339 233.558C176.928 233.333 176.513 233.125 176.093 232.945C175.574 232.719 175.114 233.445 175.637 233.725C176.025 233.933 176.423 234.127 176.825 234.316C178.657 235.322 180.26 236.726 181.452 238.454C182.057 239.334 182.589 240.308 182.616 241.4C182.625 241.847 182.553 242.321 182.251 242.668C181.822 243.16 181.145 243.173 180.544 243.137C177.574 242.957 174.576 242.316 171.723 241.513C169.155 240.787 166.266 240.074 164.78 237.651C163.178 235.038 163.431 231.884 164.004 228.992C165.909 229.709 167.873 230.386 169.435 231.731C169.873 232.11 170.514 231.474 170.071 231.095C168.333 229.601 161.25 226.862 160.253 226.136C158.668 224.985 157.752 223.451 157.63 221.488C157.49 219.223 157.553 216.936 157.531 214.666C157.504 212.04 157.553 208.823 157.535 206.201C157.531 205.619 156.533 205.051 156.537 205.633C156.574 210.425 156.515 216.403 156.714 221.191C156.79 223.081 157.377 224.728 158.758 226.059C160 227.255 161.562 228.035 163.151 228.667C162.564 231.582 162.298 234.664 163.629 237.425C164.239 238.688 165.178 239.776 166.383 240.493C167.746 241.305 169.353 241.757 170.87 242.208C171.416 242.37 171.967 242.519 172.522 242.664C172.495 242.74 172.482 242.831 172.518 242.934C174.712 249.45 176.766 256.01 178.666 262.612C179.587 265.811 180.373 269.059 181.352 272.245C182.093 274.654 183.393 276.834 186.11 277.168C187.65 277.357 189.275 277.195 190.819 277.104C192.345 277.014 193.87 276.879 195.387 276.68C198.371 276.288 201.332 275.66 204.167 274.627C205.806 274.032 207.553 273.323 209.079 272.344C209.092 272.394 209.115 272.443 209.156 272.493C211.661 275.746 214.315 279.184 218.112 281.003C222.039 282.884 226.675 282.636 230.494 284.779C232.684 286.011 234.417 287.875 236.115 289.693C236.512 290.117 237.148 289.481 236.751 289.057C235.298 287.5 233.826 285.935 232.07 284.707C230.3 283.471 228.282 282.781 226.192 282.293C224.075 281.801 221.913 281.486 219.859 280.755C217.873 280.051 216.126 278.869 214.595 277.438C212.853 275.809 211.381 273.919 209.932 272.037C209.873 271.965 209.806 271.915 209.733 271.888C210.379 271.419 210.979 270.9 211.494 270.3C212.279 269.389 212.871 268.288 212.929 267.069C212.957 266.519 212.826 265.987 212.744 265.445C212.69 265.053 212.501 264.119 213.087 264.051C213.11 264.046 213.133 264.051 213.155 264.051C214.794 265.396 216.541 266.605 218.41 267.602C221.719 269.371 225.362 270.363 229.072 270.851C230.815 271.081 232.571 271.203 234.332 271.252C234.35 271.252 234.368 271.257 234.386 271.252C234.49 271.257 234.589 271.261 234.693 271.261C235.085 271.27 235.207 270.864 235.067 270.593C235.203 269.962 234.616 269.154 234.088 268.816C232.774 267.976 231.059 267.557 229.574 267.16C226.21 266.266 222.816 265.481 219.435 264.647C217.688 264.213 215.936 263.785 214.189 263.352C213.986 263.302 213.774 263.243 213.561 263.203C208.582 259.079 204.628 253.845 201.59 248.159C198.448 242.271 196.254 235.914 194.651 229.452C193.839 226.167 193.27 222.838 192.534 219.539C191.794 216.205 190.783 212.839 188.819 210.001C186.819 207.108 183.962 205.028 181.221 202.894C178.635 200.882 176.152 198.734 173.845 196.401C169.281 191.785 165.322 186.353 163.386 180.095C162.916 178.578 162.514 176.995 162.356 175.411C162.225 174.075 162.253 172.555 162.997 171.382C163.945 169.888 165.747 169.848 167.232 170.502C168.943 171.26 170.338 172.582 171.755 173.769C177.953 178.944 184.101 184.187 190.372 189.277C193.392 191.727 196.475 194.105 199.716 196.261C201.486 197.439 203.301 198.553 205.138 199.623C205.495 200.056 205.856 200.489 206.226 200.909C207.657 202.547 209.228 204.076 211.034 205.295C213.078 206.671 215.349 207.442 217.746 207.952C220.685 208.579 223.827 208.963 226.31 210.799C228.459 212.388 230.147 214.797 232.995 215.095C233.325 215.131 233.573 214.68 233.384 214.418C231.447 211.675 228.463 210.077 225.475 208.706C221.994 207.108 218.496 205.547 215.051 203.864C211.86 202.303 208.727 200.643 205.671 198.86C203.567 196.279 201.662 193.532 199.414 191.068C197.978 189.498 196.394 188.04 194.593 186.903C193.604 186.276 192.399 185.852 191.564 185.013C190.575 184.029 190.746 182.721 191.202 181.525C191.735 180.14 192.647 178.858 192.967 177.401C193.112 176.742 193.058 176.088 192.647 175.533C192.25 175.005 191.645 174.666 191.112 174.296C188.702 172.618 186.304 170.493 185.618 167.515C185.596 167.42 185.551 167.357 185.492 167.303C184.39 163.973 180.057 162.804 176.892 162.691C177.041 160.539 177.317 158.391 177.727 156.271C178.134 154.191 178.689 152.115 179.705 150.243C180.296 149.16 181.009 148.167 181.804 147.247C181.835 147.242 181.867 147.247 181.903 147.233C185.478 146.037 189.401 146.579 192.751 148.212C195.951 149.778 198.637 152.214 200.913 154.922C202.298 156.568 203.526 158.342 204.605 160.201C204.646 160.268 204.691 160.314 204.745 160.35C206.772 163.111 209.512 165.164 212.158 167.289C214.866 169.464 217.484 171.765 219.872 174.292C222.292 176.85 224.468 179.648 226.197 182.721C228.048 186.014 229.37 189.561 230.594 193.125C231.79 196.604 232.941 200.097 234.291 203.521C235.587 206.806 237.008 210.046 238.557 213.218C241.703 219.679 245.364 225.888 249.495 231.767C251.526 234.659 253.666 237.47 255.914 240.196C258.18 242.939 260.582 245.601 263.412 247.78C264.103 248.313 264.812 248.809 265.548 249.274C266.04 249.59 266.496 248.809 266.004 248.498ZM215.9 264.701C216.848 264.935 217.796 265.17 218.739 265.4C220.635 265.869 222.527 266.334 224.423 266.803C226.287 267.263 228.17 267.688 230.016 268.211C230.896 268.459 231.767 268.743 232.607 269.1C232.986 269.262 233.424 269.416 233.745 269.686C233.862 269.786 234.205 270.147 234.151 270.332C230.58 270.219 227.009 269.808 223.583 268.762C220.577 267.846 217.809 266.384 215.281 264.547C215.494 264.601 215.697 264.651 215.9 264.701ZM229.036 211.602C230.052 212.252 231.005 213.01 231.808 213.899C230.251 213.299 229.005 211.945 227.745 210.831C228.183 211.079 228.617 211.332 229.036 211.602ZM209.467 202.037C212.817 203.815 216.234 205.466 219.674 207.054C220.197 207.298 220.73 207.533 221.263 207.767C220.829 207.663 220.392 207.569 219.949 207.478C217.453 206.973 214.947 206.508 212.695 205.263C210.817 204.225 209.196 202.804 207.734 201.247C207.639 201.148 207.549 201.04 207.454 200.94C208.126 201.31 208.794 201.676 209.467 202.037ZM167.056 206.964C166.776 205.633 166.537 204.297 166.311 202.957C167.313 206.404 168.166 209.897 168.879 213.416C168.32 212.866 168.148 211.616 167.999 211.034C167.661 209.685 167.345 208.327 167.056 206.964ZM178.878 149.864C177.881 151.723 177.303 153.762 176.892 155.824C176.459 157.999 176.165 160.21 175.998 162.421C175.922 163.431 175.881 164.447 175.858 165.462L171.583 154.376C170.279 150.987 168.97 147.603 167.665 144.214C167.092 142.734 166.193 141.056 166.279 139.423C166.37 137.717 167.945 137.013 169.263 136.305C172.405 134.604 175.551 132.903 178.693 131.206C181.226 129.839 183.763 128.454 186.052 126.698C188.173 125.074 190.087 123.107 191.279 120.688C192.674 117.855 192.967 114.651 192.837 111.538C192.53 104.341 190.972 97.7579 187.772 91.3102C187.853 91.1838 187.505 90.4754 187.433 90.3085C182.756 79.7953 179.352 68.7858 176.071 57.7763C174.441 52.3167 172.838 46.8481 171.114 41.4155C169.633 36.7455 168.184 31.9943 165.972 27.6085C163.995 23.692 161.255 20.0012 157.355 17.8354C152.777 15.2905 147.369 15.268 142.29 15.6831C132.183 16.5043 122.017 18.2279 112.397 21.5082C107.68 23.119 103.08 25.1269 98.7596 27.6221C96.5702 28.8855 94.4575 30.2707 92.4351 31.7867C90.503 33.2351 88.616 34.7782 87.0451 36.6237C85.5825 38.3383 84.3636 40.3371 83.9077 42.5706C83.3479 45.3095 84.1424 47.9806 84.8466 50.6112C86.3995 56.4002 87.9389 62.1892 89.5053 67.9737C92.6428 79.5652 96.191 91.0124 100.182 102.338C102.168 107.969 104.226 113.577 106.362 119.154C107.413 121.902 108.483 124.645 109.571 127.384C110.591 129.947 111.548 132.564 112.727 135.059C113.742 137.216 115.11 139.224 117.205 140.451C119.205 141.624 121.561 142.003 123.85 142.103C126.409 142.216 128.987 142.035 131.542 141.931C134.138 141.827 136.733 141.701 139.329 141.53C148.805 140.907 158.406 139.675 167.345 136.345C166.686 136.765 166.094 137.266 165.738 137.974C165.06 139.323 165.458 140.894 165.945 142.234C167.173 145.618 168.536 148.957 169.832 152.314C171.845 157.539 173.863 162.759 175.877 167.984C175.886 168.395 175.899 168.801 175.917 169.211C175.971 170.339 176.053 171.476 176.188 172.6C176.274 173.313 176.477 174.044 176.928 174.621C177.344 175.158 177.917 175.411 178.585 175.262C178.662 175.244 178.72 175.212 178.766 175.176C179.091 175.357 179.592 175.131 179.429 174.703C178.535 172.379 177.637 170.06 176.743 167.736C176.73 166.057 176.793 164.483 176.838 163.589C179.808 163.684 184.138 164.753 184.792 168.169C184.815 168.277 184.864 168.35 184.932 168.404C185.654 170.66 187.298 172.478 189.135 173.94C189.627 174.333 190.137 174.712 190.656 175.073C191.248 175.488 192.132 175.903 192.146 176.733C192.155 177.351 191.839 178.001 191.586 178.556C191.288 179.219 190.945 179.864 190.647 180.528C190.164 181.606 189.735 182.784 189.988 183.979C190.245 185.193 191.184 186.001 192.214 186.592C193.198 187.16 194.186 187.675 195.107 188.343C196.028 189.015 196.886 189.773 197.694 190.576C199.852 192.724 201.657 195.169 203.513 197.57C200.547 195.756 197.653 193.816 194.877 191.695C191.649 189.231 188.544 186.619 185.424 184.016C182.174 181.299 178.919 178.583 175.669 175.867C174.057 174.522 172.446 173.173 170.834 171.828C169.552 170.764 168.126 169.681 166.473 169.297C165.002 168.954 163.449 169.338 162.487 170.542C161.63 171.616 161.386 173.056 161.395 174.396C161.404 175.939 161.742 177.491 162.126 178.98C162.532 180.546 163.07 182.075 163.711 183.564C165.024 186.614 166.794 189.448 168.83 192.074C170.884 194.727 173.209 197.159 175.687 199.42C178.274 201.78 181.095 203.828 183.785 206.053C185.189 207.212 186.548 208.462 187.65 209.919C188.72 211.336 189.546 212.929 190.178 214.589C191.437 217.91 192.001 221.439 192.706 224.904C194.064 231.577 195.969 238.165 198.746 244.392C201.481 250.519 205.124 256.295 209.878 261.064C210.677 261.863 211.508 262.634 212.365 263.379C211.972 263.654 211.824 264.123 211.792 264.583C211.76 265.089 211.86 265.608 211.945 266.104C212.072 266.821 212.045 267.503 211.774 268.184C211.277 269.443 210.212 270.44 209.119 271.203C206.591 272.967 203.495 274.041 200.529 274.794C197.482 275.57 194.349 275.972 191.211 276.175C189.659 276.274 188.042 276.428 186.49 276.301C184.977 276.179 183.849 275.448 183.099 274.135C182.454 273.007 182.133 271.73 181.799 270.485C181.339 268.771 180.869 267.06 180.386 265.355C178.265 257.811 175.949 250.321 173.452 242.894C174.247 243.083 175.046 243.255 175.845 243.404C177.443 243.701 179.1 243.999 180.725 244.053C181.917 244.094 183.036 243.602 183.402 242.393C183.722 241.319 183.397 240.101 182.919 239.126C182.273 237.818 181.325 236.631 180.215 235.616C180.698 235.76 181.185 235.895 181.673 236.008C182.291 236.153 182.991 236.36 183.627 236.252C184.941 236.031 185.108 234.614 185.153 233.518C185.203 232.245 185.009 230.959 184.643 229.741C183.023 224.399 178.4 220.902 173.773 218.217C172.039 217.211 170.003 216.137 168.843 214.445C169.037 214.531 169.254 214.594 169.498 214.594C169.809 214.598 169.99 214.305 169.931 214.021C168.631 207.339 166.803 200.769 164.464 194.375C164.455 194.357 164.442 194.344 164.433 194.326C164.099 193.356 163.724 192.394 163.304 191.433C162.271 189.069 161.318 186.754 160.907 184.196C160.487 181.588 160.293 178.867 158.853 176.571C158.731 176.372 158.528 176.331 158.357 176.381C154.651 172.058 152.452 166.454 147.766 163.012C144.945 160.941 141.473 160.034 138.106 159.298C134.291 158.464 130.423 157.868 126.536 157.512C122.667 157.155 118.69 157.196 114.934 156.081C112.022 155.215 109.377 153.627 107.124 151.61C102.565 147.526 99.5225 142.003 96.9629 136.526C90.354 122.389 85.0453 107.603 80.0751 92.8262C77.5697 85.3813 75.1816 77.8957 72.8342 70.3967C71.6515 66.6245 70.4823 62.8479 69.3131 59.0713C68.1168 55.2045 66.9025 51.4098 67.1237 47.3083C67.4577 40.7477 70.2024 34.2909 74.035 29.0298C77.6284 24.0891 82.4044 20.0012 87.8667 17.2578C89.2255 16.5765 108.041 8.82923 117.679 5.29176C126.761 1.96184 136.354 2.15586 146.742 1.23088C149.026 1.02783 152.253 1.36173 154.529 1.7994C163.44 3.50948 168.568 7.48463 169.927 8.71192C172.545 11.0717 174.644 14.2031 175.886 17.4473C177.429 21.4856 178.572 25.6909 179.84 29.824C182.729 39.2542 185.596 48.689 188.471 58.1238C188.828 59.2969 189.185 60.4701 189.546 61.6477C189.604 61.8462 189.758 61.941 189.92 61.959C192.936 70.3651 195.73 78.8523 198.285 87.4072C199.594 91.793 200.845 96.1923 202.028 100.614C203.215 105.027 204.443 109.503 204.641 114.092C204.822 118.193 204.009 122.182 202.1 125.819C200.366 129.126 197.938 132.014 195.256 134.595C192.534 137.216 189.514 139.454 186.526 141.764C183.578 144.034 180.662 146.538 178.878 149.864ZM187.27 92.8759C189.907 98.4663 191.324 103.764 191.83 109.927C192.092 113.131 192.074 116.488 190.828 119.511C189.762 122.096 187.821 124.194 185.636 125.891C183.402 127.623 180.905 128.986 178.427 130.326C177.754 130.692 177.082 131.053 176.409 131.418C175.831 131.707 175.348 131.883 175.136 132.009C166.32 137.203 156.957 138.85 146.877 139.973C141.78 140.542 136.661 140.821 131.538 141.029C129.046 141.128 126.54 141.3 124.048 141.205C121.724 141.119 119.317 140.749 117.327 139.468C115.214 138.105 114.009 135.826 113.043 133.579C111.937 131.003 110.925 128.381 109.892 125.773C107.756 120.373 105.693 114.944 103.703 109.494C99.694 98.525 95.9382 87.4614 92.7285 76.2308C91.1124 70.5816 89.6092 64.9009 88.0879 59.2292C87.3159 56.355 86.5485 53.4854 85.7766 50.6112C85.0814 48.0122 84.2011 45.3275 84.8105 42.6248C85.8669 37.9277 90.0967 34.5617 93.8074 31.886C97.7935 29.0118 102.118 26.6294 106.623 24.6847C115.796 20.7186 125.683 18.5392 135.564 17.2894C140.593 16.6532 145.879 15.8997 150.931 16.6622C153.382 17.0322 155.747 17.8218 157.833 19.1709C159.67 20.3621 161.237 21.9414 162.537 23.6966C165.2 27.2882 166.862 31.516 168.297 35.7213C170.085 40.9598 171.692 46.2615 173.276 51.5677C176.468 62.2433 179.542 72.9776 183.578 83.3734C184.476 85.6881 185.433 87.9848 186.435 90.2589C186.332 90.3897 186.986 91.9464 187.27 92.8759ZM176.838 170.497C177.339 171.792 177.84 173.087 178.337 174.387C177.425 174.594 177.01 172.762 176.838 170.497Z" fill="#004748"/>
<path d="M236.399 290C236.241 290 236.092 289.932 235.975 289.806C234.277 287.988 232.553 286.133 230.395 284.924C228.395 283.8 226.12 283.331 223.917 282.875C221.935 282.465 219.89 282.045 218.022 281.152C214.171 279.306 211.426 275.737 209.002 272.592C208.998 272.588 208.998 272.583 208.993 272.579C207.44 273.544 205.707 274.23 204.203 274.776C201.594 275.728 198.71 276.401 195.387 276.838C193.938 277.028 192.439 277.168 190.805 277.267C190.561 277.28 190.318 277.298 190.074 277.312C188.751 277.402 187.379 277.492 186.065 277.33C183.727 277.041 182.124 275.394 181.167 272.29C180.594 270.431 180.079 268.513 179.583 266.663C179.231 265.346 178.865 263.983 178.481 262.657C176.594 256.119 174.527 249.5 172.333 242.984C172.31 242.916 172.301 242.849 172.301 242.781C171.732 242.632 171.249 242.501 170.798 242.366L170.554 242.294C169.092 241.861 167.584 241.418 166.27 240.633C165.069 239.916 164.094 238.833 163.449 237.493C162.049 234.596 162.424 231.325 162.93 228.766C161.598 228.23 159.937 227.449 158.614 226.177C157.291 224.9 156.605 223.271 156.519 221.195C156.375 217.68 156.366 213.606 156.357 209.671C156.352 208.304 156.352 206.978 156.343 205.728C156.095 205.552 155.847 205.371 155.598 205.195C153.477 203.657 150.813 201.518 149.057 198.585C147.504 195.991 146.863 192.936 147.301 190.206C147.532 188.771 148.096 187.427 148.935 186.317C149.486 185.59 150.15 184.963 150.795 184.359C151.247 183.934 151.712 183.497 152.132 183.032C152.664 182.441 153.098 181.62 153.558 180.744C154.497 178.971 155.463 177.135 157.395 176.941C156.795 176.232 156.199 175.456 155.576 174.576C154.917 173.647 154.285 172.672 153.675 171.734C152.556 170.01 151.396 168.223 150.037 166.64C147.848 164.081 145.062 162.326 141.519 161.266C138.3 160.305 134.612 159.574 129.912 158.964C128.062 158.725 126.166 158.585 124.333 158.455C122.31 158.306 120.22 158.157 118.175 157.868C114.722 157.376 111.63 156.226 108.989 154.443C106.723 152.914 104.578 150.852 102.606 148.316C98.5067 143.037 95.7847 136.729 93.3831 131.166C87.8305 118.302 82.5173 103.953 76.6578 86.0086C74.1298 78.2658 71.6786 70.4193 69.4034 63.0872C69.137 62.2253 68.8526 61.359 68.5682 60.4882C67.5977 57.5192 66.5955 54.4555 66.1757 51.3422C65.7333 47.9581 66.126 44.159 67.3584 40.0394C70.875 28.2945 80.2692 18.4762 91.8753 14.4108C91.9972 14.3656 94.2001 13.4948 95.2023 13.003C102.226 9.57832 111.562 5.34598 121.462 3.00872C125.719 2.00253 130.441 1.28511 135.903 0.811336C140.864 0.382688 145.816 0.107451 150.61 0.00367256C151.635 -0.0188879 152.723 0.0623297 153.928 0.251837C160.406 1.27157 168.297 5.12489 172.68 9.41137C175.127 11.8028 176.269 15.1507 177.375 18.3904L177.578 18.9905C178.689 22.2167 179.682 25.5466 180.648 28.7637C181.014 29.991 181.384 31.2138 181.759 32.4366C183.867 39.3265 185.961 46.2165 188.06 53.1109L190.358 60.6596C190.53 60.7228 190.656 60.8537 190.719 61.0296C191.094 62.0719 191.469 63.1142 191.834 64.1565C194.818 72.6122 197.604 81.2618 200.123 89.8709C201.495 94.568 202.673 98.8184 203.729 102.87C204.741 106.751 205.81 111.267 205.729 115.806C205.662 119.669 204.664 123.369 202.768 126.811C201.174 129.704 198.962 132.492 196.001 135.348C193.541 137.717 190.801 139.82 188.146 141.85L187.532 142.319C186.187 143.348 184.774 144.472 183.469 145.726C184.982 145.455 186.557 145.437 188.16 145.667C196.899 146.926 202.754 154.904 205.476 159.565C205.504 159.592 205.531 159.623 205.553 159.655C206.045 160.341 206.596 160.999 207.237 161.667C208.812 163.31 210.636 164.754 212.401 166.148C213.309 166.865 214.243 167.605 215.137 168.368C218.089 170.881 220.518 173.277 222.563 175.695C224.906 178.47 226.842 181.421 228.314 184.471C229.84 187.639 230.955 190.838 232.255 194.687C234.819 202.285 237.501 208.81 240.453 214.635C243.662 220.965 247.396 227.083 251.553 232.827C253.842 235.986 256.018 238.743 258.203 241.256C260.993 244.46 263.498 246.716 266.089 248.358C266.432 248.575 266.437 248.967 266.274 249.229C266.116 249.481 265.782 249.63 265.453 249.423C264.717 248.958 263.995 248.453 263.304 247.92C260.293 245.601 257.81 242.772 255.779 240.308C253.54 237.597 251.377 234.759 249.35 231.871C245.229 226.001 241.545 219.751 238.399 213.295C236.86 210.141 235.424 206.869 234.128 203.585C233.018 200.764 232.025 197.854 231.063 195.039C230.851 194.42 230.639 193.798 230.427 193.18C229.063 189.204 227.795 185.92 226.043 182.806C224.423 179.928 222.364 177.184 219.746 174.409C217.615 172.153 215.096 169.87 212.049 167.42L211.237 166.77C208.885 164.893 206.452 162.953 204.619 160.467C204.551 160.417 204.497 160.354 204.452 160.278C203.355 158.382 202.118 156.618 200.773 155.021C198.172 151.93 195.518 149.746 192.665 148.352C189.094 146.606 185.289 146.263 181.944 147.377C181.917 147.386 181.894 147.391 181.876 147.391C181.05 148.357 180.382 149.313 179.84 150.306C178.739 152.332 178.215 154.565 177.881 156.284C177.493 158.288 177.217 160.381 177.059 162.506C180.526 162.669 184.539 163.977 185.627 167.19C185.7 167.267 185.745 167.352 185.767 167.456C186.471 170.524 189.036 172.636 191.193 174.134C191.297 174.206 191.406 174.279 191.514 174.351C191.965 174.648 192.43 174.96 192.764 175.407C193.166 175.948 193.283 176.62 193.112 177.41C192.913 178.326 192.484 179.17 192.069 179.991C191.812 180.501 191.545 181.029 191.342 181.561C190.787 183.014 190.891 184.097 191.663 184.868C192.196 185.401 192.9 185.771 193.586 186.127C193.947 186.317 194.322 186.515 194.665 186.732C196.299 187.765 197.888 189.141 199.522 190.928C200.949 192.494 202.262 194.199 203.526 195.846C204.253 196.789 205.002 197.764 205.765 198.702C208.686 200.404 211.833 202.082 215.11 203.684C217.751 204.974 220.468 206.215 223.1 207.415C223.908 207.785 224.721 208.155 225.529 208.525C228.323 209.807 231.469 211.418 233.505 214.292C233.632 214.472 233.632 214.72 233.51 214.932C233.388 215.14 233.176 215.257 232.959 215.235C230.856 215.014 229.357 213.665 227.912 212.365C227.357 211.864 226.784 211.35 226.192 210.912C224.111 209.374 221.529 208.859 219.033 208.367C218.586 208.277 218.139 208.191 217.697 208.097C214.916 207.506 212.762 206.653 210.925 205.412C209.296 204.315 207.761 202.912 206.086 200.995C205.747 200.607 205.395 200.191 205.016 199.727C203.039 198.576 201.269 197.484 199.612 196.379C196.796 194.506 193.825 192.282 190.254 189.385C185.848 185.807 181.429 182.093 177.154 178.502C175.317 176.959 173.479 175.411 171.638 173.877C171.407 173.687 171.182 173.489 170.951 173.295C169.778 172.293 168.568 171.26 167.155 170.637C165.891 170.078 164.081 169.96 163.133 171.454C162.546 172.374 162.347 173.656 162.519 175.375C162.654 176.738 162.979 178.213 163.539 180.027C165.245 185.541 168.753 191.005 173.958 196.266C176.116 198.445 178.522 200.566 181.321 202.741L182.047 203.305C184.539 205.236 187.112 207.23 188.954 209.888C191.044 212.906 192.019 216.43 192.697 219.485C192.995 220.816 193.265 222.174 193.532 223.487C193.924 225.432 194.331 227.44 194.814 229.394C196.592 236.559 198.854 242.668 201.734 248.065C204.971 254.129 208.975 259.16 213.629 263.031C213.778 263.063 213.923 263.099 214.072 263.135L219.471 264.466C220.531 264.728 221.597 264.985 222.658 265.242C224.942 265.797 227.303 266.366 229.61 266.979L229.88 267.052C231.302 267.426 232.919 267.85 234.174 268.658C234.702 268.996 235.352 269.831 235.239 270.557C235.32 270.751 235.302 270.982 235.194 271.158C235.085 271.329 234.896 271.41 234.684 271.419L234.327 271.406C232.39 271.347 230.661 271.216 229.045 271.004C224.983 270.467 221.376 269.366 218.324 267.733C216.582 266.803 214.825 265.612 213.092 264.204C213.02 264.213 212.97 264.24 212.934 264.295C212.771 264.511 212.853 265.035 212.893 265.319L212.907 265.409C212.925 265.549 212.952 265.684 212.975 265.824C213.042 266.226 213.115 266.636 213.092 267.065C213.038 268.207 212.541 269.326 211.616 270.4C211.173 270.914 210.645 271.401 210.018 271.875C210.031 271.893 210.049 271.907 210.063 271.925C211.331 273.572 212.907 275.62 214.708 277.307C216.347 278.842 218.098 279.947 219.913 280.588C221.349 281.098 222.865 281.409 224.332 281.711C224.964 281.842 225.596 281.973 226.228 282.117C228.725 282.695 230.612 283.471 232.165 284.554C233.975 285.817 235.514 287.469 236.873 288.926C237.027 289.093 237.081 289.31 237.018 289.522C236.95 289.747 236.76 289.923 236.539 289.977C236.48 289.995 236.44 290 236.399 290ZM209.165 272.069L209.223 272.29C209.232 272.322 209.246 272.353 209.268 272.38C211.783 275.652 214.388 279.031 218.166 280.84C219.994 281.716 222.021 282.135 223.98 282.537C226.21 282.997 228.513 283.471 230.558 284.622C232.761 285.858 234.503 287.73 236.191 289.54C236.286 289.644 236.363 289.666 236.444 289.648C236.548 289.625 236.643 289.531 236.674 289.422C236.692 289.355 236.697 289.255 236.607 289.161C235.261 287.717 233.736 286.079 231.953 284.834C230.436 283.773 228.585 283.015 226.134 282.447C225.506 282.302 224.879 282.172 224.247 282.041C222.766 281.734 221.236 281.418 219.782 280.904C217.927 280.245 216.135 279.117 214.46 277.551C212.636 275.846 211.052 273.784 209.779 272.128C209.742 272.082 209.702 272.051 209.652 272.028L209.372 271.911L209.616 271.735C210.311 271.23 210.875 270.72 211.345 270.174C212.221 269.159 212.686 268.107 212.74 267.043C212.758 266.65 212.695 266.275 212.627 265.874C212.604 265.734 212.577 265.594 212.559 265.454L212.546 265.364C212.492 265.008 212.401 264.412 212.65 264.087C212.744 263.961 212.884 263.884 213.047 263.866L213.169 263.861L213.245 263.898C214.974 265.314 216.73 266.501 218.468 267.431C221.484 269.041 225.05 270.129 229.072 270.661C230.68 270.873 232.395 271.004 234.313 271.063H234.323L234.675 271.076C234.769 271.072 234.846 271.045 234.887 270.973C234.941 270.882 234.945 270.751 234.891 270.652L234.864 270.598L234.878 270.539C234.986 270.025 234.49 269.271 233.97 268.938C232.761 268.161 231.172 267.746 229.772 267.376L229.501 267.304C227.195 266.695 224.838 266.122 222.554 265.572C221.488 265.314 220.428 265.057 219.362 264.795L213.963 263.46C213.81 263.424 213.656 263.383 213.498 263.352L213.422 263.316C208.718 259.417 204.673 254.336 201.409 248.223C198.515 242.799 196.24 236.667 194.457 229.475C193.97 227.512 193.563 225.5 193.171 223.551C192.904 222.237 192.633 220.884 192.335 219.557C191.663 216.539 190.701 213.051 188.643 210.082C186.833 207.469 184.278 205.489 181.808 203.576L181.081 203.011C178.274 200.823 175.858 198.698 173.687 196.505C168.442 191.203 164.907 185.694 163.187 180.131C162.618 178.294 162.289 176.796 162.153 175.411C161.973 173.588 162.185 172.275 162.821 171.273C163.887 169.599 165.882 169.717 167.268 170.33C168.726 170.976 169.954 172.027 171.146 173.042C171.376 173.236 171.602 173.43 171.827 173.62C173.669 175.158 175.506 176.702 177.348 178.249C181.619 181.841 186.038 185.554 190.444 189.128C194.006 192.02 196.972 194.235 199.775 196.103C201.436 197.209 203.206 198.305 205.188 199.456L205.233 199.497C205.616 199.966 205.973 200.385 206.316 200.778C207.973 202.673 209.49 204.054 211.092 205.137C212.893 206.35 215.006 207.19 217.746 207.772C218.189 207.866 218.631 207.952 219.078 208.042C221.61 208.543 224.233 209.067 226.373 210.65C226.982 211.102 227.56 211.621 228.12 212.126C229.592 213.452 230.982 214.702 232.977 214.91C233.077 214.923 233.158 214.847 233.198 214.774C233.244 214.702 233.271 214.585 233.212 214.499C231.226 211.688 228.124 210.104 225.371 208.841C224.563 208.471 223.75 208.101 222.942 207.731C220.31 206.531 217.588 205.29 214.947 203.995C211.652 202.384 208.492 200.697 205.553 198.987L205.508 198.946C204.736 197.999 203.978 197.01 203.246 196.058C201.982 194.416 200.678 192.715 199.26 191.163C197.649 189.399 196.082 188.045 194.475 187.025C194.141 186.813 193.776 186.619 193.419 186.434C192.715 186.064 191.983 185.681 191.415 185.112C190.534 184.237 190.403 183.036 191.017 181.444C191.225 180.898 191.496 180.361 191.758 179.842C192.164 179.039 192.584 178.213 192.773 177.342C192.922 176.652 192.828 176.074 192.484 175.614C192.186 175.213 191.744 174.919 191.315 174.635C191.207 174.563 191.094 174.491 190.99 174.414C188.787 172.88 186.164 170.714 185.429 167.533C185.415 167.483 185.393 167.447 185.352 167.407L185.307 167.334C184.273 164.208 180.264 162.962 176.861 162.84L176.685 162.836L176.698 162.66C176.852 160.458 177.136 158.292 177.538 156.221C177.876 154.475 178.409 152.21 179.533 150.143C180.097 149.11 180.788 148.117 181.655 147.116L181.7 147.066L181.831 147.053C185.262 145.907 189.157 146.258 192.809 148.041C195.708 149.458 198.394 151.664 201.03 154.795C202.384 156.406 203.635 158.188 204.741 160.097C204.763 160.138 204.79 160.169 204.826 160.192L204.867 160.232C206.673 162.696 209.097 164.627 211.44 166.491L212.252 167.14C215.313 169.595 217.841 171.892 219.985 174.157C222.622 176.95 224.698 179.716 226.332 182.617C228.097 185.753 229.37 189.056 230.743 193.049C230.955 193.667 231.167 194.29 231.379 194.908C232.336 197.719 233.329 200.625 234.435 203.436C235.731 206.716 237.162 209.974 238.697 213.123C241.834 219.562 245.509 225.793 249.621 231.65C251.644 234.528 253.802 237.362 256.032 240.065C258.054 242.51 260.519 245.326 263.503 247.622C264.184 248.15 264.902 248.651 265.629 249.107C265.832 249.233 265.958 249.057 265.981 249.021C266.04 248.926 266.094 248.737 265.904 248.615C263.281 246.959 260.753 244.681 257.941 241.45C255.747 238.932 253.567 236.166 251.274 232.999C247.107 227.241 243.36 221.105 240.146 214.761C237.185 208.927 234.499 202.384 231.925 194.768C230.63 190.928 229.519 187.743 227.998 184.593C226.54 181.57 224.621 178.642 222.297 175.889C220.261 173.484 217.845 171.097 214.911 168.598C214.022 167.844 213.087 167.104 212.185 166.387C210.411 164.984 208.578 163.535 206.984 161.875C206.343 161.202 205.765 160.517 205.269 159.826C205.255 159.808 205.237 159.79 205.219 159.772L205.188 159.732C202.506 155.129 196.714 147.22 188.106 145.979C186.345 145.726 184.621 145.78 182.977 146.146L182.413 146.272L182.824 145.861C184.255 144.431 185.83 143.172 187.325 142.026L187.939 141.557C190.584 139.531 193.32 137.437 195.762 135.082C198.696 132.253 200.89 129.487 202.465 126.626C204.334 123.233 205.314 119.583 205.382 115.779C205.463 111.285 204.398 106.791 203.395 102.933C202.344 98.886 201.161 94.6357 199.793 89.9431C197.279 81.3431 194.493 72.6979 191.509 64.2468C191.139 63.2045 190.769 62.1622 190.394 61.1199C190.358 61.0206 190.286 60.962 190.182 60.9394L190.083 60.9168L187.731 53.1831C185.632 46.2887 183.537 39.3987 181.429 32.5087C181.054 31.286 180.689 30.0587 180.319 28.8314C179.357 25.6188 178.359 22.2934 177.253 19.0718L177.055 18.5032C175.962 15.2996 174.834 11.9878 172.446 9.65503C168.103 5.41366 160.293 1.60095 153.879 0.590244C152.691 0.405248 151.621 0.319519 150.619 0.346591C145.83 0.454881 140.891 0.725606 135.934 1.15425C130.49 1.62802 125.782 2.34093 121.543 3.34262C111.67 5.66634 102.357 9.88965 95.3468 13.3053C94.3672 13.7836 92.1642 14.6634 91.9837 14.7266C80.4813 18.7604 71.1684 28.493 67.6834 40.1342C66.4646 44.2041 66.0764 47.9581 66.5233 51.2881C66.9386 54.3698 67.9362 57.42 68.9023 60.3754C69.1867 61.2462 69.4711 62.1125 69.7374 62.9789C72.0126 70.3065 74.4638 78.153 76.9873 85.8958C82.8423 103.827 88.1556 118.166 93.6991 131.021C96.0916 136.566 98.8047 142.852 102.877 148.099C104.827 150.608 106.948 152.648 109.183 154.155C111.783 155.91 114.826 157.042 118.23 157.525C120.261 157.814 122.347 157.963 124.364 158.112C126.202 158.243 128.102 158.382 129.967 158.626C134.684 159.24 138.386 159.975 141.627 160.941C145.229 162.019 148.069 163.81 150.303 166.418C151.676 168.02 152.84 169.816 153.969 171.549C154.578 172.487 155.21 173.457 155.86 174.382C156.551 175.361 157.215 176.214 157.883 176.981L158.126 177.261H157.752H157.747C155.788 177.261 154.808 179.111 153.865 180.902C153.396 181.791 152.949 182.635 152.393 183.258C151.965 183.731 151.495 184.178 151.039 184.607C150.407 185.202 149.748 185.82 149.215 186.524C148.412 187.589 147.866 188.88 147.644 190.26C147.22 192.913 147.843 195.887 149.355 198.414C151.08 201.292 153.707 203.404 155.806 204.925C156.014 205.074 156.217 205.222 156.425 205.371C156.488 205.281 156.592 205.227 156.723 205.227H156.727C157.129 205.227 157.684 205.719 157.689 206.206C157.689 206.22 157.689 206.233 157.689 206.251C159.463 207.465 161.277 208.634 163.052 209.775C163.995 210.38 164.938 210.989 165.873 211.598C165.954 211.652 166.031 211.657 166.103 211.625C166.198 211.58 166.266 211.467 166.27 211.35C166.275 211.278 166.257 211.178 166.139 211.102C165.304 210.556 164.464 210.01 163.625 209.464C161.697 208.209 159.702 206.914 157.761 205.606C155.404 204.018 152.958 202.217 151.039 199.844C149.166 197.52 148.109 194.777 148.069 192.11C148.046 190.635 148.335 189.241 148.913 188.081C149.567 186.759 150.628 185.762 151.563 184.886C152.145 184.34 152.705 183.804 153.179 183.203C153.698 182.545 154.082 181.787 154.402 181.132C155.057 179.779 156.154 177.509 158.181 177.866C158.266 177.879 158.348 177.861 158.415 177.807L158.537 177.712L158.731 177.929C159.485 179.562 159.747 181.376 160 183.131C160.054 183.501 160.108 183.871 160.162 184.237C160.546 186.673 161.377 188.889 162.505 191.465C162.939 192.458 163.358 193.428 163.72 194.425L163.729 194.479C163.729 194.52 163.729 194.547 163.742 194.574C163.819 194.781 163.891 194.989 163.963 195.197L164.099 195.585C164.433 196.708 164.704 197.913 164.979 199.51C165.092 200.151 165.196 200.792 165.304 201.437C165.656 203.539 166.022 205.714 166.487 207.839C166.821 209.378 167.606 212.464 167.611 212.491L167.647 212.631L167.579 212.663C167.53 213.173 168.22 215.93 171.222 217.577C173.628 218.894 175.565 220.112 177.317 221.403C182.323 225.089 184.95 229.908 184.345 234.298C184.3 234.619 184.228 235.151 183.862 235.408C183.524 235.647 183.086 235.566 182.734 235.503L182.666 235.489C181.849 235.345 181.059 235.124 180.458 234.948C179.393 234.632 178.314 234.222 177.249 233.73C176.815 233.491 176.405 233.288 176.007 233.116C175.822 233.035 175.651 233.139 175.583 233.279C175.547 233.355 175.515 233.495 175.696 233.59C176.048 233.779 176.423 233.964 176.874 234.176C178.779 235.223 180.4 236.672 181.569 238.373C182.111 239.162 182.738 240.218 182.765 241.414C182.779 242.014 182.648 242.47 182.359 242.799C181.889 243.336 181.163 243.368 180.513 243.327C177.872 243.165 174.974 242.632 171.656 241.694L171.308 241.594C168.852 240.904 166.067 240.123 164.613 237.759C162.912 234.984 163.291 231.609 163.814 228.979L163.855 228.785L164.446 229.006C166.216 229.669 168.049 230.355 169.525 231.627C169.633 231.722 169.742 231.708 169.809 231.686C169.918 231.65 170.008 231.55 170.026 231.451C170.04 231.374 170.012 231.307 169.94 231.244C168.888 230.337 165.819 228.96 163.354 227.851C161.774 227.142 160.528 226.583 160.131 226.294C158.465 225.085 157.562 223.478 157.44 221.52C157.341 219.932 157.341 218.307 157.345 216.737C157.345 216.056 157.346 215.37 157.341 214.689C157.327 213.295 157.332 211.715 157.341 210.186C157.346 208.895 157.355 207.614 157.345 206.441C157.124 206.287 156.908 206.138 156.686 205.985C156.695 207.163 156.695 208.412 156.7 209.689C156.709 213.624 156.718 217.694 156.862 221.204C156.944 223.19 157.594 224.746 158.853 225.955C160.18 227.232 161.869 227.999 163.191 228.527L163.322 228.581L163.295 228.721C162.785 231.244 162.379 234.51 163.76 237.371C164.379 238.652 165.309 239.686 166.451 240.367C167.724 241.125 169.213 241.567 170.654 241.991L170.897 242.064C171.385 242.208 171.908 242.352 172.54 242.515L172.721 242.56L172.658 242.736C172.635 242.795 172.635 242.84 172.653 242.894C174.847 249.414 176.919 256.038 178.806 262.58C179.19 263.911 179.556 265.274 179.912 266.596C180.409 268.446 180.923 270.354 181.492 272.209C182.418 275.214 183.885 276.739 186.106 277.014C187.388 277.172 188.742 277.082 190.051 276.996C190.295 276.978 190.543 276.965 190.783 276.951C192.403 276.856 193.897 276.716 195.337 276.527C198.633 276.094 201.495 275.426 204.082 274.483C205.616 273.923 207.395 273.22 208.961 272.218L209.165 272.069ZM213.074 264.042L213.083 264.114L213.101 264.096L213.074 264.042ZM164.117 229.222C163.625 231.763 163.309 234.957 164.911 237.561C166.297 239.817 168.897 240.543 171.412 241.247L171.76 241.346C175.055 242.276 177.926 242.808 180.549 242.966C181.145 243.002 181.75 242.98 182.12 242.555C182.35 242.294 182.454 241.915 182.445 241.4C182.422 240.299 181.858 239.338 181.312 238.544C180.174 236.888 178.594 235.476 176.743 234.456C176.296 234.244 175.917 234.059 175.561 233.87C175.267 233.712 175.159 233.4 175.303 233.112C175.439 232.832 175.786 232.62 176.165 232.787C176.572 232.963 176.996 233.17 177.425 233.409C178.463 233.888 179.524 234.294 180.576 234.605C181.163 234.781 181.944 234.998 182.743 235.138L182.81 235.151C183.113 235.205 183.46 235.268 183.682 235.11C183.925 234.939 183.984 234.51 184.025 234.231C184.612 229.967 182.034 225.265 177.131 221.651C175.393 220.369 173.466 219.165 171.078 217.852C167.796 216.051 167.236 213.123 167.259 212.622C167.259 212.595 167.263 212.541 167.281 212.491C167.159 212.013 166.482 209.324 166.171 207.894C165.706 205.764 165.34 203.585 164.988 201.477C164.88 200.837 164.771 200.196 164.663 199.555C164.392 197.976 164.121 196.78 163.792 195.679L163.656 195.3C163.584 195.093 163.512 194.885 163.435 194.682C163.413 194.614 163.404 194.556 163.404 194.506C163.047 193.527 162.636 192.571 162.207 191.591C161.065 188.992 160.226 186.754 159.837 184.282C159.779 183.912 159.725 183.542 159.675 183.172C159.431 181.475 159.178 179.725 158.479 178.159C158.37 178.2 158.257 178.213 158.135 178.19C156.357 177.884 155.332 180.004 154.718 181.272C154.393 181.945 154 182.721 153.459 183.406C152.971 184.025 152.402 184.575 151.811 185.13C150.895 185.987 149.861 186.962 149.233 188.23C148.683 189.344 148.403 190.68 148.425 192.101C148.466 194.691 149.495 197.367 151.323 199.632C153.215 201.974 155.635 203.751 157.968 205.326C159.905 206.635 161.9 207.93 163.828 209.18C164.668 209.725 165.507 210.271 166.342 210.817C166.537 210.944 166.636 211.142 166.627 211.368C166.613 211.602 166.473 211.824 166.27 211.923C166.09 212.013 165.882 212 165.701 211.878C164.767 211.264 163.823 210.659 162.88 210.055C161.169 208.954 159.418 207.83 157.702 206.657C157.707 207.767 157.702 208.967 157.693 210.172C157.684 211.697 157.68 213.276 157.693 214.666C157.702 215.348 157.698 216.033 157.698 216.715C157.698 218.28 157.693 219.9 157.792 221.475C157.91 223.329 158.767 224.85 160.347 225.996C160.718 226.262 162.013 226.844 163.512 227.521C165.995 228.636 169.092 230.03 170.18 230.964C170.342 231.104 170.414 231.293 170.378 231.487C170.338 231.708 170.166 231.898 169.94 231.979C169.724 232.056 169.498 232.011 169.322 231.857C167.891 230.625 166.09 229.953 164.343 229.299L164.117 229.222ZM156.709 205.556C156.899 205.687 157.088 205.823 157.278 205.953C157.197 205.813 157.061 205.692 156.93 205.619C156.808 205.552 156.727 205.552 156.709 205.556ZM187.74 276.513C187.311 276.513 186.887 276.5 186.462 276.464C184.905 276.337 183.722 275.579 182.937 274.212C182.318 273.134 181.993 271.92 181.682 270.747L181.623 270.521C181.163 268.807 180.689 267.079 180.21 265.391C178.111 257.933 175.782 250.379 173.276 242.939L173.177 242.65L173.475 242.722C174.278 242.912 175.082 243.083 175.858 243.228C177.596 243.548 179.163 243.823 180.716 243.873C181.98 243.918 182.923 243.34 183.226 242.33C183.578 241.148 183.081 239.853 182.752 239.185C182.142 237.949 181.244 236.78 180.084 235.724L179.538 235.223L180.246 235.435C180.784 235.598 181.257 235.724 181.695 235.828L181.935 235.887C182.49 236.022 183.063 236.157 183.587 236.072C184.729 235.878 184.928 234.664 184.968 233.495C185.013 232.281 184.846 231.027 184.463 229.773C182.779 224.218 177.809 220.749 173.669 218.348L173.227 218.095C171.606 217.166 169.769 216.11 168.685 214.531L168.347 214.035L168.897 214.278C169.096 214.368 169.29 214.414 169.484 214.414C169.593 214.418 169.651 214.364 169.683 214.323C169.746 214.251 169.769 214.147 169.751 214.044C168.455 207.393 166.622 200.792 164.293 194.425C164.288 194.425 164.279 194.411 164.27 194.393C163.936 193.428 163.557 192.458 163.137 191.492C162.104 189.132 161.142 186.8 160.727 184.214C160.659 183.799 160.6 183.384 160.537 182.969C160.217 180.798 159.892 178.556 158.695 176.652C158.6 176.503 158.461 176.517 158.384 176.535L158.28 176.562L158.208 176.48C156.808 174.847 155.608 173.011 154.447 171.237C152.529 168.305 150.547 165.272 147.644 163.138C144.805 161.054 141.347 160.174 138.047 159.456C134.269 158.631 130.386 158.03 126.5 157.67C125.502 157.575 124.477 157.512 123.484 157.444C120.627 157.259 117.67 157.065 114.866 156.23C112.045 155.391 109.395 153.875 106.989 151.723C102.249 147.477 99.1749 141.688 96.7868 136.585C89.9071 121.866 84.3862 106.223 79.89 92.8669C77.7006 86.3515 75.466 79.4344 72.6491 70.4328C71.4664 66.6607 70.2972 62.8841 69.128 59.1075L69.0467 58.8413C67.8505 54.9744 66.7174 51.3196 66.9341 47.2858C67.2636 41.1629 69.7329 34.643 73.895 28.9216C77.5335 23.9268 82.3367 19.8388 87.7899 17.1C89.1081 16.4412 107.923 8.68493 117.62 5.1294C124.626 2.55751 131.93 2.08374 139.659 1.57839C141.956 1.42949 144.331 1.27157 146.723 1.0595C149.175 0.842921 152.475 1.23096 154.56 1.62802C163.954 3.43286 169.101 7.73288 170.04 8.58115C172.635 10.9229 174.766 14.0498 176.044 17.3797C177.213 20.4344 178.165 23.6335 179.086 26.7243C179.389 27.7395 179.691 28.7547 180.003 29.7654C182.142 36.7456 184.268 43.7303 186.395 50.7105L189.708 61.5891C189.753 61.729 189.857 61.7696 189.938 61.7787L190.042 61.7922L190.078 61.8915C193.107 70.3381 195.924 78.9065 198.448 87.3486C199.752 91.7163 201.012 96.1608 202.195 100.56L202.285 100.889C203.431 105.162 204.619 109.58 204.817 114.069C205.002 118.315 204.14 122.29 202.258 125.882C200.691 128.869 198.443 131.757 195.383 134.703C193.026 136.973 190.408 138.985 187.875 140.934C187.465 141.25 187.054 141.566 186.643 141.886C183.934 143.984 180.887 146.507 179.046 149.936C178.188 151.538 177.56 153.415 177.077 155.847C176.653 157.967 176.355 160.178 176.188 162.425C176.116 163.395 176.071 164.388 176.048 165.457L176.03 166.319L167.521 144.269C167.403 143.971 167.277 143.664 167.146 143.348C166.636 142.13 166.053 140.745 166.126 139.409C166.211 137.74 167.638 136.982 168.893 136.309L169.195 136.147L178.626 131.048C180.973 129.78 183.632 128.341 185.961 126.554C188.39 124.695 190.083 122.746 191.139 120.603C192.331 118.189 192.837 115.22 192.679 111.533C192.367 104.183 190.715 97.5911 187.632 91.3734L187.586 91.2877L187.641 91.2065C187.632 91.1884 187.582 91.0034 187.329 90.4484L187.293 90.3672C182.643 79.9127 179.262 69.0025 175.922 57.8125L175.046 54.8752C173.737 50.4669 172.378 45.9142 170.965 41.4562L170.681 40.5628C169.313 36.2402 167.895 31.7688 165.828 27.6718C163.521 23.1056 160.645 19.8388 157.278 17.9708C152.646 15.3944 147.112 15.4485 142.309 15.8366C130.996 16.7571 121.231 18.6612 112.46 21.6527C107.517 23.3402 102.94 25.3932 98.8543 27.753C96.6424 29.0299 94.5207 30.4242 92.5479 31.9041C90.8235 33.1946 88.8372 34.7783 87.185 36.7185C85.5238 38.6677 84.481 40.644 84.0837 42.5887C83.5646 45.1381 84.2462 47.6694 84.9053 50.1194L86.3634 55.57C87.4649 59.685 88.5664 63.8046 89.6814 67.9151C92.8368 79.5743 96.4302 91.1298 100.353 102.266C102.326 107.861 104.402 113.519 106.529 119.078C107.576 121.816 108.655 124.582 109.738 127.303C109.973 127.899 110.208 128.494 110.442 129.094C111.205 131.044 111.991 133.056 112.894 134.974C114.108 137.55 115.512 139.242 117.304 140.293C118.992 141.282 121.078 141.796 123.868 141.922C125.904 142.013 127.985 141.913 129.998 141.823C130.517 141.801 131.032 141.773 131.547 141.755C134.58 141.634 137.054 141.503 139.329 141.354C147.283 140.83 157.652 139.77 167.295 136.183L168.794 135.623L167.444 136.481C166.681 136.968 166.189 137.464 165.9 138.042C165.241 139.359 165.665 140.939 166.112 142.166C166.938 144.445 167.841 146.741 168.712 148.961C169.141 150.053 169.57 151.15 169.994 152.246L176.053 167.975V168.052C176.062 168.435 176.071 168.814 176.093 169.198C176.156 170.515 176.242 171.585 176.364 172.573C176.463 173.394 176.694 174.03 177.068 174.513C177.344 174.87 177.827 175.258 178.553 175.091C178.599 175.082 178.635 175.064 178.666 175.037L178.757 174.964L178.856 175.019C178.973 175.082 179.14 175.068 179.235 174.987C179.303 174.928 179.316 174.852 179.276 174.752L176.576 167.727C176.563 165.99 176.63 164.379 176.671 163.571L176.68 163.404L176.847 163.409C180.355 163.522 184.332 164.821 184.964 168.129C184.973 168.183 185 168.223 185.045 168.264L185.081 168.296L185.095 168.341C185.713 170.281 187.072 172.068 189.243 173.796C189.713 174.17 190.223 174.549 190.755 174.919C190.85 174.982 190.95 175.05 191.053 175.113C191.613 175.474 192.308 175.925 192.317 176.711C192.326 177.324 192.047 177.938 191.798 178.484L191.744 178.601C191.595 178.93 191.437 179.255 191.279 179.58C191.117 179.91 190.959 180.239 190.81 180.573C190.331 181.638 189.92 182.779 190.164 183.921C190.372 184.9 191.053 185.699 192.308 186.421C192.53 186.547 192.751 186.673 192.972 186.8C193.721 187.224 194.498 187.657 195.216 188.185C196.069 188.807 196.922 189.543 197.82 190.436C199.712 192.318 201.355 194.461 202.948 196.532L204.217 198.179L203.431 197.701C200.258 195.761 197.428 193.834 194.778 191.817C191.789 189.538 188.859 187.093 186.029 184.724L174.026 174.698C172.929 173.782 171.832 172.862 170.73 171.95C169.525 170.944 168.098 169.839 166.442 169.451C164.952 169.103 163.489 169.559 162.627 170.637C161.918 171.526 161.562 172.785 161.571 174.382C161.58 175.952 161.941 177.559 162.298 178.926C162.681 180.415 163.214 181.949 163.873 183.483C165.087 186.308 166.803 189.159 168.97 191.957C170.906 194.457 173.145 196.852 175.804 199.28C177.456 200.787 179.235 202.195 180.96 203.553C181.93 204.315 182.928 205.11 183.898 205.908C185.072 206.878 186.575 208.196 187.79 209.802C188.805 211.142 189.663 212.726 190.34 214.513C191.387 217.274 191.965 220.216 192.521 223.059C192.638 223.659 192.755 224.254 192.877 224.85C194.371 232.2 196.344 238.562 198.908 244.306C201.856 250.907 205.589 256.498 210.004 260.929C210.785 261.714 211.62 262.49 212.483 263.234L212.645 263.374L212.446 263.51C212.148 263.717 211.981 264.083 211.945 264.588C211.914 265.035 212 265.499 212.076 265.951L212.099 266.068C212.239 266.88 212.185 267.57 211.918 268.238C211.485 269.339 210.573 270.381 209.205 271.333C207.025 272.854 204.276 274.005 200.556 274.952C197.789 275.656 194.733 276.107 191.211 276.337L190.516 276.383C189.604 276.446 188.67 276.513 187.74 276.513ZM173.696 243.124C176.165 250.479 178.463 257.937 180.535 265.305C181.009 266.993 181.483 268.721 181.948 270.436L182.007 270.661C182.314 271.812 182.634 273.003 183.23 274.045C183.952 275.309 185.049 276.008 186.49 276.125C187.803 276.234 189.171 276.134 190.494 276.044L191.189 275.999C194.687 275.773 197.725 275.322 200.475 274.623C204.154 273.689 206.867 272.552 209.011 271.054C210.32 270.138 211.196 269.15 211.602 268.112C211.842 267.503 211.896 266.871 211.765 266.122L211.747 266.005C211.665 265.535 211.58 265.048 211.611 264.561C211.647 264.046 211.81 263.64 212.09 263.365C211.273 262.657 210.487 261.917 209.742 261.172C205.296 256.714 201.54 251.088 198.579 244.45C196.006 238.689 194.028 232.299 192.525 224.927C192.403 224.331 192.286 223.731 192.168 223.131C191.613 220.302 191.04 217.378 190.002 214.639C189.333 212.884 188.494 211.327 187.501 210.014C186.309 208.435 184.824 207.136 183.664 206.174C182.698 205.376 181.695 204.586 180.729 203.824C179.005 202.461 177.217 201.053 175.556 199.537C172.879 197.096 170.631 194.687 168.681 192.169C166.496 189.349 164.767 186.475 163.544 183.623C162.875 182.075 162.343 180.523 161.95 179.016C161.593 177.631 161.223 175.998 161.214 174.391C161.205 172.713 161.584 171.382 162.343 170.434C163.291 169.248 164.884 168.747 166.5 169.126C168.229 169.532 169.696 170.664 170.929 171.693C172.026 172.609 173.127 173.525 174.224 174.441L186.228 184.467C189.058 186.831 191.983 189.277 194.967 191.551C197.387 193.396 199.956 195.16 202.804 196.929L202.66 196.744C201.075 194.682 199.436 192.548 197.563 190.684C196.678 189.805 195.839 189.078 194.999 188.465C194.295 187.95 193.527 187.521 192.787 187.102C192.566 186.976 192.344 186.849 192.119 186.723C190.792 185.956 190.038 185.067 189.812 183.998C189.55 182.761 189.979 181.557 190.48 180.442C190.634 180.104 190.796 179.774 190.954 179.44C191.112 179.12 191.27 178.795 191.415 178.47L191.469 178.353C191.699 177.839 191.965 177.261 191.956 176.724C191.947 176.119 191.387 175.754 190.846 175.402C190.737 175.334 190.638 175.267 190.539 175.199C189.997 174.824 189.482 174.441 189.008 174.062C186.801 172.302 185.411 170.479 184.765 168.49C184.679 168.408 184.63 168.309 184.607 168.192C183.871 164.338 178.45 163.824 176.978 163.752C176.937 164.591 176.883 166.085 176.892 167.691L179.569 174.626C179.659 174.856 179.605 175.086 179.434 175.24C179.258 175.393 178.991 175.438 178.766 175.357C178.716 175.384 178.662 175.402 178.608 175.416C177.903 175.573 177.253 175.325 176.779 174.716C176.369 174.184 176.116 173.493 176.007 172.609C175.886 171.616 175.8 170.533 175.737 169.211C175.719 168.828 175.709 168.444 175.696 168.061V168.011L169.66 152.368C169.236 151.271 168.807 150.179 168.378 149.088C167.507 146.863 166.604 144.566 165.774 142.283C165.304 140.993 164.857 139.328 165.575 137.893C165.76 137.528 166.013 137.194 166.351 136.878C156.966 140.181 147.021 141.187 139.329 141.692C137.054 141.841 134.58 141.967 131.542 142.094C131.027 142.116 130.513 142.139 129.994 142.161C127.976 142.256 125.886 142.351 123.836 142.261C120.988 142.134 118.848 141.602 117.114 140.587C115.282 139.513 113.797 137.726 112.569 135.123C111.661 133.196 110.871 131.179 110.108 129.225C109.874 128.63 109.643 128.03 109.404 127.439C108.321 124.718 107.242 121.947 106.195 119.208C104.068 113.645 101.987 107.987 100.015 102.387C96.0871 91.2426 92.4938 79.6781 89.3338 68.0098C88.2188 63.8948 87.1173 59.7798 86.0158 55.6648L84.5577 50.2142C83.8851 47.728 83.1944 45.1561 83.7316 42.5256C84.1424 40.5222 85.2078 38.4963 86.9096 36.5019C88.5844 34.5392 90.5888 32.9419 92.3267 31.6379C94.313 30.1489 96.4437 28.7457 98.6693 27.4642C102.773 25.0954 107.373 23.0334 112.338 21.3368C121.137 18.3318 130.928 16.4232 142.272 15.5027C147.125 15.1101 152.723 15.0605 157.431 17.6775C160.858 19.5816 163.778 22.8935 166.117 27.5229C168.198 31.6424 169.615 36.1274 170.988 40.4636L171.267 41.3524C172.68 45.8104 174.039 50.3676 175.348 54.7759L176.224 57.7133C179.56 68.8897 182.937 79.7909 187.582 90.2274L187.618 90.3086C187.866 90.8455 187.961 91.1162 187.948 91.2787C191.035 97.5234 192.688 104.147 192.999 111.52C193.157 115.265 192.642 118.284 191.428 120.752C190.349 122.944 188.62 124.93 186.151 126.82C183.799 128.621 181.127 130.069 178.77 131.341L169.037 136.603C167.801 137.261 166.523 137.938 166.446 139.418C166.379 140.682 166.92 141.967 167.444 143.208C167.575 143.524 167.706 143.835 167.823 144.138L175.714 164.591C175.741 163.829 175.777 163.102 175.831 162.389C176.003 160.133 176.301 157.904 176.73 155.77C177.222 153.302 177.858 151.393 178.734 149.764L178.883 149.846L178.734 149.764C180.607 146.277 183.682 143.727 186.422 141.606C186.833 141.286 187.243 140.97 187.659 140.654C190.187 138.714 192.796 136.706 195.139 134.45C198.172 131.526 200.398 128.67 201.951 125.715C203.806 122.177 204.655 118.256 204.474 114.074C204.28 109.616 203.097 105.221 201.955 100.966L201.865 100.637C200.687 96.242 199.427 91.8021 198.123 87.4344C195.613 79.0284 192.809 70.496 189.794 62.0855C189.6 62.0313 189.451 61.8824 189.388 61.6794L186.074 50.8007C183.948 43.816 181.822 36.8358 179.687 29.8556C179.375 28.8449 179.073 27.8297 178.77 26.81C177.854 23.7237 176.901 20.5337 175.737 17.4925C174.482 14.2077 172.382 11.1305 169.823 8.8248C168.897 7.99007 163.814 3.73968 154.511 1.95289C152.29 1.52425 149.03 1.18584 146.769 1.38888C144.367 1.60095 141.993 1.75887 139.695 1.90777C131.989 2.40861 124.712 2.8869 117.751 5.44074C108.063 8.99175 89.2706 16.739 87.9569 17.3978C82.5534 20.114 77.7908 24.1659 74.184 29.1157C70.0489 34.7919 67.5977 41.2487 67.2726 47.3084C67.0605 51.2835 68.1845 54.9067 69.3718 58.7465L69.453 59.0127C70.6222 62.7894 71.7914 66.566 72.9741 70.3381C75.791 79.3352 78.0256 86.2522 80.215 92.7632C84.7067 106.114 90.2231 121.744 97.0983 136.445C99.4683 141.516 102.524 147.269 107.219 151.474C109.589 153.595 112.194 155.089 114.966 155.91C117.733 156.731 120.672 156.925 123.511 157.11C124.504 157.173 125.534 157.241 126.536 157.336C130.436 157.697 134.336 158.301 138.128 159.127C141.464 159.853 144.963 160.742 147.852 162.867C150.804 165.038 152.804 168.092 154.736 171.052C155.874 172.794 157.048 174.59 158.406 176.187C158.641 176.165 158.853 176.264 158.984 176.471C160.217 178.434 160.551 180.717 160.876 182.919C160.934 183.334 160.998 183.749 161.065 184.16C161.476 186.705 162.429 189.015 163.453 191.357C163.878 192.331 164.261 193.311 164.586 194.263C164.586 194.254 164.604 194.276 164.618 194.312C166.952 200.692 168.794 207.312 170.089 213.985C170.13 214.188 170.076 214.395 169.949 214.544C169.832 214.684 169.674 214.77 169.484 214.756C169.412 214.756 169.34 214.752 169.272 214.738C170.338 216.042 171.958 216.972 173.403 217.802L173.845 218.059C178.039 220.491 183.072 224.011 184.792 229.678C185.185 230.968 185.356 232.259 185.311 233.509C185.28 234.298 185.212 236.139 183.646 236.405C183.054 236.505 182.418 236.351 181.858 236.216L181.623 236.162C181.366 236.103 181.099 236.035 180.815 235.954C181.768 236.911 182.521 237.949 183.059 239.04C183.411 239.753 183.939 241.139 183.551 242.429C183.203 243.593 182.138 244.261 180.707 244.211C179.131 244.157 177.551 243.882 175.8 243.557C175.114 243.435 174.405 243.286 173.696 243.124ZM234.282 270.508L234.151 270.503C230.061 270.372 226.59 269.858 223.542 268.924C220.662 268.044 217.85 266.618 215.191 264.687L214.491 264.177L224.468 266.641C224.969 266.763 225.466 266.885 225.967 267.006C227.316 267.331 228.711 267.67 230.07 268.053C231.113 268.351 231.943 268.635 232.684 268.951L232.873 269.032C233.203 269.168 233.578 269.321 233.862 269.565C233.867 269.569 234.417 270.043 234.323 270.386L234.282 270.508ZM216.121 264.931C218.532 266.582 221.06 267.814 223.642 268.604C226.608 269.506 229.975 270.016 233.939 270.16C233.867 270.048 233.745 269.903 233.645 269.822C233.397 269.614 233.068 269.479 232.743 269.344L232.548 269.262C231.822 268.951 231.005 268.671 229.975 268.378C228.626 267.995 227.231 267.661 225.885 267.336C225.384 267.214 224.883 267.097 224.387 266.97L216.121 264.931ZM232.413 214.31L231.754 214.057C230.467 213.565 229.402 212.582 228.373 211.63C228.124 211.404 227.881 211.174 227.637 210.957L226.441 209.897L227.831 210.682C228.341 210.966 228.752 211.214 229.131 211.458C230.237 212.167 231.185 212.952 231.939 213.786L232.413 214.31ZM229.118 211.855C229.709 212.392 230.323 212.906 230.982 213.304C230.436 212.794 229.808 212.311 229.118 211.855ZM169.15 213.922L168.758 213.538C168.261 213.055 168.062 212.126 167.918 211.445C167.886 211.305 167.859 211.178 167.837 211.075C167.498 209.734 167.182 208.363 166.893 207C166.595 205.597 166.347 204.185 166.144 202.984L166.473 202.908C167.471 206.35 168.338 209.874 169.042 213.38L169.15 213.922ZM167.236 206.991C167.521 208.331 167.832 209.676 168.166 210.993C168.193 211.102 168.22 211.232 168.252 211.377C168.306 211.634 168.374 211.945 168.464 212.252C168.094 210.497 167.683 208.737 167.236 206.991ZM221.227 207.934C220.793 207.835 220.355 207.736 219.918 207.65L219.534 207.573C217.195 207.099 214.776 206.612 212.613 205.416C210.93 204.482 209.291 203.16 207.612 201.369C207.558 201.31 207.503 201.252 207.449 201.193L206.632 200.3L207.539 200.801C208.208 201.171 208.871 201.536 209.544 201.892C212.51 203.467 215.751 205.06 219.741 206.905C220.265 207.149 220.798 207.384 221.33 207.618L221.227 207.934ZM208.311 201.604C209.81 203.133 211.277 204.284 212.785 205.119C214.898 206.292 217.29 206.775 219.606 207.239L219.723 207.262C219.683 207.244 219.647 207.226 219.606 207.208C215.611 205.358 212.361 203.765 209.39 202.186C209.029 201.992 208.668 201.798 208.311 201.604ZM178.612 174.63L178.319 174.558C178.098 174.59 177.917 174.545 177.75 174.423C177.19 174.008 176.834 172.731 176.666 170.515L176.581 169.369L178.612 174.63ZM177.136 171.743C177.357 173.363 177.691 173.954 177.953 174.148C177.998 174.179 178.043 174.206 178.093 174.22L177.136 171.743ZM125.547 141.399C125.042 141.399 124.54 141.39 124.039 141.372C122.189 141.304 119.466 141.047 117.232 139.608C115.065 138.209 113.86 135.917 112.885 133.643C111.977 131.531 111.12 129.352 110.289 127.245L109.734 125.832C107.612 120.458 105.526 114.976 103.545 109.548C98.9446 96.9684 95.4551 86.3921 92.566 76.2715C91.1575 71.3353 89.8078 66.2952 88.5032 61.4222L85.4154 49.9028C84.7654 47.525 84.0927 45.0659 84.6525 42.5797C85.7224 37.833 89.889 34.4941 93.7126 31.7417C97.5452 28.9803 101.865 26.5528 106.556 24.5269C114.785 20.9713 124.27 18.5483 135.542 17.118L136.35 17.0142C141.166 16.4006 146.15 15.7644 150.953 16.4908C153.599 16.8924 155.946 17.7452 157.923 19.0266C159.666 20.1592 161.264 21.6933 162.672 23.5929C165.39 27.2612 167.056 31.5612 168.455 35.6627C170.265 40.9689 171.908 46.4015 173.434 51.5137C173.786 52.6958 174.139 53.8825 174.495 55.0692C177.276 64.4092 180.147 74.0696 183.736 83.3058C184.616 85.5709 185.578 87.8856 186.589 90.1867L186.629 90.2815L186.593 90.3266C186.611 90.5071 186.846 91.1523 187.018 91.6351C187.167 92.0457 187.32 92.4653 187.424 92.8083C190.078 98.4439 191.487 103.714 191.992 109.905C192.218 112.702 192.313 116.334 190.981 119.565C190.024 121.884 188.264 124.054 185.74 126.013C183.442 127.795 180.82 129.212 178.508 130.466L176.49 131.558C176.188 131.711 175.913 131.829 175.687 131.928C175.479 132.018 175.317 132.09 175.222 132.149C165.891 137.649 155.707 139.156 146.895 140.136C141.51 140.736 136.115 141.006 131.542 141.191C131.036 141.209 130.531 141.237 130.025 141.259C128.558 141.331 127.05 141.399 125.547 141.399ZM146.326 16.5089C143.017 16.5089 139.668 16.9375 136.395 17.3526L135.587 17.4564C124.342 18.8777 114.893 21.2917 106.691 24.8382C102.023 26.8551 97.7258 29.2691 93.9112 32.0169C90.1373 34.7332 86.0248 38.0225 84.9821 42.6564C84.4403 45.0614 85.1039 47.4799 85.7404 49.8171L88.8327 61.3365C90.1373 66.2095 91.4871 71.2495 92.8955 76.1812C95.7847 86.2928 99.2697 96.8601 103.865 109.435C105.847 114.863 107.933 120.341 110.054 125.71L110.609 127.123C111.436 129.225 112.293 131.405 113.201 133.512C114.158 135.732 115.327 137.974 117.421 139.323C119.584 140.718 122.243 140.97 124.057 141.033C126.039 141.106 128.062 141.015 130.016 140.921C130.522 140.898 131.027 140.876 131.533 140.853C136.097 140.668 141.487 140.397 146.859 139.797C157.747 138.583 166.708 136.77 175.05 131.856C175.163 131.788 175.335 131.716 175.551 131.617C175.773 131.522 176.039 131.405 176.332 131.256L178.346 130.164C180.648 128.919 183.257 127.506 185.532 125.742C188.006 123.82 189.735 121.699 190.67 119.434C191.974 116.267 191.884 112.693 191.658 109.932C191.157 103.782 189.758 98.5386 187.117 92.9391L187.108 92.9166C187.004 92.5782 186.851 92.1585 186.702 91.7479C186.354 90.7869 186.241 90.4394 186.255 90.268C185.248 87.9803 184.296 85.6792 183.42 83.4276C179.826 74.1779 176.951 64.513 174.17 55.1639C173.818 53.9773 173.466 52.7951 173.109 51.6084C171.583 46.5007 169.94 41.0682 168.135 35.771C166.744 31.6966 165.087 27.4236 162.397 23.7959C161.016 21.9279 159.445 20.4209 157.738 19.3109C155.802 18.0565 153.504 17.2173 150.904 16.8247C149.396 16.6036 147.866 16.5089 146.326 16.5089Z" fill="#004748"/>
</svg>
