<svg width="24" height="24" viewBox="0 0 24 24" fill="none" xmlns="http://www.w3.org/2000/svg">
<circle cx="12" cy="12" r="11" fill="#009699"/>
<path d="M17.4733 11.3258C17.7805 11.1463 17.9209 10.7768 17.8103 10.4386C17.6991 10.0984 17.3644 9.88288 17.0087 9.92242L14.2986 10.2236C13.7742 10.2819 13.2947 9.92261 13.2033 9.40288L12.7128 6.61307C12.6505 6.25854 12.3425 6 11.9825 6C11.6225 6 11.3146 6.25854 11.2522 6.61308L10.7618 9.40288C10.6704 9.92261 10.1909 10.2819 9.66641 10.2236L6.96914 9.92384C6.60822 9.88373 6.27036 10.1078 6.16691 10.4559C6.06873 10.7863 6.2082 11.1411 6.50509 11.3161L8.9365 12.7498C9.37228 13.0067 9.54752 13.5486 9.3447 14.0121L8.13637 16.7732C7.99968 17.0855 8.10051 17.4509 8.37804 17.6489C8.66267 17.852 9.05201 17.8215 9.30157 17.5766L11.2821 15.6329C11.671 15.2512 12.294 15.2512 12.683 15.6329L14.6621 17.5752C14.9134 17.8219 15.3043 17.8557 15.5943 17.6559C15.8861 17.4549 15.9931 17.0744 15.8488 16.7508L14.6301 14.0187C14.4223 13.5528 14.5985 13.0052 15.039 12.7478L17.4733 11.3258Z" fill="white"/>
</svg>
