<?xml version="1.0" encoding="utf-8"?>
<!-- Generator: Adobe Illustrator 24.1.0, SVG Export Plug-In . SVG Version: 6.00 Build 0)  -->
<svg version="1.1" id="Camada_1" xmlns="http://www.w3.org/2000/svg" xmlns:xlink="http://www.w3.org/1999/xlink" x="0px" y="0px"
	 viewBox="0 0 24 24" style="enable-background:new 0 0 24 24;" xml:space="preserve">
<style type="text/css">
	.st0{fill-rule:evenodd;clip-rule:evenodd;fill:#414F58;}
</style>
<path class="st0" d="M9.3,7c0.5-0.2,1.1,0.1,1.3,0.7L11,9C11.7,9,12.3,9,13,9l0.4-1.3c0.2-0.5,0.8-0.8,1.3-0.7
	c0.5,0.2,0.9,0.7,0.7,1.2L15,9.4c0.6,0.2,1.2,0.4,1.7,0.7l0.8-0.8c0.4-0.4,1-0.4,1.5-0.1c0.4,0.4,0.4,1,0.1,1.4l-0.5,0.5
	c0.5,0.4,0.9,0.8,1.3,1.2c0.3,0.3,0.3,0.9-0.1,1.2c-1.9,1.8-8.2,6.6-15.5,0c-0.4-0.3-0.4-0.9-0.1-1.3C4.6,12,5,11.6,5.5,11.2L5,10.7
	c-0.4-0.4-0.4-1,0.1-1.4c0.4-0.4,1.1-0.3,1.5,0.1l0.8,0.8C7.8,9.8,8.4,9.6,9,9.4L8.6,8.3C8.4,7.8,8.7,7.2,9.3,7z M9.3,14.5
	C9,14,8.9,13.5,8.9,13c0-0.6,0.2-1.1,0.5-1.6c-1,0.3-1.9,0.8-2.7,1.5C7.5,13.7,8.4,14.2,9.3,14.5z M14.7,14.5
	c0.3-0.4,0.4-0.9,0.4-1.5c0-0.6-0.2-1.1-0.5-1.6c1,0.3,1.9,0.8,2.8,1.5C16.7,13.5,15.8,14.1,14.7,14.5z M13,13c0,0.6-0.5,1-1,1
	c-0.6,0-1-0.4-1-1c0-0.6,0.5-1,1-1C12.6,12,13,12.4,13,13z"/>
</svg>
