<svg width="17" height="17" viewBox="0 0 17 17" fill="none" xmlns="http://www.w3.org/2000/svg">
<path fill-rule="evenodd" clip-rule="evenodd" d="M10.6499 10.8376C12.9204 10.8376 14.761 8.997 14.761 6.7265C14.761 4.45599 12.9204 2.61539 10.6499 2.61539C8.3794 2.61539 6.53879 4.45599 6.53879 6.7265C6.53879 8.997 8.3794 10.8376 10.6499 10.8376ZM10.6499 12.8376C14.025 12.8376 16.761 10.1016 16.761 6.7265C16.761 3.35142 14.025 0.615387 10.6499 0.615387C7.27483 0.615387 4.53879 3.35142 4.53879 6.7265C4.53879 10.1016 7.27483 12.8376 10.6499 12.8376Z" fill="white"/>
<path fill-rule="evenodd" clip-rule="evenodd" d="M7.46812 9.90811C7.85865 10.2986 7.85865 10.9318 7.46812 11.3223L2.46812 16.3223C2.0776 16.7128 1.44443 16.7128 1.05391 16.3223C0.663386 15.9318 0.663386 15.2986 1.05391 14.9081L6.05391 9.90811C6.44443 9.51759 7.0776 9.51759 7.46812 9.90811Z" fill="white"/>
</svg>
