<svg width="144" height="120" viewBox="0 0 144 120" fill="none" xmlns="http://www.w3.org/2000/svg">
<path d="M64.2929 17.7071C64.6834 18.0976 65.3166 18.0976 65.7071 17.7071C66.0976 17.3166 66.0976 16.6834 65.7071 16.2929L61.4142 12L65.7071 7.70711C66.0976 7.31658 66.0976 6.68342 65.7071 6.29289C65.3166 5.90237 64.6834 5.90237 64.2929 6.29289L60 10.5858L55.7071 6.29289C55.3166 5.90237 54.6834 5.90237 54.2929 6.29289C53.9024 6.68342 53.9024 7.31658 54.2929 7.70711L58.5858 12L54.2929 16.2929C53.9024 16.6834 53.9024 17.3166 54.2929 17.7071C54.6834 18.0976 55.3166 18.0976 55.7071 17.7071L60 13.4142L64.2929 17.7071Z" fill="#CDDBE4"/>
<path fill-rule="evenodd" clip-rule="evenodd" d="M60 30C60.5523 30 61 30.4477 61 31V35H65C65.5523 35 66 35.4477 66 36C66 36.5523 65.5523 37 65 37H61V41C61 41.5523 60.5523 42 60 42C59.4477 42 59 41.5523 59 41V37H55C54.4477 37 54 36.5523 54 36C54 35.4477 54.4477 35 55 35H59V31C59 30.4477 59.4477 30 60 30Z" fill="#CDDBE4"/>
<path fill-rule="evenodd" clip-rule="evenodd" d="M54 60C54 59.4477 54.4477 59 55 59H65C65.5523 59 66 59.4477 66 60C66 60.5523 65.5523 61 65 61H55C54.4477 61 54 60.5523 54 60Z" fill="#CDDBE4"/>
<path fill-rule="evenodd" clip-rule="evenodd" d="M30.2929 81.2929C30.6834 80.9024 31.3166 80.9024 31.7071 81.2929L36 85.5858L40.2929 81.2929C40.6834 80.9024 41.3166 80.9024 41.7071 81.2929C42.0976 81.6834 42.0976 82.3166 41.7071 82.7071L36.7071 87.7071C36.3166 88.0976 35.6834 88.0976 35.2929 87.7071L30.2929 82.7071C29.9024 82.3166 29.9024 81.6834 30.2929 81.2929Z" fill="#CDDBE4"/>
<path fill-rule="evenodd" clip-rule="evenodd" d="M30.2929 62.7071C30.6834 63.0976 31.3166 63.0976 31.7071 62.7071L36 58.4142L40.2929 62.7071C40.6834 63.0976 41.3166 63.0976 41.7071 62.7071C42.0976 62.3166 42.0976 61.6834 41.7071 61.2929L36.7071 56.2929C36.3166 55.9024 35.6834 55.9024 35.2929 56.2929L30.2929 61.2929C29.9024 61.6834 29.9024 62.3166 30.2929 62.7071Z" fill="#CDDBE4"/>
<path fill-rule="evenodd" clip-rule="evenodd" d="M98 4.71429C98 3.21523 99.2152 2 100.714 2H110C111.657 2 113 3.34315 113 5V6C113 6.55228 112.552 7 112 7C111.448 7 111 6.55228 111 6V5C111 4.44772 110.552 4 110 4H100.714C100.32 4 100 4.3198 100 4.71429V11.1429C100 11.6951 99.5523 12.1429 99 12.1429C98.4477 12.1429 98 11.6951 98 11.1429V4.71429ZM112 15C112.552 15 113 15.4477 113 16V17C113 18.6569 111.657 20 110 20H107C106.448 20 106 19.5523 106 19C106 18.4477 106.448 18 107 18H110C110.552 18 111 17.5523 111 17V16C111 15.4477 111.448 15 112 15Z" fill="#CDDBE4"/>
<path fill-rule="evenodd" clip-rule="evenodd" d="M98 5.56155C98 3.60984 99.8342 2.17777 101.728 2.65113L105.728 3.65113C107.063 3.985 108 5.18495 108 6.56155V18.4384C108 20.3902 106.166 21.8222 104.272 21.3489L100.272 20.3489C98.9369 20.015 98 18.815 98 17.4384V5.56155ZM101.243 4.59141C100.611 4.43362 100 4.91098 100 5.56155V17.4384C100 17.8973 100.312 18.2973 100.757 18.4086L104.757 19.4086C105.389 19.5664 106 19.089 106 18.4384V6.56155C106 6.10268 105.688 5.7027 105.243 5.59141L101.243 4.59141Z" fill="#CDDBE4"/>
<path fill-rule="evenodd" clip-rule="evenodd" d="M113.293 7.29289C113.683 6.90237 114.317 6.90237 114.707 7.29289L117.707 10.2929C118.098 10.6834 118.098 11.3166 117.707 11.7071L114.707 14.7071C114.317 15.0976 113.683 15.0976 113.293 14.7071C112.902 14.3166 112.902 13.6834 113.293 13.2929L114.586 12H110C109.448 12 109 11.5523 109 11C109 10.4477 109.448 10 110 10H114.586L113.293 8.70711C112.902 8.31658 112.902 7.68342 113.293 7.29289Z" fill="#CDDBE4"/>
<path fill-rule="evenodd" clip-rule="evenodd" d="M31.415 10.6508C30.859 10.0021 31.3199 9 32.1742 9H39.8258C40.6801 9 41.141 10.0021 40.585 10.6508L36.7593 15.1142C36.3602 15.5798 35.6398 15.5798 35.2407 15.1142L31.415 10.6508Z" fill="#CDDBE4"/>
<path fill-rule="evenodd" clip-rule="evenodd" d="M31.415 37.3492C30.859 37.9979 31.3199 39 32.1742 39H39.8258C40.6801 39 41.141 37.9979 40.585 37.3492L36.7593 32.8858C36.3602 32.4202 35.6398 32.4202 35.2407 32.8858L31.415 37.3492Z" fill="#CDDBE4"/>
<path fill-rule="evenodd" clip-rule="evenodd" d="M67.7029 78.2887C68.0957 78.6769 68.0995 79.3101 67.7113 79.7029L57.8289 89.7029C57.4484 90.0879 56.8306 90.1003 56.435 89.7308L52.3174 85.8846C51.9138 85.5076 51.8922 84.8748 52.2692 84.4712C52.6462 84.0676 53.279 84.0461 53.6826 84.4231L57.0898 87.6056L66.2887 78.2971C66.6769 77.9043 67.3101 77.9005 67.7029 78.2887Z" fill="#CDDBE4"/>
<path fill-rule="evenodd" clip-rule="evenodd" d="M97 53C97 51.3431 98.3431 50 100 50H116C117.657 50 119 51.3431 119 53V67C119 68.6569 117.657 70 116 70H100C98.3431 70 97 68.6569 97 67V53ZM100 52C99.4477 52 99 52.4477 99 53V67C99 67.5523 99.4477 68 100 68H116C116.552 68 117 67.5523 117 67V53C117 52.4477 116.552 52 116 52H100Z" fill="#CDDBE4"/>
<path fill-rule="evenodd" clip-rule="evenodd" d="M97 53C97 51.3431 98.3431 50 100 50H116C117.657 50 119 51.3431 119 53C119 54.6569 117.657 56 116 56H100C98.3431 56 97 54.6569 97 53ZM100 52C99.4477 52 99 52.4477 99 53C99 53.5523 99.4477 54 100 54H116C116.552 54 117 53.5523 117 53C117 52.4477 116.552 52 116 52H100Z" fill="#CDDBE4"/>
<path d="M101 59C101 58.4477 101.448 58 102 58H103C103.552 58 104 58.4477 104 59V60C104 60.5523 103.552 61 103 61H102C101.448 61 101 60.5523 101 60V59Z" fill="#CDDBE4"/>
<path d="M111 59C111 58.4477 111.448 58 112 58H113C113.552 58 114 58.4477 114 59V60C114 60.5523 113.552 61 113 61H112C111.448 61 111 60.5523 111 60V59Z" fill="#CDDBE4"/>
<path d="M106 59.5C106 58.6716 106.672 58 107.5 58C108.328 58 109 58.6716 109 59.5C109 60.3284 108.328 61 107.5 61C106.672 61 106 60.3284 106 59.5Z" fill="#CDDBE4"/>
<path d="M101 64C101 63.4477 101.448 63 102 63H103C103.552 63 104 63.4477 104 64V65C104 65.5523 103.552 66 103 66H102C101.448 66 101 65.5523 101 65V64Z" fill="#CDDBE4"/>
<path d="M106 64C106 63.4477 106.448 63 107 63H108C108.552 63 109 63.4477 109 64V65C109 65.5523 108.552 66 108 66H107C106.448 66 106 65.5523 106 65V64Z" fill="#CDDBE4"/>
<path fill-rule="evenodd" clip-rule="evenodd" d="M108 77C108.552 77 109 77.4477 109 78V79H111C111.552 79 112 79.4477 112 80C112 80.5523 111.552 81 111 81H109V83H110C111.657 83 113 84.3431 113 86C113 87.6569 111.657 89 110 89H109V90C109 90.5523 108.552 91 108 91C107.448 91 107 90.5523 107 90V89H105C104.448 89 104 88.5523 104 88C104 87.4477 104.448 87 105 87H107V85H106C104.343 85 103 83.6569 103 82C103 80.3431 104.343 79 106 79H107V78C107 77.4477 107.448 77 108 77ZM107 81H106C105.448 81 105 81.4477 105 82C105 82.5523 105.448 83 106 83H107V81ZM109 85V87H110C110.552 87 111 86.5523 111 86C111 85.4477 110.552 85 110 85H109Z" fill="#CDDBE4"/>
<path fill-rule="evenodd" clip-rule="evenodd" d="M108 76C103.582 76 100 79.5817 100 84C100 88.4183 103.582 92 108 92C112.418 92 116 88.4183 116 84C116 79.5817 112.418 76 108 76ZM98 84C98 78.4772 102.477 74 108 74C113.523 74 118 78.4772 118 84C118 89.5228 113.523 94 108 94C102.477 94 98 89.5228 98 84Z" fill="#CDDBE4"/>
<path fill-rule="evenodd" clip-rule="evenodd" d="M131 77C127.134 77 124 80.134 124 84C124 87.866 127.134 91 131 91C132.776 91 134.395 90.3399 135.63 89.2503C136.044 88.8848 136.676 88.9242 137.041 89.3383C137.407 89.7523 137.367 90.3843 136.953 90.7497C135.367 92.1495 133.282 93 131 93C126.029 93 122 88.9706 122 84C122 79.0294 126.029 75 131 75C135.034 75 138.448 77.6536 139.591 81.3104L140.168 80.4453C140.474 79.9858 141.095 79.8616 141.555 80.1679C142.014 80.4743 142.138 81.0952 141.832 81.5547L139.832 84.5547C139.526 85.0142 138.905 85.1384 138.445 84.8321L135.445 82.8321C134.986 82.5257 134.862 81.9048 135.168 81.4453C135.474 80.9858 136.095 80.8616 136.555 81.1679L137.687 81.9225C136.802 79.0709 134.143 77 131 77Z" fill="#CDDBE4"/>
<path fill-rule="evenodd" clip-rule="evenodd" d="M98 29C98 27.3431 99.3431 26 101 26H115C116.657 26 118 27.3431 118 29V36C118 37.6569 116.657 39 115 39H101C99.3431 39 98 37.6569 98 36V29ZM101 28C100.448 28 100 28.4477 100 29V36C100 36.5523 100.448 37 101 37H115C115.552 37 116 36.5523 116 36V29C116 28.4477 115.552 28 115 28H101Z" fill="#CDDBE4"/>
<path fill-rule="evenodd" clip-rule="evenodd" d="M98 44C98 42.3431 99.3431 41 101 41H115C116.657 41 118 42.3431 118 44V45C118 45.5523 117.552 46 117 46C116.448 46 116 45.5523 116 45V44C116 43.4477 115.552 43 115 43H101C100.448 43 100 43.4477 100 44V45C100 45.5523 99.5523 46 99 46C98.4477 46 98 45.5523 98 45V44Z" fill="#CDDBE4"/>
<path fill-rule="evenodd" clip-rule="evenodd" d="M114.997 32.642C115.026 33.0418 114.814 33.4202 114.457 33.6036L110 35.8959V37C110 37.5523 109.552 38 109 38C108.448 38 108 37.5523 108 37V31C108 30.677 108.156 30.374 108.419 30.1863C108.682 29.9986 109.019 29.9493 109.324 30.0541L114.324 31.7683C114.703 31.8983 114.968 32.2422 114.997 32.642ZM110 33.6469L111.455 32.8988L110 32.4V33.6469Z" fill="#CDDBE4"/>
<path fill-rule="evenodd" clip-rule="evenodd" d="M98 34C98 33.4477 98.4477 33 99 33H103C103.552 33 104 33.4477 104 34C104 34.5523 103.552 35 103 35H99C98.4477 35 98 34.5523 98 34Z" fill="#CDDBE4"/>
<path fill-rule="evenodd" clip-rule="evenodd" d="M98 31C98 30.4477 98.4477 30 99 30H105C105.552 30 106 30.4477 106 31C106 31.5523 105.552 32 105 32H99C98.4477 32 98 31.5523 98 31Z" fill="#CDDBE4"/>
<path fill-rule="evenodd" clip-rule="evenodd" d="M137.578 6.42189C136.896 5.73985 135.79 5.73985 135.108 6.4219L134.828 6.70166L137.298 9.17156L137.578 8.89179C138.26 8.20975 138.26 7.10394 137.578 6.42189ZM135.948 10.5224L133.478 8.05249L127.665 13.8655L130.134 16.3354L135.948 10.5224ZM128.366 17.2688L126.731 15.6338L125.914 18.0863L128.366 17.2688ZM133.757 5.07106C135.185 3.64298 137.501 3.64298 138.929 5.07106C140.357 6.49915 140.357 8.81453 138.929 10.2426L130.81 18.3617C130.705 18.4665 130.577 18.5455 130.437 18.5924L126.518 19.8987C125.024 20.3965 123.604 18.9757 124.101 17.4822L125.408 13.5635C125.454 13.4228 125.533 13.295 125.638 13.1901L133.757 5.07106Z" fill="#CDDBE4"/>
<path fill-rule="evenodd" clip-rule="evenodd" d="M85.8889 62.2222C88.1594 62.2222 90 60.3816 90 58.1111C90 55.8406 88.1594 54 85.8889 54C83.6184 54 81.7778 55.8406 81.7778 58.1111C81.7778 60.3816 83.6184 62.2222 85.8889 62.2222ZM85.8889 64.2222C89.264 64.2222 92 61.4862 92 58.1111C92 54.736 89.264 52 85.8889 52C82.5138 52 79.7778 54.736 79.7778 58.1111C79.7778 61.4862 82.5138 64.2222 85.8889 64.2222Z" fill="#CDDBE4"/>
<path fill-rule="evenodd" clip-rule="evenodd" d="M82.7071 61.2927C83.0976 61.6832 83.0976 62.3164 82.7071 62.7069L77.7071 67.7069C77.3166 68.0975 76.6834 68.0975 76.2929 67.7069C75.9024 67.3164 75.9024 66.6832 76.2929 66.2927L81.2929 61.2927C81.6834 60.9022 82.3166 60.9022 82.7071 61.2927Z" fill="#CDDBE4"/>
<path fill-rule="evenodd" clip-rule="evenodd" d="M82 77C81.4477 77 81 77.4477 81 78H87C87 77.4477 86.5523 77 86 77H82ZM89 78C89 76.3431 87.6569 75 86 75H82C80.3431 75 79 76.3431 79 78C77.3431 78 76 79.3431 76 81V82C76 82.7403 76.4022 83.3866 77 83.7324V91C77 92.6569 78.3431 94 80 94H88C89.6569 94 91 92.6569 91 91V83.7324C91.5978 83.3866 92 82.7403 92 82V81C92 79.3431 90.6569 78 89 78ZM89 84H79V91C79 91.5523 79.4477 92 80 92H88C88.5523 92 89 91.5523 89 91V84ZM79 80C78.4477 80 78 80.4477 78 81V82H90V81C90 80.4477 89.5523 80 89 80H79ZM82 85C82.5523 85 83 85.4477 83 86V90C83 90.5523 82.5523 91 82 91C81.4477 91 81 90.5523 81 90V86C81 85.4477 81.4477 85 82 85ZM86 85C86.5523 85 87 85.4477 87 86V90C87 90.5523 86.5523 91 86 91C85.4477 91 85 90.5523 85 90V86C85 85.4477 85.4477 85 86 85Z" fill="#CDDBE4"/>
<path d="M85.352 40.2941C85.5144 40.8219 86.074 41.1182 86.6019 40.9558C87.1298 40.7934 87.426 40.2338 87.2636 39.7059L86.8954 38.5092C87.4289 38.3237 87.9497 38.0858 88.4513 37.7964L89.2653 38.6783C89.6399 39.0841 90.2726 39.1094 90.6784 38.7348C91.0842 38.3602 91.1095 37.7275 90.7349 37.3217L90.0785 36.6106C90.725 36.0275 91.3171 35.3396 91.8362 34.5486C92.1392 34.0869 92.0105 33.467 91.5488 33.1639C91.087 32.8609 90.4671 32.9896 90.1641 33.4513C88.5897 35.8504 86.2717 37 84.0001 37C81.7285 37 79.4105 35.8503 77.8362 33.4513C77.5331 32.9896 76.9132 32.8609 76.4515 33.1639C75.9897 33.467 75.8611 34.0869 76.1641 34.5486C76.6831 35.3396 77.2753 36.0275 77.9218 36.6106L77.2653 37.3217C76.8907 37.7275 76.916 38.3602 77.3218 38.7348C77.7277 39.1094 78.3603 39.0841 78.7349 38.6783L79.5489 37.7964C80.0506 38.0858 80.5713 38.3237 81.1048 38.5092L80.7366 39.7059C80.5742 40.2338 80.8705 40.7933 81.3983 40.9558C81.9262 41.1182 82.4858 40.8219 82.6482 40.2941L83.0619 38.9496C83.3734 38.9832 83.6865 39 84.0001 39C84.3137 39 84.6269 38.9832 84.9384 38.9496L85.352 40.2941Z" fill="#CDDBE4"/>
<path fill-rule="evenodd" clip-rule="evenodd" d="M81.3982 7.04423C81.9261 6.88181 82.4857 7.17806 82.6481 7.70592L83.06 9.0446C83.6851 8.98516 84.3149 8.98513 84.94 9.04453L85.3519 7.70592C85.5143 7.17806 86.0739 6.88181 86.6018 7.04423C87.1296 7.20665 87.4259 7.76623 87.2635 8.29409L86.9119 9.43684C87.4703 9.60854 88.0165 9.83086 88.5433 10.1038L89.2652 9.32173C89.6398 8.91591 90.2725 8.8906 90.6783 9.2652C91.0841 9.63981 91.1094 10.2725 90.7348 10.6783L90.2374 11.2171C90.6897 11.5862 91.1169 12.0013 91.513 12.4625C91.8123 12.8111 91.7929 13.3205 91.4647 13.6421C89.6782 15.3927 83.6388 20.2141 76.615 13.6745C76.2559 13.3401 76.211 12.7801 76.5332 12.41C76.9163 11.9699 77.328 11.5724 77.7629 11.2175L77.2652 10.6783C76.8906 10.2725 76.9159 9.63981 77.3217 9.2652C77.7275 8.8906 78.3602 8.91591 78.7348 9.32173L79.457 10.1041C79.9837 9.83111 80.5299 9.60877 81.0882 9.43704L80.7365 8.29409C80.5741 7.76623 80.8704 7.20665 81.3982 7.04423ZM81.3889 14.4783C81.1413 14.042 81 13.5375 81 13C81 12.4218 81.1636 11.8818 81.447 11.4237C80.505 11.7458 79.6116 12.2515 78.8222 12.9408C79.7237 13.6608 80.5812 14.1549 81.3889 14.4783ZM86.6025 14.4933C86.8554 14.0535 87 13.5437 87 13C87 12.4217 86.8364 11.8816 86.5529 11.4235C87.5075 11.7498 88.4122 12.2646 89.2095 12.968C88.5382 13.5025 87.6476 14.0886 86.6025 14.4933ZM85 13C85 13.5523 84.5523 14 84 14C83.4477 14 83 13.5523 83 13C83 12.4477 83.4477 12 84 12C84.5523 12 85 12.4477 85 13Z" fill="#CDDBE4"/>
<path fill-rule="evenodd" clip-rule="evenodd" d="M12.1805 4.26721C12.5852 4.64301 12.6086 5.27574 12.2328 5.68046L7.29321 11H19C19.5523 11 20 11.4477 20 12C20 12.5523 19.5523 13 19 13H7.29321L12.2328 18.3196C12.6086 18.7243 12.5852 19.357 12.1805 19.7328C11.7757 20.1086 11.143 20.0852 10.7672 19.6805L4.26721 12.6805C3.91093 12.2968 3.91093 11.7032 4.26721 11.3196L10.7672 4.31955C11.143 3.91484 11.7757 3.89141 12.1805 4.26721Z" fill="#CDDBE4"/>
<path fill-rule="evenodd" clip-rule="evenodd" d="M4.26721 83.8195C4.64301 83.4148 5.27574 83.3914 5.68045 83.7672L11 88.7068L11 77C11 76.4477 11.4477 76 12 76C12.5523 76 13 76.4477 13 77L13 88.7068L18.3196 83.7672C18.7243 83.3914 19.357 83.4148 19.7328 83.8195C20.1086 84.2243 20.0852 84.857 19.6805 85.2328L12.6805 91.7328C12.2968 92.0891 11.7032 92.0891 11.3196 91.7328L4.31955 85.2328C3.91484 84.857 3.89141 84.2243 4.26721 83.8195Z" fill="#CDDBE4"/>
<path fill-rule="evenodd" clip-rule="evenodd" d="M19.7328 60.1805C19.357 60.5852 18.7243 60.6086 18.3195 60.2328L13 55.2932L13 67C13 67.5523 12.5523 68 12 68C11.4477 68 11 67.5523 11 67L11 55.2932L5.68045 60.2328C5.27574 60.6086 4.643 60.5852 4.2672 60.1805C3.8914 59.7757 3.91483 59.143 4.31954 58.7672L11.3195 52.2672C11.7032 51.9109 12.2968 51.9109 12.6804 52.2672L19.6804 58.7672C20.0852 59.143 20.1086 59.7757 19.7328 60.1805Z" fill="#CDDBE4"/>
<path fill-rule="evenodd" clip-rule="evenodd" d="M11.8195 43.7328C11.4148 43.357 11.3914 42.7243 11.7672 42.3195L16.7068 37L5 37C4.44772 37 4 36.5523 4 36C4 35.4477 4.44772 35 5 35L16.7068 35L11.7672 29.6804C11.3914 29.2757 11.4148 28.643 11.8195 28.2672C12.2243 27.8914 12.857 27.9148 13.2328 28.3195L19.7328 35.3195C20.0891 35.7032 20.0891 36.2968 19.7328 36.6804L13.2328 43.6804C12.857 44.0852 12.2243 44.1086 11.8195 43.7328Z" fill="#CDDBE4"/>
<path fill-rule="evenodd" clip-rule="evenodd" d="M134.351 29.1556C134.032 29.1025 133.708 29.2065 133.479 29.4349L131.793 31.1213C131.605 31.3089 131.5 31.5632 131.5 31.8284V34.5576C131.5 35.1211 131.262 35.6585 130.845 36.0375L126 40.4424V42.5H127.5V41.5C127.5 40.9477 127.948 40.5 128.5 40.5H129.5V39.5C129.5 38.9477 129.948 38.5 130.5 38.5H132.086L133 37.5858C133.375 37.2107 133.884 37 134.414 37H136.672C136.937 37 137.191 36.8947 137.379 36.7071L139.065 35.0207C139.293 34.7923 139.397 34.4677 139.344 34.1492L139.218 33.3918C138.867 31.2844 137.216 29.6331 135.108 29.2818L134.351 29.1556ZM129.5 42.5V43.5C129.5 44.0523 129.052 44.5 128.5 44.5H125C124.448 44.5 124 44.0523 124 43.5V40C124 39.7183 124.119 39.4496 124.327 39.2601L129.5 34.5576V31.8284C129.5 31.0328 129.816 30.2697 130.379 29.7071L132.065 28.0207C132.75 27.3356 133.724 27.0235 134.68 27.1828L135.437 27.309C138.387 27.8008 140.699 30.1127 141.191 33.063L141.317 33.8204C141.476 34.776 141.164 35.7498 140.479 36.4349L138.793 38.1213C138.23 38.6839 137.467 39 136.672 39H134.414L133.207 40.2071C133.02 40.3947 132.765 40.5 132.5 40.5H131.5V41.5C131.5 42.0523 131.052 42.5 130.5 42.5H129.5Z" fill="#CDDBE4"/>
<path d="M137 33C137 33.8284 136.328 34.5 135.5 34.5C134.672 34.5 134 33.8284 134 33C134 32.1716 134.672 31.5 135.5 31.5C136.328 31.5 137 32.1716 137 33Z" fill="#CDDBE4"/>
<path fill-rule="evenodd" clip-rule="evenodd" d="M125.118 56.2485C125.811 53.2221 128.689 51 132 51C135.888 51 139 54.3635 139 58V58.1501C141.276 58.6965 143 60.5142 143 63C143 64.3832 142.547 65.6473 141.649 66.571C140.746 67.499 139.475 68 138 68H136C135.448 68 135 67.5523 135 67C135 66.4477 135.448 66 136 66H138C139.011 66 139.739 65.666 140.215 65.1765C140.695 64.6826 141 63.9468 141 63C141 61.4112 139.785 60.1562 137.915 59.9964C137.397 59.9521 137 59.5193 137 59V58C137 55.4233 134.739 53 132 53C129.382 53 127.272 54.8703 126.992 57.123C126.944 57.5175 126.666 57.8456 126.285 57.9587C124.301 58.5475 123 60.2411 123 62C123 64.1224 125.048 66 128 66C128.552 66 129 66.4477 129 67C129 67.5523 128.552 68 128 68C124.325 68 121 65.573 121 62C121 59.449 122.709 57.2085 125.118 56.2485Z" fill="#CDDBE4"/>
<path fill-rule="evenodd" clip-rule="evenodd" d="M128.293 62.7071C127.902 62.3166 127.902 61.6834 128.293 61.2929L131.293 58.2929C131.683 57.9024 132.317 57.9024 132.707 58.2929L135.707 61.2929C136.098 61.6834 136.098 62.3166 135.707 62.7071C135.317 63.0976 134.683 63.0976 134.293 62.7071L133 61.4142L133 68C133 68.5523 132.552 69 132 69C131.448 69 131 68.5523 131 68L131 61.4142L129.707 62.7071C129.317 63.0976 128.683 63.0976 128.293 62.7071Z" fill="#CDDBE4"/>
<path fill-rule="evenodd" clip-rule="evenodd" d="M11.2929 100.293C11.6834 99.9024 12.3166 99.9024 12.7071 100.293L16.7071 104.293C17.0976 104.683 17.0976 105.317 16.7071 105.707C16.3166 106.098 15.6834 106.098 15.2929 105.707L12 102.414L8.70711 105.707C8.31658 106.098 7.68342 106.098 7.29289 105.707C6.90237 105.317 6.90237 104.683 7.29289 104.293L11.2929 100.293ZM7.29289 110.293C7.68342 109.902 8.31658 109.902 8.70711 110.293L12 113.586L15.2929 110.293C15.6834 109.902 16.3166 109.902 16.7071 110.293C17.0976 110.683 17.0976 111.317 16.7071 111.707L12.7071 115.707C12.5196 115.895 12.2652 116 12 116C11.7348 116 11.4804 115.895 11.2929 115.707L7.29289 111.707C6.90237 111.317 6.90237 110.683 7.29289 110.293Z" fill="#CDDBE4"/>
</svg>
