<?xml version="1.0" encoding="utf-8"?>
<!-- Generator: Adobe Illustrator 24.1.0, SVG Export Plug-In . SVG Version: 6.00 Build 0)  -->
<svg version="1.1" id="Camada_1" xmlns="http://www.w3.org/2000/svg" xmlns:xlink="http://www.w3.org/1999/xlink" x="0px" y="0px"
	 viewBox="0 0 24 24" style="enable-background:new 0 0 24 24;" xml:space="preserve">
<style type="text/css">
	.st0{fill:#FFFFFF;}
</style>
<path class="st0" d="M17.5,11.3c0.3-0.2,0.4-0.5,0.3-0.9c-0.1-0.3-0.4-0.6-0.8-0.5l-2.7,0.3c-0.5,0.1-1-0.3-1.1-0.8l-0.5-2.8
	C12.7,6.3,12.3,6,12,6s-0.7,0.3-0.7,0.6l-0.5,2.8c-0.1,0.5-0.6,0.9-1.1,0.8L7,9.9c-0.4,0-0.7,0.2-0.8,0.5c-0.1,0.3,0,0.7,0.3,0.9
	l2.4,1.4C9.4,13,9.5,13.5,9.3,14l-1.2,2.8c-0.1,0.3,0,0.7,0.2,0.9c0.3,0.2,0.7,0.2,0.9-0.1l2-1.9c0.4-0.4,1-0.4,1.4,0l2,1.9
	c0.3,0.2,0.6,0.3,0.9,0.1c0.3-0.2,0.4-0.6,0.3-0.9L14.6,14c-0.2-0.5,0-1,0.4-1.3L17.5,11.3z"/>
</svg>
