<svg width="496" height="502" viewBox="0 0 496 502" fill="none" xmlns="http://www.w3.org/2000/svg">
<rect x="160" y="157" width="40" height="40" transform="rotate(90 160 157)" fill="#935FD3"/>
<rect x="200" y="157" width="40" height="40" transform="rotate(90 200 157)" fill="#C7A3F5"/>
<rect x="240" y="157" width="40" height="40" transform="rotate(90 240 157)" fill="#E3D1FA"/>
<rect x="280" y="157" width="40" height="40" transform="rotate(90 280 157)" fill="#F7F0FF"/>
<rect x="40" y="157" width="40" height="40" transform="rotate(90 40 157)" fill="#201230"/>
<rect x="120" y="157" width="40" height="40" transform="rotate(90 120 157)" fill="#5A3489"/>
<rect x="80" y="157" width="40" height="40" transform="rotate(90 80 157)" fill="#3D235C"/>
<path d="M308 179.396C308 177.524 306.768 176.164 304.032 176.164C304.016 176.164 301.264 176.164 301.264 176.164V186.164H302.624V182.852L303.936 182.836C306.432 182.804 308 181.652 308 179.396ZM306.624 179.46C306.624 180.756 305.76 181.508 304.08 181.54L302.624 181.572V177.428C302.624 177.428 303.952 177.428 303.968 177.428C305.744 177.428 306.624 178.116 306.624 179.46ZM309.666 178.836V183.876C309.666 185.46 310.546 186.404 311.954 186.404C312.882 186.404 313.746 186.004 314.418 185.332C314.418 185.412 314.418 186.404 314.418 186.404L315.73 186.196V178.836H314.418V184.34C314.002 184.74 313.266 185.14 312.418 185.14C311.458 185.14 310.978 184.708 310.978 183.444V178.836H309.666ZM319.307 181.38C319.851 180.372 320.523 179.86 321.227 179.86C321.595 179.86 321.995 179.956 322.395 180.196L322.731 178.964C322.347 178.724 321.851 178.596 321.355 178.596C320.427 178.596 319.819 179.076 319.307 179.892V178.596L317.995 178.804V186.164H319.307V181.38ZM325.401 179.508C325.401 179.428 325.401 178.596 325.401 178.596L324.089 178.804V189.892H325.401V186.212C325.865 186.34 326.553 186.404 326.985 186.404C329.177 186.404 330.713 184.692 330.713 182.468C330.713 180.26 329.513 178.596 327.449 178.596C326.585 178.596 325.929 179.012 325.401 179.508ZM325.401 180.516C325.897 180.084 326.489 179.812 327.177 179.812C328.537 179.812 329.353 180.884 329.353 182.5C329.353 184.004 328.521 185.22 327.033 185.22C326.393 185.22 325.833 185.044 325.401 184.692C325.401 184.692 325.401 180.436 325.401 180.516ZM333.823 186.164V175.172L332.511 175.38V186.164H333.823ZM336.937 182.66C336.937 182.66 341.849 182.628 341.865 182.628C341.961 182.308 342.025 181.86 342.025 181.46C342.025 179.716 341.001 178.596 339.225 178.596C337.177 178.596 335.609 180.212 335.609 182.58C335.609 184.82 337.113 186.404 339.321 186.404C340.249 186.404 341.129 186.196 341.785 185.796L341.545 184.58C340.953 184.98 340.121 185.188 339.353 185.188C337.945 185.188 336.985 184.164 336.937 182.724V182.66ZM337.001 181.7C337.113 180.74 337.849 179.748 339.097 179.748C340.249 179.748 340.761 180.468 340.761 181.556V181.668L337.001 181.7Z" fill="#2E3942"/>
<path d="M4.914 143.912C3.528 143.912 2.178 143.462 1.062 142.868L0.522 145.244C1.566 145.838 3.186 146.27 4.86 146.27C7.812 146.27 9.468 144.758 9.468 142.616C9.468 140.474 7.668 139.682 5.94 139.214C4.59 138.836 3.564 138.548 3.564 137.81C3.564 137.198 4.05 136.856 5.04 136.856C6.156 136.856 7.56 137.252 8.676 137.846L9.234 135.488C8.154 134.894 6.786 134.498 5.022 134.498C2.232 134.498 0.702 135.884 0.702 137.972C0.702 140.222 2.682 140.978 4.32 141.428C5.814 141.842 6.624 142.094 6.624 142.85C6.624 143.534 5.922 143.912 4.914 143.912ZM21.1762 141.41C21.1762 141.356 21.1762 134.75 21.1762 134.75H18.3322C18.3322 134.75 18.3322 141.428 18.3322 141.392C18.3322 143.138 17.6302 143.858 16.2802 143.858C14.7862 143.858 14.1022 142.976 14.1022 141.284V134.75H11.2582V141.662C11.2582 144.83 13.2742 146.27 16.2082 146.27C19.2322 146.27 21.1762 144.668 21.1762 141.41ZM32.3879 138.656C32.3879 136.334 30.7319 134.75 27.5819 134.75C27.5639 134.75 23.4239 134.75 23.4239 134.75V146H26.2859V142.742L27.3839 142.724C30.6059 142.724 32.3879 141.284 32.3879 138.656ZM29.5439 138.728C29.5439 139.862 28.8419 140.492 27.3659 140.51L26.2139 140.528V137.018C26.2139 137.018 27.0959 137.018 27.3659 137.018C28.8059 137.018 29.5439 137.594 29.5439 138.728ZM43.0754 138.656C43.0754 136.334 41.4194 134.75 38.2694 134.75C38.2514 134.75 34.1114 134.75 34.1114 134.75V146H36.9734V142.742L38.0714 142.724C41.2934 142.724 43.0754 141.284 43.0754 138.656ZM40.2314 138.728C40.2314 139.862 39.5294 140.492 38.0534 140.51L36.9014 140.528V137.018C36.9014 137.018 37.7834 137.018 38.0534 137.018C39.4934 137.018 40.2314 137.594 40.2314 138.728ZM56.1209 140.33C56.1209 136.532 53.5829 134.48 50.2349 134.48C46.8869 134.48 44.3309 136.838 44.3309 140.402C44.3309 144.2 46.8689 146.27 50.1989 146.27C53.5469 146.27 56.1209 143.894 56.1209 140.33ZM53.2409 140.402C53.2409 142.508 52.1429 143.966 50.2529 143.966C48.3269 143.966 47.2109 142.49 47.2109 140.33C47.2109 138.224 48.2909 136.784 50.1989 136.784C52.1069 136.784 53.2409 138.242 53.2409 140.402ZM60.8621 142.328L62.1761 142.22L64.4261 146H67.6481L64.7681 141.554C66.2801 140.978 67.0721 139.826 67.0721 138.314C67.0721 136.136 65.5061 134.75 62.5181 134.75C62.6261 134.75 58.0001 134.75 58.0001 134.75V146H60.8621V142.328ZM60.8081 140.204V137.018C60.8081 137.018 61.9601 137.018 62.0141 137.018C63.4541 137.018 64.1381 137.504 64.1381 138.494C64.1381 139.574 63.4721 140.078 62.2481 140.168L60.8081 140.204ZM77.8517 137.144V134.75H67.8257V137.144H71.4077V146H74.2697V137.144H77.8517ZM92.8475 135.326C91.8215 134.822 90.4895 134.48 89.1215 134.48C85.4135 134.48 83.0555 136.784 83.0555 140.42C83.0555 144.2 85.4315 146.27 89.0315 146.27C90.3455 146.27 91.8395 145.946 92.7215 145.46L92.1275 142.922C91.2815 143.48 90.2555 143.84 89.1575 143.84C87.1235 143.84 85.9355 142.49 85.9355 140.348C85.9355 138.224 87.1955 136.91 89.1395 136.91C90.1475 136.91 91.1375 137.216 91.9835 137.72L92.8475 135.326ZM105.551 140.33C105.551 136.532 103.013 134.48 99.6646 134.48C96.3166 134.48 93.7606 136.838 93.7606 140.402C93.7606 144.2 96.2986 146.27 99.6286 146.27C102.977 146.27 105.551 143.894 105.551 140.33ZM102.671 140.402C102.671 142.508 101.573 143.966 99.6826 143.966C97.7566 143.966 96.6406 142.49 96.6406 140.33C96.6406 138.224 97.7206 136.784 99.6286 136.784C101.537 136.784 102.671 138.242 102.671 140.402ZM115.008 146V143.606H110.292V134.75H107.43V146H115.008ZM127.365 140.33C127.365 136.532 124.827 134.48 121.479 134.48C118.131 134.48 115.575 136.838 115.575 140.402C115.575 144.2 118.113 146.27 121.443 146.27C124.791 146.27 127.365 143.894 127.365 140.33ZM124.485 140.402C124.485 142.508 123.387 143.966 121.497 143.966C119.571 143.966 118.455 142.49 118.455 140.33C118.455 138.224 119.535 136.784 121.443 136.784C123.351 136.784 124.485 138.242 124.485 140.402ZM132.106 142.328L133.42 142.22L135.67 146H138.892L136.012 141.554C137.524 140.978 138.316 139.826 138.316 138.314C138.316 136.136 136.75 134.75 133.762 134.75C133.87 134.75 129.244 134.75 129.244 134.75V146H132.106V142.328ZM132.052 140.204V137.018C132.052 137.018 133.204 137.018 133.258 137.018C134.698 137.018 135.382 137.504 135.382 138.494C135.382 139.574 134.716 140.078 133.492 140.168L132.052 140.204ZM148.193 143.912C146.807 143.912 145.457 143.462 144.341 142.868L143.801 145.244C144.845 145.838 146.465 146.27 148.139 146.27C151.091 146.27 152.747 144.758 152.747 142.616C152.747 140.474 150.947 139.682 149.219 139.214C147.869 138.836 146.843 138.548 146.843 137.81C146.843 137.198 147.329 136.856 148.319 136.856C149.435 136.856 150.839 137.252 151.955 137.846L152.513 135.488C151.433 134.894 150.065 134.498 148.301 134.498C145.511 134.498 143.981 135.884 143.981 137.972C143.981 140.222 145.961 140.978 147.599 141.428C149.093 141.842 149.903 142.094 149.903 142.85C149.903 143.534 149.201 143.912 148.193 143.912ZM163.58 137.144V134.75H153.554V137.144H157.136V146H159.998V137.144H163.58ZM170.405 134.75H166.823L162.827 146H165.671L166.481 143.606H170.657L171.485 146H174.329L170.405 134.75ZM170.027 141.374H167.093L168.587 136.964L170.027 141.374ZM184.535 135.326C183.509 134.822 182.177 134.48 180.809 134.48C177.101 134.48 174.743 136.784 174.743 140.42C174.743 144.2 177.119 146.27 180.719 146.27C182.033 146.27 183.527 145.946 184.409 145.46L183.815 142.922C182.969 143.48 181.943 143.84 180.845 143.84C178.811 143.84 177.623 142.49 177.623 140.348C177.623 138.224 178.883 136.91 180.827 136.91C181.835 136.91 182.825 137.216 183.671 137.72L184.535 135.326ZM189.112 139.718V134.75H186.25V146H189.112C189.112 146 189.112 141.374 189.112 141.05H189.13L192.838 146H196.258L191.704 140.24L196.15 134.75H192.874L189.13 139.718H189.112Z" fill="#576975"/>
<rect x="40" y="245" width="40" height="40" transform="rotate(90 40 245)" fill="#38210A"/>
<rect x="80" y="245" width="40" height="40" transform="rotate(90 80 245)" fill="#663F19"/>
<rect x="120" y="245" width="40" height="40" transform="rotate(90 120 245)" fill="#935E25"/>
<path d="M7.614 222.75H4.032L0.036 234H2.88L3.69 231.606H7.866L8.694 234H11.538L7.614 222.75ZM7.236 229.374H4.302L5.796 224.964L7.236 229.374ZM23.1764 228.294C23.1764 224.946 20.9264 222.75 16.9664 222.75C16.1924 222.75 12.7364 222.75 12.7364 222.75V234C12.7364 234 16.7144 234 16.7684 234C20.8904 234 23.1764 231.75 23.1764 228.294ZM20.2964 228.402C20.2964 230.652 19.0004 231.714 16.9304 231.714H15.5984V225.036H16.7864C19.1264 225.036 20.2964 226.08 20.2964 228.402ZM35.4284 228.294C35.4284 224.946 33.1784 222.75 29.2184 222.75C28.4444 222.75 24.9884 222.75 24.9884 222.75V234C24.9884 234 28.9664 234 29.0204 234C33.1424 234 35.4284 231.75 35.4284 228.294ZM32.5484 228.402C32.5484 230.652 31.2524 231.714 29.1824 231.714H27.8504V225.036H29.0384C31.3784 225.036 32.5484 226.08 32.5484 228.402ZM40.1203 234V222.75H37.2583V234H40.1203ZM51.7482 225.144V222.75H41.7222V225.144H45.3042V234H48.1662V225.144H51.7482ZM56.2043 234V222.75H53.3423V234H56.2043ZM69.9022 228.33C69.9022 224.532 67.3642 222.48 64.0162 222.48C60.6682 222.48 58.1122 224.838 58.1122 228.402C58.1122 232.2 60.6502 234.27 63.9802 234.27C67.3282 234.27 69.9022 231.894 69.9022 228.33ZM67.0222 228.402C67.0222 230.508 65.9242 231.966 64.0342 231.966C62.1082 231.966 60.9922 230.49 60.9922 228.33C60.9922 226.224 62.0722 224.784 63.9802 224.784C65.8882 224.784 67.0222 226.242 67.0222 228.402ZM79.5573 230.058L74.8773 222.75H71.7813V234H74.4633V226.71L79.1973 234.108H82.2393V222.75H79.5573V230.058ZM91.0222 222.75H87.4402L83.4442 234H86.2882L87.0982 231.606H91.2742L92.1022 234H94.9462L91.0222 222.75ZM90.6442 229.374H87.7102L89.2042 224.964L90.6442 229.374ZM103.723 234V231.606H99.0066V222.75H96.1446V234H103.723ZM118.916 223.326C117.89 222.822 116.558 222.48 115.19 222.48C111.482 222.48 109.124 224.784 109.124 228.42C109.124 232.2 111.5 234.27 115.1 234.27C116.414 234.27 117.908 233.946 118.79 233.46L118.196 230.922C117.35 231.48 116.324 231.84 115.226 231.84C113.192 231.84 112.004 230.49 112.004 228.348C112.004 226.224 113.264 224.91 115.208 224.91C116.216 224.91 117.206 225.216 118.052 225.72L118.916 223.326ZM131.619 228.33C131.619 224.532 129.081 222.48 125.733 222.48C122.385 222.48 119.829 224.838 119.829 228.402C119.829 232.2 122.367 234.27 125.697 234.27C129.045 234.27 131.619 231.894 131.619 228.33ZM128.739 228.402C128.739 230.508 127.641 231.966 125.751 231.966C123.825 231.966 122.709 230.49 122.709 228.33C122.709 226.224 123.789 224.784 125.697 224.784C127.605 224.784 128.739 226.242 128.739 228.402ZM141.076 234V231.606H136.36V222.75H133.498V234H141.076ZM153.433 228.33C153.433 224.532 150.895 222.48 147.547 222.48C144.199 222.48 141.643 224.838 141.643 228.402C141.643 232.2 144.181 234.27 147.511 234.27C150.859 234.27 153.433 231.894 153.433 228.33ZM150.553 228.402C150.553 230.508 149.455 231.966 147.565 231.966C145.639 231.966 144.523 230.49 144.523 228.33C144.523 226.224 145.603 224.784 147.511 224.784C149.419 224.784 150.553 226.242 150.553 228.402ZM158.175 230.328L159.489 230.22L161.739 234H164.961L162.081 229.554C163.593 228.978 164.385 227.826 164.385 226.314C164.385 224.136 162.819 222.75 159.831 222.75C159.939 222.75 155.313 222.75 155.313 222.75V234H158.175V230.328ZM158.121 228.204V225.018C158.121 225.018 159.273 225.018 159.327 225.018C160.767 225.018 161.451 225.504 161.451 226.494C161.451 227.574 160.785 228.078 159.561 228.168L158.121 228.204ZM174.262 231.912C172.876 231.912 171.526 231.462 170.41 230.868L169.87 233.244C170.914 233.838 172.534 234.27 174.208 234.27C177.16 234.27 178.816 232.758 178.816 230.616C178.816 228.474 177.016 227.682 175.288 227.214C173.938 226.836 172.912 226.548 172.912 225.81C172.912 225.198 173.398 224.856 174.388 224.856C175.504 224.856 176.908 225.252 178.024 225.846L178.582 223.488C177.502 222.894 176.134 222.498 174.37 222.498C171.58 222.498 170.05 223.884 170.05 225.972C170.05 228.222 172.03 228.978 173.668 229.428C175.162 229.842 175.972 230.094 175.972 230.85C175.972 231.534 175.27 231.912 174.262 231.912ZM189.649 225.144V222.75H179.623V225.144H183.205V234H186.067V225.144H189.649ZM196.473 222.75H192.891L188.895 234H191.739L192.549 231.606H196.725L197.553 234H200.397L196.473 222.75ZM196.095 229.374H193.161L194.655 224.964L196.095 229.374ZM210.603 223.326C209.577 222.822 208.245 222.48 206.877 222.48C203.169 222.48 200.811 224.784 200.811 228.42C200.811 232.2 203.187 234.27 206.787 234.27C208.101 234.27 209.595 233.946 210.477 233.46L209.883 230.922C209.037 231.48 208.011 231.84 206.913 231.84C204.879 231.84 203.691 230.49 203.691 228.348C203.691 226.224 204.951 224.91 206.895 224.91C207.903 224.91 208.893 225.216 209.739 225.72L210.603 223.326ZM215.18 227.718V222.75H212.318V234H215.18C215.18 234 215.18 229.374 215.18 229.05H215.198L218.906 234H222.326L217.772 228.24L222.218 222.75H218.942L215.198 227.718H215.18Z" fill="#576975"/>
<path d="M309.984 274H311.36L311.04 264H309.264L306.208 272.224L303.136 264H301.328L300.992 274H302.32L302.432 265.664L305.488 273.856H306.848L309.888 265.68L309.984 274ZM313.431 266.672V271.712C313.431 273.296 314.311 274.24 315.719 274.24C316.647 274.24 317.511 273.84 318.183 273.168C318.183 273.248 318.183 274.24 318.183 274.24L319.495 274.032V266.672H318.183V272.176C317.767 272.576 317.031 272.976 316.183 272.976C315.223 272.976 314.743 272.544 314.743 271.28V266.672H313.431ZM326.449 271.92C326.449 270.528 325.297 270.016 324.225 269.728C323.313 269.488 322.529 269.248 322.529 268.544C322.529 267.952 323.041 267.632 323.825 267.632C324.433 267.632 325.313 267.84 325.921 268.176L326.257 266.976C325.585 266.64 324.737 266.432 323.889 266.432C322.417 266.432 321.265 267.296 321.265 268.656C321.265 270 322.401 270.512 323.441 270.8C324.305 271.04 325.169 271.28 325.169 272.016C325.169 272.672 324.545 273.056 323.713 273.056C322.961 273.056 322.065 272.784 321.457 272.368L321.121 273.568C321.793 273.984 322.785 274.256 323.681 274.256C325.281 274.256 326.449 273.312 326.449 271.92ZM332.039 273.92C332.039 273.92 331.815 272.768 331.799 272.768C331.367 272.928 330.919 273.04 330.471 273.04C329.815 273.04 329.495 272.688 329.511 272L329.623 267.856H331.911L331.959 266.672H329.671L329.719 264.992H328.455L328.423 266.576L327.207 266.944L327.159 267.776L328.375 267.856L328.263 271.952C328.215 273.552 328.967 274.24 330.391 274.24C330.935 274.24 331.495 274.128 332.039 273.92ZM337.365 272.336C336.949 272.784 336.357 273.12 335.685 273.12C334.885 273.12 334.389 272.64 334.389 271.984C334.389 271.088 335.189 270.64 337.365 270.352V272.336ZM337.413 273.216C337.605 273.856 338.133 274.272 339.317 274.176L339.397 273.072C338.757 273.072 338.677 272.96 338.677 272.352V269.28C338.709 267.28 337.829 266.432 335.845 266.432C334.805 266.432 333.733 266.832 333.093 267.28L333.349 268.464C334.037 268 334.965 267.648 335.717 267.648C336.901 267.648 337.365 268.128 337.365 269.312V269.52C333.941 269.68 332.997 270.832 332.997 272.144C332.997 273.328 333.957 274.24 335.333 274.24C336.117 274.24 336.789 273.872 337.349 273.216H337.413ZM342.136 269.216C342.68 268.208 343.352 267.696 344.056 267.696C344.424 267.696 344.824 267.792 345.224 268.032L345.56 266.8C345.176 266.56 344.68 266.432 344.184 266.432C343.256 266.432 342.648 266.912 342.136 267.728V266.432L340.824 266.64V274H342.136V269.216ZM351.593 266.672C351.129 266.528 350.537 266.432 350.009 266.432C347.817 266.432 346.281 268.144 346.281 270.368C346.281 272.576 347.481 274.24 349.545 274.24C350.409 274.24 351.065 273.824 351.593 273.328C351.593 273.408 351.593 274 351.593 274H352.905V263.008L351.593 263.216V266.672ZM351.593 268.144C351.593 268.144 351.593 272.4 351.593 272.32C351.097 272.752 350.505 273.024 349.817 273.024C348.457 273.024 347.641 271.952 347.641 270.336C347.641 268.832 348.473 267.616 349.961 267.616C350.601 267.616 351.161 267.792 351.593 268.144Z" fill="#2E3942"/>
<rect x="160" y="245" width="40" height="40" transform="rotate(90 160 245)" fill="#E9A449"/>
<rect x="200" y="245" width="40" height="40" transform="rotate(90 200 245)" fill="#FFC978"/>
<rect x="240" y="245" width="40" height="40" transform="rotate(90 240 245)" fill="#FCE9CF"/>
<rect x="280" y="245" width="40" height="40" transform="rotate(90 280 245)" fill="#FDF8ED"/>
<rect x="160" y="28.8658" width="40" height="40" transform="rotate(90 160 28.8658)" fill="#009699"/>
<rect x="200" y="28.8658" width="40" height="40" transform="rotate(90 200 28.8658)" fill="#54DEDC"/>
<rect x="240" y="28.8658" width="40" height="40" transform="rotate(90 240 28.8658)" fill="#A8F0F0"/>
<rect x="280" y="28.8658" width="40" height="40" transform="rotate(90 280 28.8658)" fill="#DEF7F7"/>
<rect x="40" y="28.8658" width="40" height="40" transform="rotate(90 40 28.8658)" fill="#004748"/>
<rect x="120" y="28.8658" width="40" height="40" transform="rotate(90 120 28.8658)" fill="#007B7D"/>
<rect x="80" y="28.8658" width="40" height="40" transform="rotate(90 80 28.8658)" fill="#005F61"/>
<path d="M308.656 47.28V46H300.304V47.28H303.808V56H305.152V47.28H308.656ZM309.422 52.496C309.422 52.496 314.334 52.464 314.35 52.464C314.446 52.144 314.51 51.696 314.51 51.296C314.51 49.552 313.486 48.432 311.71 48.432C309.662 48.432 308.094 50.048 308.094 52.416C308.094 54.656 309.598 56.24 311.806 56.24C312.734 56.24 313.614 56.032 314.27 55.632L314.03 54.416C313.438 54.816 312.606 55.024 311.838 55.024C310.43 55.024 309.47 54 309.422 52.56V52.496ZM309.486 51.536C309.598 50.576 310.334 49.584 311.582 49.584C312.734 49.584 313.246 50.304 313.246 51.392V51.504L309.486 51.536ZM320.021 54.336C319.605 54.784 319.013 55.12 318.341 55.12C317.541 55.12 317.045 54.64 317.045 53.984C317.045 53.088 317.845 52.64 320.021 52.352V54.336ZM320.069 55.216C320.261 55.856 320.789 56.272 321.973 56.176L322.053 55.072C321.413 55.072 321.333 54.96 321.333 54.352V51.28C321.365 49.28 320.485 48.432 318.501 48.432C317.461 48.432 316.389 48.832 315.749 49.28L316.005 50.464C316.693 50 317.621 49.648 318.373 49.648C319.557 49.648 320.021 50.128 320.021 51.312V51.52C316.597 51.68 315.653 52.832 315.653 54.144C315.653 55.328 316.613 56.24 317.989 56.24C318.773 56.24 319.445 55.872 320.005 55.216H320.069ZM324.792 56V45.008L323.48 45.216V56H324.792Z" fill="#2E3942"/>
<rect x="160" y="69" width="40" height="40" transform="rotate(90 160 69)" fill="#EC6056"/>
<rect x="200" y="69" width="40" height="40" transform="rotate(90 200 69)" fill="#FFACA4"/>
<rect x="240" y="69" width="40" height="40" transform="rotate(90 240 69)" fill="#FCD4D0"/>
<rect x="280" y="69" width="40" height="40" transform="rotate(90 280 69)" fill="#FFF1F0"/>
<rect x="40" y="69" width="40" height="40" transform="rotate(90 40 69)" fill="#751F0E"/>
<rect x="120" y="69" width="40" height="40" transform="rotate(90 120 69)" fill="#BC442F"/>
<rect x="80" y="69" width="40" height="40" transform="rotate(90 80 69)" fill="#A2331C"/>
<path d="M308.912 88.592C308.096 88.08 306.88 87.76 305.744 87.76C302.832 87.76 300.736 89.84 300.736 93.024C300.736 96.208 302.816 98.24 305.744 98.24C306.864 98.24 308.016 97.92 308.832 97.408L308.608 96.048C307.904 96.592 306.848 97.024 305.776 97.024C303.584 97.024 302.112 95.44 302.112 92.96C302.112 90.48 303.568 88.976 305.744 88.976C306.784 88.976 307.6 89.248 308.48 89.824L308.912 88.592ZM317.167 94.336C317.167 91.968 315.743 90.416 313.647 90.416C311.535 90.416 310.031 91.984 310.031 94.336C310.031 96.704 311.487 98.24 313.567 98.24C315.631 98.24 317.167 96.688 317.167 94.336ZM315.871 94.352C315.871 95.936 315.071 97.056 313.615 97.056C312.175 97.056 311.327 95.888 311.327 94.32C311.327 92.736 312.127 91.6 313.583 91.6C315.023 91.6 315.871 92.784 315.871 94.352ZM320.276 93.216C320.82 92.208 321.492 91.696 322.196 91.696C322.564 91.696 322.964 91.792 323.364 92.032L323.7 90.8C323.316 90.56 322.82 90.432 322.324 90.432C321.396 90.432 320.788 90.912 320.276 91.728V90.432L318.964 90.64V98H320.276V93.216ZM328.662 96.336C328.246 96.784 327.654 97.12 326.982 97.12C326.182 97.12 325.686 96.64 325.686 95.984C325.686 95.088 326.486 94.64 328.662 94.352V96.336ZM328.71 97.216C328.902 97.856 329.43 98.272 330.614 98.176L330.694 97.072C330.054 97.072 329.974 96.96 329.974 96.352V93.28C330.006 91.28 329.126 90.432 327.142 90.432C326.102 90.432 325.03 90.832 324.39 91.28L324.646 92.464C325.334 92 326.262 91.648 327.014 91.648C328.198 91.648 328.662 92.128 328.662 93.312V93.52C325.238 93.68 324.294 94.832 324.294 96.144C324.294 97.328 325.254 98.24 326.63 98.24C327.414 98.24 328.086 97.872 328.646 97.216H328.71ZM333.432 98V87.008L332.12 87.216V98H333.432Z" fill="#2E3942"/>
<path d="M8.74806 17V14.606H4.03206V5.75H1.17006V17H8.74806ZM21.1053 11.33C21.1053 7.532 18.5673 5.48 15.2193 5.48C11.8713 5.48 9.31534 7.838 9.31534 11.402C9.31534 15.2 11.8533 17.27 15.1833 17.27C18.5313 17.27 21.1053 14.894 21.1053 11.33ZM18.2253 11.402C18.2253 13.508 17.1273 14.966 15.2373 14.966C13.3113 14.966 12.1953 13.49 12.1953 11.33C12.1953 9.224 13.2753 7.784 15.1833 7.784C17.0913 7.784 18.2253 9.242 18.2253 11.402ZM33.0285 16.226V10.664H27.6645V12.932H30.4365V14.588C29.9685 14.786 29.2845 14.93 28.6365 14.93C26.4945 14.93 25.3605 13.598 25.3605 11.348C25.3605 9.26 26.6565 7.91 28.6725 7.91C29.7525 7.91 30.8505 8.234 31.9125 8.846L32.8125 6.452C31.7325 5.804 30.0225 5.48 28.5825 5.48C24.8925 5.48 22.5165 7.73 22.5165 11.42C22.5165 15.128 24.9645 17.27 28.5645 17.27C30.2025 17.27 31.8045 16.892 33.0285 16.226ZM46.4178 11.33C46.4178 7.532 43.8798 5.48 40.5318 5.48C37.1838 5.48 34.6278 7.838 34.6278 11.402C34.6278 15.2 37.1658 17.27 40.4958 17.27C43.8438 17.27 46.4178 14.894 46.4178 11.33ZM43.5378 11.402C43.5378 13.508 42.4398 14.966 40.5498 14.966C38.6238 14.966 37.5078 13.49 37.5078 11.33C37.5078 9.224 38.5878 7.784 40.4958 7.784C42.4038 7.784 43.5378 9.242 43.5378 11.402ZM61.7167 6.326C60.6907 5.822 59.3587 5.48 57.9907 5.48C54.2827 5.48 51.9247 7.784 51.9247 11.42C51.9247 15.2 54.3007 17.27 57.9007 17.27C59.2147 17.27 60.7087 16.946 61.5907 16.46L60.9967 13.922C60.1507 14.48 59.1247 14.84 58.0267 14.84C55.9927 14.84 54.8047 13.49 54.8047 11.348C54.8047 9.224 56.0647 7.91 58.0087 7.91C59.0167 7.91 60.0067 8.216 60.8527 8.72L61.7167 6.326ZM74.4198 11.33C74.4198 7.532 71.8818 5.48 68.5338 5.48C65.1858 5.48 62.6298 7.838 62.6298 11.402C62.6298 15.2 65.1678 17.27 68.4978 17.27C71.8458 17.27 74.4198 14.894 74.4198 11.33ZM71.5398 11.402C71.5398 13.508 70.4418 14.966 68.5518 14.966C66.6258 14.966 65.5098 13.49 65.5098 11.33C65.5098 9.224 66.5898 7.784 68.4978 7.784C70.4058 7.784 71.5398 9.242 71.5398 11.402ZM83.877 17V14.606H79.161V5.75H76.299V17H83.877ZM96.2342 11.33C96.2342 7.532 93.6962 5.48 90.3482 5.48C87.0002 5.48 84.4442 7.838 84.4442 11.402C84.4442 15.2 86.9822 17.27 90.3122 17.27C93.6602 17.27 96.2342 14.894 96.2342 11.33ZM93.3542 11.402C93.3542 13.508 92.2562 14.966 90.3662 14.966C88.4402 14.966 87.3242 13.49 87.3242 11.33C87.3242 9.224 88.4042 7.784 90.3122 7.784C92.2202 7.784 93.3542 9.242 93.3542 11.402ZM100.975 13.328L102.289 13.22L104.539 17H107.761L104.881 12.554C106.393 11.978 107.185 10.826 107.185 9.314C107.185 7.136 105.619 5.75 102.631 5.75C102.739 5.75 98.1134 5.75 98.1134 5.75V17H100.975V13.328ZM100.921 11.204V8.018C100.921 8.018 102.073 8.018 102.127 8.018C103.567 8.018 104.251 8.504 104.251 9.494C104.251 10.574 103.585 11.078 102.361 11.168L100.921 11.204ZM117.062 14.912C115.676 14.912 114.326 14.462 113.21 13.868L112.67 16.244C113.714 16.838 115.334 17.27 117.008 17.27C119.96 17.27 121.616 15.758 121.616 13.616C121.616 11.474 119.816 10.682 118.088 10.214C116.738 9.836 115.712 9.548 115.712 8.81C115.712 8.198 116.198 7.856 117.188 7.856C118.304 7.856 119.708 8.252 120.824 8.846L121.382 6.488C120.302 5.894 118.934 5.498 117.17 5.498C114.38 5.498 112.85 6.884 112.85 8.972C112.85 11.222 114.83 11.978 116.468 12.428C117.962 12.842 118.772 13.094 118.772 13.85C118.772 14.534 118.07 14.912 117.062 14.912ZM132.449 8.144V5.75H122.423V8.144H126.005V17H128.867V8.144H132.449ZM139.274 5.75H135.692L131.696 17H134.54L135.35 14.606H139.526L140.354 17H143.198L139.274 5.75ZM138.896 12.374H135.962L137.456 7.964L138.896 12.374ZM153.404 6.326C152.378 5.822 151.046 5.48 149.678 5.48C145.97 5.48 143.612 7.784 143.612 11.42C143.612 15.2 145.988 17.27 149.588 17.27C150.902 17.27 152.396 16.946 153.278 16.46L152.684 13.922C151.838 14.48 150.812 14.84 149.714 14.84C147.68 14.84 146.492 13.49 146.492 11.348C146.492 9.224 147.752 7.91 149.696 7.91C150.704 7.91 151.694 8.216 152.54 8.72L153.404 6.326ZM157.981 10.718V5.75H155.119V17H157.981C157.981 17 157.981 12.374 157.981 12.05H157.999L161.707 17H165.127L160.573 11.24L165.019 5.75H161.743L157.999 10.718H157.981ZM169.973 14.912C168.587 14.912 167.237 14.462 166.121 13.868L165.581 16.244C166.625 16.838 168.245 17.27 169.919 17.27C172.871 17.27 174.527 15.758 174.527 13.616C174.527 11.474 172.727 10.682 170.999 10.214C169.649 9.836 168.623 9.548 168.623 8.81C168.623 8.198 169.109 7.856 170.099 7.856C171.215 7.856 172.619 8.252 173.735 8.846L174.293 6.488C173.213 5.894 171.845 5.498 170.081 5.498C167.291 5.498 165.761 6.884 165.761 8.972C165.761 11.222 167.741 11.978 169.379 12.428C170.873 12.842 171.683 13.094 171.683 13.85C171.683 14.534 170.981 14.912 169.973 14.912Z" fill="#576975"/>
<rect x="40" y="422" width="40" height="40" transform="rotate(90 40 422)" fill="black" fill-opacity="0.87"/>
<rect x="160" y="422" width="40" height="40" transform="rotate(90 160 422)" fill="black" fill-opacity="0.35"/>
<rect x="80" y="422" width="40" height="40" transform="rotate(90 80 422)" fill="black" fill-opacity="0.75"/>
<rect x="200" y="422" width="40" height="40" transform="rotate(90 200 422)" fill="black" fill-opacity="0.2"/>
<rect x="120" y="422" width="40" height="40" transform="rotate(90 120 422)" fill="black" fill-opacity="0.5"/>
<rect x="240" y="422" width="40" height="40" transform="rotate(90 240 422)" fill="black" fill-opacity="0.1"/>
<path d="M266.352 441.848C267.472 441.432 268.064 440.68 268.064 439.656C268.064 438.088 266.992 437 264.576 437H261.264V447H264.672C267.248 447 268.384 445.864 268.384 444.168C268.384 443.048 267.68 442.184 266.352 441.848ZM266.704 439.768C266.704 440.744 265.92 441.384 264.48 441.384C264.48 441.384 262.64 441.384 262.624 441.384V438.248H264.688C266 438.248 266.704 438.808 266.704 439.768ZM267.024 444.184C267.024 445.224 266.288 445.752 264.8 445.752H262.624V442.616H264.592C266 442.616 267.024 443.032 267.024 444.184ZM271.511 447V436.008L270.199 436.216V447H271.511ZM277.537 445.336C277.121 445.784 276.529 446.12 275.857 446.12C275.057 446.12 274.561 445.64 274.561 444.984C274.561 444.088 275.361 443.64 277.537 443.352V445.336ZM277.585 446.216C277.777 446.856 278.305 447.272 279.489 447.176L279.569 446.072C278.929 446.072 278.849 445.96 278.849 445.352V442.28C278.881 440.28 278.001 439.432 276.017 439.432C274.977 439.432 273.905 439.832 273.265 440.28L273.521 441.464C274.209 441 275.137 440.648 275.889 440.648C277.073 440.648 277.537 441.128 277.537 442.312V442.52C274.113 442.68 273.169 443.832 273.169 445.144C273.169 446.328 274.129 447.24 275.505 447.24C276.289 447.24 276.961 446.872 277.521 446.216H277.585ZM286.531 446.632L286.291 445.416C285.699 445.816 284.947 446.024 284.179 446.024C282.803 446.024 281.875 445.016 281.875 443.32C281.875 441.672 282.707 440.648 284.211 440.648C284.947 440.648 285.635 440.84 286.243 441.256L286.579 440.056C285.907 439.64 285.155 439.432 284.211 439.432C282.067 439.432 280.515 441 280.515 443.336C280.515 445.656 281.795 447.24 284.115 447.24C285.043 447.24 285.875 447.032 286.531 446.632ZM289.636 443.384L292.66 447H294.34L290.964 443.144L294.324 439.672H292.66L289.636 443.032H289.604V436.008L288.292 436.216V447H289.604V443.384H289.636ZM301.774 447.032L303.566 441.56L305.438 447.032H306.638L308.846 439.672H307.39L306.046 445.128L304.174 439.704H302.974L301.278 445.112L299.726 439.672H298.318L300.574 447.032H301.774ZM311.687 437.112C311.687 436.616 311.415 436.168 310.823 436.168C310.231 436.168 309.959 436.616 309.959 437.112C309.959 437.608 310.231 438.056 310.823 438.056C311.415 438.056 311.687 437.608 311.687 437.112ZM311.479 447V439.432L310.167 439.64V447H311.479ZM317.601 446.92C317.601 446.92 317.377 445.768 317.361 445.768C316.929 445.928 316.481 446.04 316.033 446.04C315.377 446.04 315.057 445.688 315.073 445L315.185 440.856H317.473L317.521 439.672H315.233L315.281 437.992H314.017L313.985 439.576L312.769 439.944L312.721 440.776L313.937 440.856L313.825 444.952C313.777 446.552 314.529 447.24 315.953 447.24C316.497 447.24 317.057 447.128 317.601 446.92ZM325.231 447V441.96C325.231 440.376 324.351 439.432 322.943 439.432C322.015 439.432 321.151 439.832 320.479 440.504C320.479 440.424 320.479 436.008 320.479 436.008L319.167 436.216V447H320.479V441.496C320.895 441.096 321.631 440.696 322.479 440.696C323.439 440.696 323.919 441.128 323.919 442.392V447H325.231ZM337.73 443.336C337.73 440.968 336.306 439.416 334.21 439.416C332.098 439.416 330.594 440.984 330.594 443.336C330.594 445.704 332.049 447.24 334.13 447.24C336.194 447.24 337.73 445.688 337.73 443.336ZM336.434 443.352C336.434 444.936 335.634 446.056 334.178 446.056C332.738 446.056 331.89 444.888 331.89 443.32C331.89 441.736 332.69 440.6 334.146 440.6C335.586 440.6 336.434 441.784 336.434 443.352ZM340.839 440.344C340.839 440.264 340.839 439.432 340.839 439.432L339.527 439.64V450.728H340.839V447.048C341.303 447.176 341.991 447.24 342.423 447.24C344.615 447.24 346.151 445.528 346.151 443.304C346.151 441.096 344.951 439.432 342.887 439.432C342.023 439.432 341.367 439.848 340.839 440.344ZM340.839 441.352C341.335 440.92 341.927 440.648 342.615 440.648C343.975 440.648 344.791 441.72 344.791 443.336C344.791 444.84 343.959 446.056 342.471 446.056C341.831 446.056 341.271 445.88 340.839 445.528C340.839 445.528 340.839 441.272 340.839 441.352ZM351.709 445.336C351.293 445.784 350.701 446.12 350.029 446.12C349.229 446.12 348.733 445.64 348.733 444.984C348.733 444.088 349.533 443.64 351.709 443.352V445.336ZM351.757 446.216C351.949 446.856 352.477 447.272 353.661 447.176L353.741 446.072C353.101 446.072 353.021 445.96 353.021 445.352V442.28C353.053 440.28 352.173 439.432 350.189 439.432C349.149 439.432 348.077 439.832 347.437 440.28L347.693 441.464C348.381 441 349.309 440.648 350.061 440.648C351.245 440.648 351.709 441.128 351.709 442.312V442.52C348.285 442.68 347.34 443.832 347.34 445.144C347.34 446.328 348.301 447.24 349.677 447.24C350.461 447.24 351.133 446.872 351.693 446.216H351.757ZM360.703 446.632L360.463 445.416C359.871 445.816 359.119 446.024 358.351 446.024C356.975 446.024 356.047 445.016 356.047 443.32C356.047 441.672 356.879 440.648 358.383 440.648C359.119 440.648 359.807 440.84 360.415 441.256L360.751 440.056C360.079 439.64 359.327 439.432 358.383 439.432C356.239 439.432 354.687 441 354.687 443.336C354.687 445.656 355.967 447.24 358.287 447.24C359.215 447.24 360.047 447.032 360.703 446.632ZM363.984 437.112C363.984 436.616 363.712 436.168 363.12 436.168C362.528 436.168 362.256 436.616 362.256 437.112C362.256 437.608 362.528 438.056 363.12 438.056C363.712 438.056 363.984 437.608 363.984 437.112ZM363.776 447V439.432L362.464 439.64V447H363.776ZM369.898 446.92C369.898 446.92 369.674 445.768 369.658 445.768C369.226 445.928 368.778 446.04 368.33 446.04C367.674 446.04 367.354 445.688 367.37 445L367.482 440.856H369.77L369.818 439.672H367.53L367.578 437.992H366.314L366.282 439.576L365.066 439.944L365.018 440.776L366.234 440.856L366.122 444.952C366.074 446.552 366.826 447.24 368.25 447.24C368.794 447.24 369.354 447.128 369.898 446.92ZM377.352 439.672H375.96L373.896 445.368L371.768 439.672H370.36L373.208 446.84L372.76 447.976C372.264 449.256 371.912 449.56 371.352 449.56C370.984 449.56 370.568 449.4 370.184 449.208L369.8 450.424C370.296 450.648 370.792 450.808 371.352 450.808C372.488 450.808 373.224 450.248 373.928 448.392L374.424 447.08L377.352 439.672Z" fill="#2E3942"/>
<rect x="1" y="463" width="400" height="39" fill="black"/>
<rect x="39.5" y="462.5" width="39" height="39" transform="rotate(90 39.5 462.5)" fill="white" fill-opacity="0.87" stroke="white"/>
<rect x="159.5" y="462.5" width="39" height="39" transform="rotate(90 159.5 462.5)" fill="white" fill-opacity="0.35" stroke="white"/>
<rect x="79.5" y="462.5" width="39" height="39" transform="rotate(90 79.5 462.5)" fill="white" fill-opacity="0.75" stroke="white"/>
<rect x="199.5" y="462.5" width="39" height="39" transform="rotate(90 199.5 462.5)" fill="white" fill-opacity="0.2" stroke="white"/>
<rect x="119.5" y="462.5" width="39" height="39" transform="rotate(90 119.5 462.5)" fill="white" fill-opacity="0.5" stroke="white"/>
<rect x="239.5" y="462.5" width="39" height="39" transform="rotate(90 239.5 462.5)" fill="white" fill-opacity="0.1" stroke="white"/>
<path d="M268.2 479.68L270.68 488H272.04L274.872 478H273.544L271.416 486.144L269 478H267.432L265.08 486.144L262.92 478H261.496L264.344 488H265.672L268.2 479.68ZM282.575 488V482.96C282.575 481.376 281.695 480.432 280.287 480.432C279.359 480.432 278.495 480.832 277.823 481.504C277.823 481.424 277.823 477.008 277.823 477.008L276.511 477.216V488H277.823V482.496C278.239 482.096 278.975 481.696 279.823 481.696C280.783 481.696 281.263 482.128 281.263 483.392V488H282.575ZM286.297 478.112C286.297 477.616 286.025 477.168 285.433 477.168C284.841 477.168 284.569 477.616 284.569 478.112C284.569 478.608 284.841 479.056 285.433 479.056C286.025 479.056 286.297 478.608 286.297 478.112ZM286.089 488V480.432L284.777 480.64V488H286.089ZM292.211 487.92C292.211 487.92 291.987 486.768 291.971 486.768C291.539 486.928 291.091 487.04 290.643 487.04C289.987 487.04 289.667 486.688 289.683 486L289.795 481.856H292.083L292.131 480.672H289.843L289.891 478.992H288.627L288.595 480.576L287.379 480.944L287.331 481.776L288.547 481.856L288.435 485.952C288.387 487.552 289.139 488.24 290.563 488.24C291.107 488.24 291.667 488.128 292.211 487.92ZM294.547 484.496C294.547 484.496 299.459 484.464 299.475 484.464C299.571 484.144 299.635 483.696 299.635 483.296C299.635 481.552 298.611 480.432 296.835 480.432C294.787 480.432 293.219 482.048 293.219 484.416C293.219 486.656 294.723 488.24 296.931 488.24C297.859 488.24 298.739 488.032 299.395 487.632L299.155 486.416C298.563 486.816 297.731 487.024 296.963 487.024C295.555 487.024 294.595 486 294.547 484.56V484.496ZM294.611 483.536C294.723 482.576 295.459 481.584 296.707 481.584C297.859 481.584 298.371 482.304 298.371 483.392V483.504L294.611 483.536ZM307.571 488.032L309.363 482.56L311.235 488.032H312.435L314.643 480.672H313.187L311.843 486.128L309.971 480.704H308.771L307.075 486.112L305.523 480.672H304.115L306.371 488.032H307.571ZM317.484 478.112C317.484 477.616 317.212 477.168 316.62 477.168C316.028 477.168 315.756 477.616 315.756 478.112C315.756 478.608 316.028 479.056 316.62 479.056C317.212 479.056 317.484 478.608 317.484 478.112ZM317.276 488V480.432L315.964 480.64V488H317.276ZM323.398 487.92C323.398 487.92 323.174 486.768 323.158 486.768C322.726 486.928 322.278 487.04 321.83 487.04C321.174 487.04 320.854 486.688 320.87 486L320.982 481.856H323.27L323.318 480.672H321.03L321.078 478.992H319.814L319.782 480.576L318.566 480.944L318.518 481.776L319.734 481.856L319.622 485.952C319.574 487.552 320.326 488.24 321.75 488.24C322.294 488.24 322.854 488.128 323.398 487.92ZM331.028 488V482.96C331.028 481.376 330.148 480.432 328.74 480.432C327.812 480.432 326.948 480.832 326.276 481.504C326.276 481.424 326.276 477.008 326.276 477.008L324.964 477.216V488H326.276V482.496C326.692 482.096 327.428 481.696 328.276 481.696C329.236 481.696 329.716 482.128 329.716 483.392V488H331.028ZM343.526 484.336C343.526 481.968 342.102 480.416 340.006 480.416C337.894 480.416 336.39 481.984 336.39 484.336C336.39 486.704 337.846 488.24 339.926 488.24C341.99 488.24 343.526 486.688 343.526 484.336ZM342.23 484.352C342.23 485.936 341.43 487.056 339.974 487.056C338.534 487.056 337.686 485.888 337.686 484.32C337.686 482.736 338.486 481.6 339.942 481.6C341.382 481.6 342.23 482.784 342.23 484.352ZM346.636 481.344C346.636 481.264 346.636 480.432 346.636 480.432L345.324 480.64V491.728H346.636V488.048C347.1 488.176 347.788 488.24 348.22 488.24C350.412 488.24 351.948 486.528 351.948 484.304C351.948 482.096 350.748 480.432 348.684 480.432C347.82 480.432 347.164 480.848 346.636 481.344ZM346.636 482.352C347.132 481.92 347.724 481.648 348.411 481.648C349.772 481.648 350.588 482.72 350.588 484.336C350.588 485.84 349.756 487.056 348.268 487.056C347.628 487.056 347.068 486.88 346.636 486.528C346.636 486.528 346.636 482.272 346.636 482.352ZM357.505 486.336C357.089 486.784 356.497 487.12 355.825 487.12C355.025 487.12 354.529 486.64 354.529 485.984C354.529 485.088 355.329 484.64 357.505 484.352V486.336ZM357.553 487.216C357.745 487.856 358.273 488.272 359.457 488.176L359.537 487.072C358.897 487.072 358.817 486.96 358.817 486.352V483.28C358.849 481.28 357.969 480.432 355.985 480.432C354.945 480.432 353.873 480.832 353.233 481.28L353.489 482.464C354.177 482 355.105 481.648 355.857 481.648C357.041 481.648 357.505 482.128 357.505 483.312V483.52C354.081 483.68 353.137 484.832 353.137 486.144C353.137 487.328 354.097 488.24 355.473 488.24C356.257 488.24 356.929 487.872 357.489 487.216H357.553ZM366.5 487.632L366.26 486.416C365.668 486.816 364.916 487.024 364.148 487.024C362.772 487.024 361.844 486.016 361.844 484.32C361.844 482.672 362.676 481.648 364.18 481.648C364.916 481.648 365.604 481.84 366.212 482.256L366.548 481.056C365.876 480.64 365.124 480.432 364.18 480.432C362.036 480.432 360.484 482 360.484 484.336C360.484 486.656 361.764 488.24 364.084 488.24C365.012 488.24 365.844 488.032 366.5 487.632ZM369.781 478.112C369.781 477.616 369.509 477.168 368.917 477.168C368.325 477.168 368.053 477.616 368.053 478.112C368.053 478.608 368.325 479.056 368.917 479.056C369.509 479.056 369.781 478.608 369.781 478.112ZM369.573 488V480.432L368.261 480.64V488H369.573ZM375.695 487.92C375.695 487.92 375.471 486.768 375.455 486.768C375.023 486.928 374.575 487.04 374.127 487.04C373.471 487.04 373.151 486.688 373.167 486L373.279 481.856H375.567L375.615 480.672H373.327L373.375 478.992H372.111L372.079 480.576L370.863 480.944L370.815 481.776L372.031 481.856L371.919 485.952C371.871 487.552 372.623 488.24 374.047 488.24C374.591 488.24 375.151 488.128 375.695 487.92ZM383.149 480.672H381.757L379.693 486.368L377.565 480.672H376.157L379.005 487.84L378.557 488.976C378.061 490.256 377.709 490.56 377.149 490.56C376.781 490.56 376.365 490.4 375.981 490.208L375.597 491.424C376.093 491.648 376.589 491.808 377.149 491.808C378.285 491.808 379.021 491.248 379.725 489.392L380.221 488.08L383.149 480.672Z" fill="white"/>
<path d="M10.422 402.144V399.75H0.396V402.144H3.978V411H6.84V402.144H10.422ZM20.2241 411V408.696H14.8061V406.5H19.1621V404.214H14.8061V402.054H20.2241V399.75H11.9981V411H20.2241ZM26.7659 407.166L29.1599 411H32.4179L28.5119 405.258L32.3099 399.75H29.1239L26.8019 403.404L24.5339 399.75H21.3119L25.0739 405.366L21.2039 411H24.3359L26.7659 407.166ZM43.0294 402.144V399.75H33.0034V402.144H36.5854V411H39.4474V402.144H43.0294ZM58.0253 400.326C56.9993 399.822 55.6673 399.48 54.2993 399.48C50.5913 399.48 48.2333 401.784 48.2333 405.42C48.2333 409.2 50.6093 411.27 54.2093 411.27C55.5233 411.27 57.0173 410.946 57.8993 410.46L57.3053 407.922C56.4593 408.48 55.4333 408.84 54.3353 408.84C52.3013 408.84 51.1133 407.49 51.1133 405.348C51.1133 403.224 52.3733 401.91 54.3173 401.91C55.3253 401.91 56.3153 402.216 57.1613 402.72L58.0253 400.326ZM70.7283 405.33C70.7283 401.532 68.1903 399.48 64.8423 399.48C61.4943 399.48 58.9383 401.838 58.9383 405.402C58.9383 409.2 61.4763 411.27 64.8063 411.27C68.1543 411.27 70.7283 408.894 70.7283 405.33ZM67.8483 405.402C67.8483 407.508 66.7503 408.966 64.8603 408.966C62.9343 408.966 61.8183 407.49 61.8183 405.33C61.8183 403.224 62.8983 401.784 64.8063 401.784C66.7143 401.784 67.8483 403.242 67.8483 405.402ZM80.1855 411V408.606H75.4695V399.75H72.6075V411H80.1855ZM92.5428 405.33C92.5428 401.532 90.0048 399.48 86.6568 399.48C83.3088 399.48 80.7528 401.838 80.7528 405.402C80.7528 409.2 83.2908 411.27 86.6208 411.27C89.9688 411.27 92.5428 408.894 92.5428 405.33ZM89.6628 405.402C89.6628 407.508 88.5648 408.966 86.6748 408.966C84.7488 408.966 83.6328 407.49 83.6328 405.33C83.6328 403.224 84.7128 401.784 86.6208 401.784C88.5288 401.784 89.6628 403.242 89.6628 405.402ZM97.284 407.328L98.598 407.22L100.848 411H104.07L101.19 406.554C102.702 405.978 103.494 404.826 103.494 403.314C103.494 401.136 101.928 399.75 98.94 399.75C99.048 399.75 94.422 399.75 94.422 399.75V411H97.284V407.328ZM97.23 405.204V402.018C97.23 402.018 98.382 402.018 98.436 402.018C99.876 402.018 100.56 402.504 100.56 403.494C100.56 404.574 99.894 405.078 98.67 405.168L97.23 405.204ZM113.371 408.912C111.985 408.912 110.635 408.462 109.519 407.868L108.979 410.244C110.023 410.838 111.643 411.27 113.317 411.27C116.269 411.27 117.925 409.758 117.925 407.616C117.925 405.474 116.125 404.682 114.397 404.214C113.047 403.836 112.021 403.548 112.021 402.81C112.021 402.198 112.507 401.856 113.497 401.856C114.613 401.856 116.017 402.252 117.133 402.846L117.691 400.488C116.611 399.894 115.243 399.498 113.479 399.498C110.689 399.498 109.159 400.884 109.159 402.972C109.159 405.222 111.139 405.978 112.777 406.428C114.271 406.842 115.081 407.094 115.081 407.85C115.081 408.534 114.379 408.912 113.371 408.912ZM128.758 402.144V399.75H118.732V402.144H122.314V411H125.176V402.144H128.758ZM135.583 399.75H132.001L128.005 411H130.849L131.659 408.606H135.835L136.663 411H139.507L135.583 399.75ZM135.205 406.374H132.271L133.765 401.964L135.205 406.374ZM149.713 400.326C148.687 399.822 147.355 399.48 145.987 399.48C142.279 399.48 139.921 401.784 139.921 405.42C139.921 409.2 142.297 411.27 145.897 411.27C147.211 411.27 148.705 410.946 149.587 410.46L148.993 407.922C148.147 408.48 147.121 408.84 146.023 408.84C143.989 408.84 142.801 407.49 142.801 405.348C142.801 403.224 144.061 401.91 146.005 401.91C147.013 401.91 148.003 402.216 148.849 402.72L149.713 400.326ZM154.29 404.718V399.75H151.428V411H154.29C154.29 411 154.29 406.374 154.29 406.05H154.308L158.016 411H161.436L156.882 405.24L161.328 399.75H158.052L154.308 404.718H154.29Z" fill="#576975"/>
<path d="M8.946 318.058L4.266 310.75H1.17V322H3.852V314.71L8.586 322.108H11.628V310.75H8.946V318.058ZM22.1929 322V319.696H16.7749V317.5H21.1309V315.214H16.7749V313.054H22.1929V310.75H13.9669V322H22.1929ZM33.9906 317.41C33.9906 317.356 33.9906 310.75 33.9906 310.75H31.1466C31.1466 310.75 31.1466 317.428 31.1466 317.392C31.1466 319.138 30.4446 319.858 29.0946 319.858C27.6006 319.858 26.9166 318.976 26.9166 317.284V310.75H24.0726V317.662C24.0726 320.83 26.0886 322.27 29.0226 322.27C32.0466 322.27 33.9906 320.668 33.9906 317.41ZM45.4904 313.144V310.75H35.4644V313.144H39.0464V322H41.9084V313.144H45.4904ZM49.9285 318.328L51.2425 318.22L53.4925 322H56.7145L53.8345 317.554C55.3465 316.978 56.1385 315.826 56.1385 314.314C56.1385 312.136 54.5725 310.75 51.5845 310.75C51.6925 310.75 47.0665 310.75 47.0665 310.75V322H49.9285V318.328ZM49.8745 316.204V313.018C49.8745 313.018 51.0265 313.018 51.0805 313.018C52.5205 313.018 53.2045 313.504 53.2045 314.494C53.2045 315.574 52.5385 316.078 51.3145 316.168L49.8745 316.204ZM64.3913 310.75H60.8093L56.8133 322H59.6573L60.4673 319.606H64.6433L65.4713 322H68.3153L64.3913 310.75ZM64.0133 317.374H61.0793L62.5733 312.964L64.0133 317.374ZM77.0918 322V319.606H72.3758V310.75H69.5138V322H77.0918ZM92.285 311.326C91.259 310.822 89.927 310.48 88.559 310.48C84.851 310.48 82.493 312.784 82.493 316.42C82.493 320.2 84.869 322.27 88.469 322.27C89.783 322.27 91.277 321.946 92.159 321.46L91.565 318.922C90.719 319.48 89.693 319.84 88.595 319.84C86.561 319.84 85.373 318.49 85.373 316.348C85.373 314.224 86.633 312.91 88.577 312.91C89.585 312.91 90.575 313.216 91.421 313.72L92.285 311.326ZM104.988 316.33C104.988 312.532 102.45 310.48 99.1021 310.48C95.7541 310.48 93.1981 312.838 93.1981 316.402C93.1981 320.2 95.7361 322.27 99.0661 322.27C102.414 322.27 104.988 319.894 104.988 316.33ZM102.108 316.402C102.108 318.508 101.01 319.966 99.1201 319.966C97.1941 319.966 96.0781 318.49 96.0781 316.33C96.0781 314.224 97.1581 312.784 99.0661 312.784C100.974 312.784 102.108 314.242 102.108 316.402ZM114.445 322V319.606H109.729V310.75H106.867V322H114.445ZM126.803 316.33C126.803 312.532 124.265 310.48 120.917 310.48C117.569 310.48 115.013 312.838 115.013 316.402C115.013 320.2 117.551 322.27 120.881 322.27C124.229 322.27 126.803 319.894 126.803 316.33ZM123.923 316.402C123.923 318.508 122.825 319.966 120.935 319.966C119.009 319.966 117.893 318.49 117.893 316.33C117.893 314.224 118.973 312.784 120.881 312.784C122.789 312.784 123.923 314.242 123.923 316.402ZM131.544 318.328L132.858 318.22L135.108 322H138.33L135.45 317.554C136.962 316.978 137.754 315.826 137.754 314.314C137.754 312.136 136.188 310.75 133.2 310.75C133.308 310.75 128.682 310.75 128.682 310.75V322H131.544V318.328ZM131.49 316.204V313.018C131.49 313.018 132.642 313.018 132.696 313.018C134.136 313.018 134.82 313.504 134.82 314.494C134.82 315.574 134.154 316.078 132.93 316.168L131.49 316.204ZM147.631 319.912C146.245 319.912 144.895 319.462 143.779 318.868L143.239 321.244C144.283 321.838 145.903 322.27 147.577 322.27C150.529 322.27 152.185 320.758 152.185 318.616C152.185 316.474 150.385 315.682 148.657 315.214C147.307 314.836 146.281 314.548 146.281 313.81C146.281 313.198 146.767 312.856 147.757 312.856C148.873 312.856 150.277 313.252 151.393 313.846L151.951 311.488C150.871 310.894 149.503 310.498 147.739 310.498C144.949 310.498 143.419 311.884 143.419 313.972C143.419 316.222 145.399 316.978 147.037 317.428C148.531 317.842 149.341 318.094 149.341 318.85C149.341 319.534 148.639 319.912 147.631 319.912ZM163.018 313.144V310.75H152.992V313.144H156.574V322H159.436V313.144H163.018ZM169.843 310.75H166.261L162.265 322H165.109L165.919 319.606H170.095L170.923 322H173.767L169.843 310.75ZM169.465 317.374H166.531L168.025 312.964L169.465 317.374ZM183.973 311.326C182.947 310.822 181.615 310.48 180.247 310.48C176.539 310.48 174.181 312.784 174.181 316.42C174.181 320.2 176.557 322.27 180.157 322.27C181.471 322.27 182.965 321.946 183.847 321.46L183.253 318.922C182.407 319.48 181.381 319.84 180.283 319.84C178.249 319.84 177.061 318.49 177.061 316.348C177.061 314.224 178.321 312.91 180.265 312.91C181.273 312.91 182.263 313.216 183.109 313.72L183.973 311.326ZM188.55 315.718V310.75H185.688V322H188.55C188.55 322 188.55 317.374 188.55 317.05H188.568L192.276 322H195.696L191.142 316.24L195.588 310.75H192.312L188.568 315.718H188.55Z" fill="#576975"/>
<rect x="200" y="333.613" width="40" height="40" transform="rotate(90 200 333.613)" fill="#576975"/>
<rect x="240" y="333.613" width="40" height="40" transform="rotate(90 240 333.613)" fill="#8095A3"/>
<rect x="280" y="333.613" width="40" height="40" transform="rotate(90 280 333.613)" fill="#97AEBE"/>
<rect x="320" y="333.613" width="40" height="40" transform="rotate(90 320 333.613)" fill="#CDDBE4"/>
<rect x="360" y="333.613" width="40" height="40" transform="rotate(90 360 333.613)" fill="#E8EFF3"/>
<rect x="80" y="333.613" width="40" height="40" transform="rotate(90 80 333.613)" fill="#1B2327"/>
<rect x="160" y="333.613" width="40" height="40" transform="rotate(90 160 333.613)" fill="#414F58"/>
<rect x="120" y="333.613" width="40" height="40" transform="rotate(90 120 333.613)" fill="#2E3942"/>
<path d="M429.984 362.668H431.36L431.04 352.668H429.264L426.208 360.892L423.136 352.668H421.328L420.992 362.668H422.32L422.432 354.332L425.488 362.524H426.848L429.888 354.348L429.984 362.668ZM435.015 352.78C435.015 352.284 434.743 351.836 434.151 351.836C433.559 351.836 433.287 352.284 433.287 352.78C433.287 353.276 433.559 353.724 434.151 353.724C434.743 353.724 435.015 353.276 435.015 352.78ZM434.807 362.668V355.1L433.495 355.308V362.668H434.807ZM443.138 362.668V357.628C443.138 356.044 442.258 355.1 440.77 355.1C439.922 355.1 439.058 355.532 438.386 356.204V355.1L437.074 355.308V362.668H438.386V357.164C438.802 356.764 439.538 356.364 440.306 356.364C441.346 356.364 441.826 356.796 441.826 358.06V362.668H443.138ZM446.187 359.164C446.187 359.164 451.099 359.132 451.115 359.132C451.211 358.812 451.275 358.364 451.275 357.964C451.275 356.22 450.251 355.1 448.475 355.1C446.427 355.1 444.859 356.716 444.859 359.084C444.859 361.324 446.363 362.908 448.571 362.908C449.499 362.908 450.379 362.7 451.035 362.3L450.795 361.084C450.203 361.484 449.371 361.692 448.603 361.692C447.195 361.692 446.235 360.668 446.187 359.228V359.164ZM446.251 358.204C446.363 357.244 447.099 356.252 448.347 356.252C449.499 356.252 450.011 356.972 450.011 358.06V358.172L446.251 358.204ZM454.339 357.884C454.883 356.876 455.555 356.364 456.259 356.364C456.627 356.364 457.027 356.46 457.427 356.7L457.763 355.468C457.379 355.228 456.883 355.1 456.387 355.1C455.459 355.1 454.851 355.58 454.339 356.396V355.1L453.027 355.308V362.668H454.339V357.884ZM462.724 361.004C462.308 361.452 461.716 361.788 461.044 361.788C460.244 361.788 459.748 361.308 459.748 360.652C459.748 359.756 460.548 359.308 462.724 359.02V361.004ZM462.772 361.884C462.964 362.524 463.492 362.94 464.676 362.844L464.756 361.74C464.116 361.74 464.036 361.628 464.036 361.02V357.948C464.068 355.948 463.188 355.1 461.204 355.1C460.164 355.1 459.092 355.5 458.452 355.948L458.708 357.132C459.396 356.668 460.324 356.316 461.076 356.316C462.26 356.316 462.724 356.796 462.724 357.98V358.188C459.3 358.348 458.356 359.5 458.356 360.812C458.356 361.996 459.316 362.908 460.692 362.908C461.476 362.908 462.148 362.54 462.708 361.884H462.772ZM467.495 362.668V351.676L466.183 351.884V362.668H467.495Z" fill="#2E3942"/>
<rect x="399.5" y="334.113" width="39" height="39" transform="rotate(90 399.5 334.113)" fill="white" stroke="#E8EFF3"/>
<rect x="40" y="333.613" width="40" height="40" transform="rotate(90 40 333.613)" fill="black"/>
</svg>
