<svg width="522" height="428" viewBox="0 0 522 428" fill="none" xmlns="http://www.w3.org/2000/svg">
<rect x="124" y="307" width="121" height="121" transform="rotate(90 124 307)" fill="#E8EFF3"/>
<path d="M28.4244 417.157L27.5204 405.388H24.7061L21.7383 414.274L18.7535 405.388H15.888L14.984 417.157H17.0137L17.6107 408.561L20.5956 417.191H22.5741L25.5419 408.561L26.173 417.157H28.4244ZM32.6976 406.377C32.6976 405.678 32.1518 405.183 31.4866 405.183C30.8043 405.183 30.2585 405.678 30.2585 406.377C30.2585 407.06 30.8043 407.537 31.4866 407.537C32.1518 407.537 32.6976 407.06 32.6976 406.377ZM32.4929 417.157V408.919H30.4461V417.157H32.4929ZM41.6855 417.157V411.221C41.6855 409.686 40.8668 408.748 39.3317 408.748C38.223 408.748 37.3532 409.345 36.5856 410.079L36.398 408.919H34.6583V417.157H36.705V411.597C37.302 410.966 37.9331 410.556 38.5812 410.556C39.3317 410.556 39.6387 411.051 39.6387 411.767V417.157H41.6855ZM50.6439 412.944C50.6439 410.607 49.5353 408.748 47.0621 408.748C44.913 408.748 43.3097 410.369 43.3097 413.046C43.3097 416.014 45.0324 417.328 47.335 417.328C48.6654 417.328 49.74 416.935 50.6269 416.321L50.3881 414.718C49.4841 415.349 48.6142 415.741 47.5567 415.741C46.2946 415.741 45.4418 415.042 45.3394 413.439H50.6269C50.6269 413.319 50.6439 413.115 50.6439 412.944ZM48.6484 412.159H45.3735C45.527 410.812 46.1922 410.164 47.0109 410.164C48.0002 410.164 48.5119 410.88 48.6484 412.159ZM57.261 410.778L56.9369 408.748C55.6577 408.816 54.839 409.618 54.2932 410.573L54.0374 408.919H52.2976V417.157H54.3444V412.432C54.9243 411.545 55.9818 410.863 57.261 410.778ZM64.8103 417.157V411.511C64.8103 409.533 63.7528 408.748 61.6208 408.748C60.3074 408.748 59.3011 409.038 58.346 409.413L58.6018 411.051C59.4887 410.659 60.3927 410.386 61.3479 410.386C62.2519 410.386 62.7636 410.727 62.7636 411.614V411.852C59.4376 412.177 57.8002 413.046 57.8002 415.042C57.8002 416.475 58.7383 417.328 60.1369 417.328C61.3649 417.328 62.2178 416.782 62.883 416.082L63.0535 417.157H64.8103ZM62.7636 414.888C62.2007 415.451 61.5355 415.775 60.8362 415.775C60.2051 415.775 59.8299 415.417 59.8299 414.82C59.8299 414.036 60.3927 413.336 62.7636 413.046V414.888ZM68.9709 417.157V404.842L66.9241 405.166V417.157H68.9709ZM78.8605 417.157V405.61H76.9331L74.0847 406.923L74.3235 408.646L76.6773 407.742V417.157H78.8605ZM90.2002 411.392C90.2002 407.554 88.3581 405.405 85.612 405.405C82.8489 405.405 81.0068 407.554 81.0068 411.392C81.0068 415.23 82.8489 417.379 85.612 417.379C88.3581 417.379 90.2002 415.23 90.2002 411.392ZM87.9999 411.392C87.9999 414.121 87.1642 415.622 85.612 415.622C84.0599 415.622 83.19 414.121 83.19 411.392C83.19 408.663 84.0599 407.162 85.612 407.162C87.1642 407.162 87.9999 408.663 87.9999 411.392Z" fill="#2E3942"/>
<rect x="244.914" y="307.086" width="120.827" height="120.827" transform="rotate(90 244.914 307.086)" fill="white" stroke="#899CA9" stroke-width="0.172857"/>
<path d="M150.568 383.459H149.391L146.492 393.42L143.217 383.459H142.006L138.765 393.42L135.831 383.34L134.672 383.596L138.202 395.245H139.192L142.586 385.079L145.997 395.245H147.02L150.568 383.459ZM159.034 395.228V389.446C159.034 387.911 158.233 386.99 156.629 386.99C155.538 386.99 154.634 387.57 153.798 388.303V382.982L152.672 383.186V395.228H153.798V389.395C154.685 388.525 155.555 387.996 156.408 387.996C157.431 387.996 157.909 388.627 157.909 389.668V395.228H159.034ZM163.084 384.414C163.084 383.971 162.726 383.596 162.283 383.596C161.839 383.596 161.464 383.971 161.464 384.414C161.464 384.858 161.839 385.233 162.283 385.233C162.726 385.233 163.084 384.858 163.084 384.414ZM162.828 395.228V387.16H161.72V395.228H162.828ZM169.197 395.228L169.027 394.29C168.839 394.324 168.532 394.375 168.276 394.375C167.406 394.375 167.082 394.017 167.082 393.198V388.116H169.095L168.941 387.16H167.082V384.176L165.974 384.363V387.16H164.728V388.116H165.974V393.386C165.974 394.87 166.809 395.364 168.071 395.364C168.549 395.364 168.958 395.296 169.197 395.228ZM177.387 391.032C177.387 388.798 176.33 386.99 174.129 386.99C172.151 386.99 170.65 388.593 170.65 391.186C170.65 393.966 172.168 395.399 174.283 395.399C175.528 395.399 176.568 394.938 177.37 394.256L177.2 393.232C176.364 393.949 175.426 394.426 174.351 394.426C172.731 394.426 171.81 393.249 171.776 391.271H177.387C177.387 391.186 177.387 391.1 177.387 391.032ZM176.227 390.384H171.827C172.049 388.832 172.867 387.894 174.129 387.894C175.426 387.894 176.108 388.934 176.227 390.384ZM148.214 417.228L147.31 405.459H144.496L141.528 414.346L138.543 405.459H135.678L134.774 417.228H136.804L137.401 408.632L140.386 417.262H142.364L145.332 408.632L145.963 417.228H148.214ZM152.488 406.448C152.488 405.749 151.942 405.254 151.277 405.254C150.594 405.254 150.048 405.749 150.048 406.448C150.048 407.131 150.594 407.608 151.277 407.608C151.942 407.608 152.488 407.131 152.488 406.448ZM152.283 417.228V408.99H150.236V417.228H152.283ZM161.475 417.228V411.292C161.475 409.757 160.657 408.819 159.122 408.819C158.013 408.819 157.143 409.416 156.376 410.15L156.188 408.99H154.448V417.228H156.495V411.668C157.092 411.037 157.723 410.627 158.371 410.627C159.122 410.627 159.429 411.122 159.429 411.838V417.228H161.475ZM170.434 413.015C170.434 410.678 169.325 408.819 166.852 408.819C164.703 408.819 163.1 410.44 163.1 413.117C163.1 416.085 164.822 417.399 167.125 417.399C168.455 417.399 169.53 417.006 170.417 416.392L170.178 414.789C169.274 415.42 168.404 415.812 167.347 415.812C166.085 415.812 165.232 415.113 165.129 413.51H170.417C170.417 413.39 170.434 413.186 170.434 413.015ZM168.438 412.231H165.163C165.317 410.883 165.982 410.235 166.801 410.235C167.79 410.235 168.302 410.951 168.438 412.231ZM177.051 410.849L176.727 408.819C175.448 408.887 174.629 409.689 174.083 410.644L173.827 408.99H172.088V417.228H174.134V412.503C174.714 411.616 175.772 410.934 177.051 410.849ZM184.6 417.228V411.582C184.6 409.604 183.543 408.819 181.411 408.819C180.097 408.819 179.091 409.109 178.136 409.484L178.392 411.122C179.279 410.73 180.183 410.457 181.138 410.457C182.042 410.457 182.554 410.798 182.554 411.685V411.923C179.228 412.248 177.59 413.117 177.59 415.113C177.59 416.546 178.528 417.399 179.927 417.399C181.155 417.399 182.008 416.853 182.673 416.153L182.843 417.228H184.6ZM182.554 414.96C181.991 415.522 181.325 415.846 180.626 415.846C179.995 415.846 179.62 415.488 179.62 414.891C179.62 414.107 180.183 413.407 182.554 413.117V414.96ZM188.761 417.228V404.913L186.714 405.237V417.228H188.761ZM203.477 411.463C203.477 407.625 201.635 405.476 198.889 405.476C196.126 405.476 194.284 407.625 194.284 411.463C194.284 415.301 196.126 417.45 198.889 417.45C201.635 417.45 203.477 415.301 203.477 411.463ZM201.277 411.463C201.277 414.192 200.441 415.693 198.889 415.693C197.337 415.693 196.467 414.192 196.467 411.463C196.467 408.734 197.337 407.233 198.889 407.233C200.441 407.233 201.277 408.734 201.277 411.463Z" fill="#2E3942"/>
<rect x="3" y="59.4302" width="242.012" height="97.2908" fill="#E8EFF3"/>
<rect x="3" y="189.151" width="242.012" height="32.4303" fill="#B1C2CE"/>
<rect x="3" y="221.582" width="242.012" height="32.4303" fill="#899CA9"/>
<rect x="3" y="254.012" width="242.012" height="32.4303" fill="#2E3942"/>
<rect x="16.7829" y="75.9697" width="190.61" height="6.48606" fill="#2E3942"/>
<rect x="16.7829" y="91.374" width="100.129" height="4.86454" fill="#5A3489"/>
<rect x="16.7829" y="98.022" width="100.129" height="0.972908" fill="#C7A3F5"/>
<rect x="3" y="156.721" width="242.012" height="32.4303" fill="#CDDBE4"/>
<rect x="3" y="27" width="242.012" height="32.4303" fill="white"/>
<path d="M224.349 141.276L233.695 131.931L224.349 122.585L221.896 125.021L227.009 130.134H206.522V133.727H227.009L221.896 138.841L224.349 141.276Z" fill="#007B7D"/>
<circle cx="20.0259" cy="127.209" r="3.24303" fill="#C22929"/>
<circle cx="20.0259" cy="137.101" r="3.24303" fill="#188FF1"/>
<rect x="1.5" y="25.5" width="245.012" height="263.442" stroke="#66E1DF" stroke-width="3"/>
<path d="M19.8399 15L18.7799 1.2H15.4799L11.9999 11.62L8.49994 1.2H5.13994L4.07994 15H6.45994L7.15994 4.92L10.6599 15.04H12.9799L16.4599 4.92L17.1999 15H19.8399ZM24.8506 2.36C24.8506 1.54 24.2106 0.96 23.4306 0.96C22.6306 0.96 21.9906 1.54 21.9906 2.36C21.9906 3.16 22.6306 3.72 23.4306 3.72C24.2106 3.72 24.8506 3.16 24.8506 2.36ZM24.6106 15V5.34H22.2106V15H24.6106ZM35.3896 15V8.04C35.3896 6.24 34.4296 5.14 32.6296 5.14C31.3296 5.14 30.3096 5.84 29.4096 6.7L29.1896 5.34H27.1496V15H29.5496V8.48C30.2496 7.74 30.9896 7.26 31.7496 7.26C32.6296 7.26 32.9896 7.84 32.9896 8.68V15H35.3896ZM45.8942 10.06C45.8942 7.32 44.5942 5.14 41.6942 5.14C39.1742 5.14 37.2942 7.04 37.2942 10.18C37.2942 13.66 39.3142 15.2 42.0142 15.2C43.5742 15.2 44.8342 14.74 45.8742 14.02L45.5942 12.14C44.5342 12.88 43.5142 13.34 42.2742 13.34C40.7942 13.34 39.7942 12.52 39.6742 10.64H45.8742C45.8742 10.5 45.8942 10.26 45.8942 10.06ZM43.5542 9.14H39.7142C39.8942 7.56 40.6742 6.8 41.6342 6.8C42.7942 6.8 43.3942 7.64 43.5542 9.14ZM53.6532 7.52L53.2732 5.14C51.7732 5.22 50.8132 6.16 50.1732 7.28L49.8732 5.34H47.8332V15H50.2332V9.46C50.9132 8.42 52.1532 7.62 53.6532 7.52ZM62.5054 15V8.38C62.5054 6.06 61.2654 5.14 58.7654 5.14C57.2254 5.14 56.0454 5.48 54.9254 5.92L55.2254 7.84C56.2654 7.38 57.3254 7.06 58.4454 7.06C59.5054 7.06 60.1054 7.46 60.1054 8.5V8.78C56.2054 9.16 54.2854 10.18 54.2854 12.52C54.2854 14.2 55.3854 15.2 57.0254 15.2C58.4654 15.2 59.4654 14.56 60.2454 13.74L60.4454 15H62.5054ZM60.1054 12.34C59.4454 13 58.6654 13.38 57.8454 13.38C57.1054 13.38 56.6654 12.96 56.6654 12.26C56.6654 11.34 57.3254 10.52 60.1054 10.18V12.34ZM67.384 15V0.559999L64.984 0.94V15H67.384ZM82.0604 15L81.7004 12.66H77.1004V1.2H74.4404V15H82.0604ZM86.4717 2.36C86.4717 1.54 85.8317 0.96 85.0517 0.96C84.2517 0.96 83.6117 1.54 83.6117 2.36C83.6117 3.16 84.2517 3.72 85.0517 3.72C85.8317 3.72 86.4717 3.16 86.4717 2.36ZM86.2317 15V5.34H83.8317V15H86.2317ZM90.8507 14.52C91.3307 14.62 91.6307 14.68 92.2907 14.76L93.5907 14.92C94.7907 15.1 95.2107 15.4 95.2107 15.92C95.2107 16.64 94.2307 17.22 92.5107 17.22C90.6907 17.22 89.8307 16.7 89.8307 15.98C89.8307 15.48 90.1507 15.02 90.8507 14.52ZM94.0107 8.5C94.0107 9.54 93.3707 10.32 92.3107 10.32C91.2707 10.32 90.6307 9.56 90.6307 8.56C90.6307 7.5 91.2507 6.68 92.3107 6.68C93.3307 6.68 94.0107 7.46 94.0107 8.5ZM95.0307 6.04C94.3307 5.46 93.3907 5.14 92.2907 5.14C90.1307 5.14 88.4107 6.46 88.4107 8.56C88.4107 9.84 89.0907 10.84 90.2307 11.38C89.4307 11.86 89.0107 12.38 89.0107 12.92C89.0107 13.3 89.1907 13.66 89.5707 13.96C88.3707 14.64 87.7507 15.34 87.7507 16.24C87.7507 17.84 89.7307 18.64 92.3507 18.64C95.1507 18.64 97.4307 17.48 97.4307 15.4C97.4307 13.92 96.1907 13.3 94.2107 13.02L92.9707 12.9C91.4707 12.68 91.1707 12.6 91.1707 12.28C91.1707 12.12 91.3307 11.94 91.5707 11.76C91.8107 11.8 92.0707 11.82 92.3507 11.82C94.4307 11.82 96.2107 10.58 96.2107 8.5C96.2107 8.06 96.1307 7.62 95.9507 7.24L97.7107 7.12L97.3907 5.2L95.0307 6.04ZM107.382 15V8.04C107.382 6.24 106.422 5.14 104.622 5.14C103.342 5.14 102.342 5.82 101.542 6.56V0.559999L99.1418 0.94V15H101.542V8.48C102.242 7.74 102.982 7.26 103.742 7.26C104.622 7.26 104.982 7.84 104.982 8.68V15H107.382ZM114.986 15L114.686 12.98C114.466 13.04 114.206 13.06 113.926 13.06C113.006 13.06 112.646 12.64 112.646 11.86V7.3H114.926L114.626 5.34H112.646V1.92L110.286 2.28V5.34H108.926V7.3H110.286V12.26C110.286 14.46 111.566 15.16 113.466 15.16C114.166 15.16 114.606 15.08 114.986 15ZM131.516 3.5L131.136 1.2H120.416V3.5H124.516V15H127.176V3.5H131.516ZM141.054 15V8.04C141.054 6.24 140.094 5.14 138.294 5.14C137.014 5.14 136.014 5.82 135.214 6.56V0.559999L132.814 0.94V15H135.214V8.48C135.914 7.74 136.654 7.26 137.414 7.26C138.294 7.26 138.654 7.84 138.654 8.68V15H141.054ZM151.558 10.06C151.558 7.32 150.258 5.14 147.358 5.14C144.838 5.14 142.958 7.04 142.958 10.18C142.958 13.66 144.978 15.2 147.678 15.2C149.238 15.2 150.498 14.74 151.538 14.02L151.258 12.14C150.198 12.88 149.178 13.34 147.938 13.34C146.458 13.34 145.458 12.52 145.338 10.64H151.538C151.538 10.5 151.558 10.26 151.558 10.06ZM149.218 9.14H145.378C145.558 7.56 146.338 6.8 147.298 6.8C148.458 6.8 149.058 7.64 149.218 9.14ZM167.357 15V8.04C167.357 6.24 166.457 5.14 164.637 5.14C163.337 5.14 162.277 5.84 161.417 6.7C161.057 5.76 160.317 5.14 158.937 5.14C157.637 5.14 156.657 5.84 155.757 6.7L155.537 5.34H153.497V15H155.897V8.46C156.597 7.74 157.297 7.26 158.037 7.26C158.917 7.26 159.237 7.84 159.237 8.68V15H161.637V8.46C162.337 7.74 163.037 7.26 163.777 7.26C164.657 7.26 164.957 7.84 164.957 8.68V15H167.357ZM177.867 10.06C177.867 7.32 176.567 5.14 173.667 5.14C171.147 5.14 169.267 7.04 169.267 10.18C169.267 13.66 171.287 15.2 173.987 15.2C175.547 15.2 176.807 14.74 177.847 14.02L177.567 12.14C176.507 12.88 175.487 13.34 174.247 13.34C172.767 13.34 171.767 12.52 171.647 10.64H177.847C177.847 10.5 177.867 10.26 177.867 10.06ZM175.527 9.14H171.687C171.867 7.56 172.647 6.8 173.607 6.8C174.767 6.8 175.367 7.64 175.527 9.14Z" fill="#2E3942"/>
<rect x="277" y="59.4302" width="242.012" height="97.2908" fill="#1B2327"/>
<rect x="277" y="189.151" width="242.012" height="32.4303" fill="#414F58"/>
<rect x="277" y="221.582" width="242.012" height="32.4303" fill="#576975"/>
<rect x="277" y="254.012" width="242.012" height="32.4303" fill="#CDDBE4"/>
<rect x="290.783" y="75.9697" width="190.61" height="6.48606" fill="#CDDBE4"/>
<rect x="290.783" y="91.374" width="100.129" height="4.86454" fill="#935FD3"/>
<rect x="290.783" y="98.022" width="100.129" height="0.972908" fill="#5A3489"/>
<rect x="277" y="156.721" width="242.012" height="32.4303" fill="#2E3942"/>
<rect x="277" y="27" width="242.012" height="32.4303" fill="black"/>
<path d="M498.349 141.276L507.694 131.931L498.349 122.585L495.896 125.021L501.009 130.134H480.521V133.727H501.009L495.896 138.841L498.349 141.276Z" fill="#009EA1"/>
<circle cx="294.026" cy="127.209" r="3.24303" fill="#C22929"/>
<circle cx="294.026" cy="137.101" r="3.24303" fill="#188FF1"/>
<rect x="275.541" y="25.5406" width="244.931" height="263.361" stroke="#66E1DF" stroke-width="2.91873"/>
<path d="M293.84 15L292.78 1.2H289.48L286 11.62L282.5 1.2H279.14L278.08 15H280.46L281.16 4.92L284.66 15.04H286.98L290.46 4.92L291.2 15H293.84ZM298.851 2.36C298.851 1.54 298.211 0.96 297.431 0.96C296.631 0.96 295.991 1.54 295.991 2.36C295.991 3.16 296.631 3.72 297.431 3.72C298.211 3.72 298.851 3.16 298.851 2.36ZM298.611 15V5.34H296.211V15H298.611ZM309.39 15V8.04C309.39 6.24 308.43 5.14 306.63 5.14C305.33 5.14 304.31 5.84 303.41 6.7L303.19 5.34H301.15V15H303.55V8.48C304.25 7.74 304.99 7.26 305.75 7.26C306.63 7.26 306.99 7.84 306.99 8.68V15H309.39ZM319.894 10.06C319.894 7.32 318.594 5.14 315.694 5.14C313.174 5.14 311.294 7.04 311.294 10.18C311.294 13.66 313.314 15.2 316.014 15.2C317.574 15.2 318.834 14.74 319.874 14.02L319.594 12.14C318.534 12.88 317.514 13.34 316.274 13.34C314.794 13.34 313.794 12.52 313.674 10.64H319.874C319.874 10.5 319.894 10.26 319.894 10.06ZM317.554 9.14H313.714C313.894 7.56 314.674 6.8 315.634 6.8C316.794 6.8 317.394 7.64 317.554 9.14ZM327.653 7.52L327.273 5.14C325.773 5.22 324.813 6.16 324.173 7.28L323.873 5.34H321.833V15H324.233V9.46C324.913 8.42 326.153 7.62 327.653 7.52ZM336.505 15V8.38C336.505 6.06 335.265 5.14 332.765 5.14C331.225 5.14 330.045 5.48 328.925 5.92L329.225 7.84C330.265 7.38 331.325 7.06 332.445 7.06C333.505 7.06 334.105 7.46 334.105 8.5V8.78C330.205 9.16 328.285 10.18 328.285 12.52C328.285 14.2 329.385 15.2 331.025 15.2C332.465 15.2 333.465 14.56 334.245 13.74L334.445 15H336.505ZM334.105 12.34C333.445 13 332.665 13.38 331.845 13.38C331.105 13.38 330.665 12.96 330.665 12.26C330.665 11.34 331.325 10.52 334.105 10.18V12.34ZM341.384 15V0.559999L338.984 0.94V15H341.384ZM360.1 8.08C360.1 4.02 357.62 1.2 352.82 1.2H348.44V15H352.82C357.52 15 360.1 12.18 360.1 8.08ZM357.4 8.1C357.4 11.34 355.66 12.82 352.76 12.82H351.08V3.38H352.8C355.56 3.38 357.4 4.92 357.4 8.1ZM369.787 15V8.38C369.787 6.06 368.547 5.14 366.047 5.14C364.507 5.14 363.327 5.48 362.207 5.92L362.507 7.84C363.547 7.38 364.607 7.06 365.727 7.06C366.787 7.06 367.387 7.46 367.387 8.5V8.78C363.487 9.16 361.567 10.18 361.567 12.52C361.567 14.2 362.667 15.2 364.307 15.2C365.747 15.2 366.747 14.56 367.527 13.74L367.727 15H369.787ZM367.387 12.34C366.727 13 365.947 13.38 365.127 13.38C364.387 13.38 363.947 12.96 363.947 12.26C363.947 11.34 364.607 10.52 367.387 10.18V12.34ZM377.985 7.52L377.605 5.14C376.105 5.22 375.145 6.16 374.505 7.28L374.205 5.34H372.165V15H374.565V9.46C375.245 8.42 376.485 7.62 377.985 7.52ZM387.989 14.78L384.209 9.66L387.769 5.34H385.069L381.909 9.34V0.559999L379.509 0.94V15H381.909V10.22L385.449 15.14L387.989 14.78ZM404.11 3.5L403.73 1.2H393.01V3.5H397.11V15H399.77V3.5H404.11ZM413.648 15V8.04C413.648 6.24 412.688 5.14 410.888 5.14C409.608 5.14 408.608 5.82 407.808 6.56V0.559999L405.408 0.94V15H407.808V8.48C408.508 7.74 409.248 7.26 410.008 7.26C410.888 7.26 411.248 7.84 411.248 8.68V15H413.648ZM424.152 10.06C424.152 7.32 422.852 5.14 419.952 5.14C417.432 5.14 415.552 7.04 415.552 10.18C415.552 13.66 417.572 15.2 420.272 15.2C421.832 15.2 423.092 14.74 424.132 14.02L423.852 12.14C422.792 12.88 421.772 13.34 420.532 13.34C419.052 13.34 418.052 12.52 417.932 10.64H424.132C424.132 10.5 424.152 10.26 424.152 10.06ZM421.812 9.14H417.972C418.152 7.56 418.932 6.8 419.892 6.8C421.052 6.8 421.652 7.64 421.812 9.14ZM439.951 15V8.04C439.951 6.24 439.051 5.14 437.231 5.14C435.931 5.14 434.871 5.84 434.011 6.7C433.651 5.76 432.911 5.14 431.531 5.14C430.231 5.14 429.251 5.84 428.351 6.7L428.131 5.34H426.091V15H428.491V8.46C429.191 7.74 429.891 7.26 430.631 7.26C431.511 7.26 431.831 7.84 431.831 8.68V15H434.231V8.46C434.931 7.74 435.631 7.26 436.371 7.26C437.251 7.26 437.551 7.84 437.551 8.68V15H439.951ZM450.461 10.06C450.461 7.32 449.161 5.14 446.261 5.14C443.741 5.14 441.861 7.04 441.861 10.18C441.861 13.66 443.881 15.2 446.581 15.2C448.141 15.2 449.401 14.74 450.441 14.02L450.161 12.14C449.101 12.88 448.081 13.34 446.841 13.34C445.361 13.34 444.361 12.52 444.241 10.64H450.441C450.441 10.5 450.461 10.26 450.461 10.06ZM448.121 9.14H444.281C444.461 7.56 445.241 6.8 446.201 6.8C447.361 6.8 447.961 7.64 448.121 9.14Z" fill="#2E3942"/>
<rect x="398" y="307" width="121" height="121" transform="rotate(90 398 307)" fill="#1B2327"/>
<rect x="519" y="307" width="121" height="121" transform="rotate(90 519 307)" fill="black"/>
<path d="M303.98 417.157L303.076 405.388H300.262L297.294 414.275L294.309 405.388H291.444L290.54 417.157H292.569L293.166 408.561L296.151 417.191H298.13L301.098 408.561L301.729 417.157H303.98ZM308.253 406.378C308.253 405.678 307.707 405.184 307.042 405.184C306.36 405.184 305.814 405.678 305.814 406.378C305.814 407.06 306.36 407.537 307.042 407.537C307.707 407.537 308.253 407.06 308.253 406.378ZM308.049 417.157V408.919H306.002V417.157H308.049ZM317.241 417.157V411.222C317.241 409.687 316.422 408.748 314.887 408.748C313.779 408.748 312.909 409.345 312.141 410.079L311.954 408.919H310.214V417.157H312.261V411.597C312.858 410.966 313.489 410.556 314.137 410.556C314.887 410.556 315.194 411.051 315.194 411.767V417.157H317.241ZM326.2 412.944C326.2 410.608 325.091 408.748 322.618 408.748C320.469 408.748 318.865 410.369 318.865 413.047C318.865 416.014 320.588 417.328 322.891 417.328C324.221 417.328 325.296 416.935 326.183 416.321L325.944 414.718C325.04 415.349 324.17 415.742 323.112 415.742C321.85 415.742 320.997 415.042 320.895 413.439H326.183C326.183 413.32 326.2 413.115 326.2 412.944ZM324.204 412.16H320.929C321.083 410.812 321.748 410.164 322.567 410.164C323.556 410.164 324.068 410.88 324.204 412.16ZM332.817 410.778L332.493 408.748C331.213 408.817 330.395 409.618 329.849 410.573L329.593 408.919H327.853V417.157H329.9V412.433C330.48 411.546 331.537 410.863 332.817 410.778ZM340.366 417.157V411.512C340.366 409.533 339.308 408.748 337.176 408.748C335.863 408.748 334.857 409.038 333.902 409.414L334.157 411.051C335.044 410.659 335.948 410.386 336.904 410.386C337.808 410.386 338.319 410.727 338.319 411.614V411.853C334.993 412.177 333.356 413.047 333.356 415.042C333.356 416.475 334.294 417.328 335.693 417.328C336.921 417.328 337.773 416.782 338.439 416.083L338.609 417.157H340.366ZM338.319 414.889C337.756 415.452 337.091 415.776 336.392 415.776C335.761 415.776 335.386 415.417 335.386 414.821C335.386 414.036 335.948 413.337 338.319 413.047V414.889ZM344.527 417.157V404.843L342.48 405.167V417.157H344.527ZM356.105 412.109C355.525 414.087 353.717 415.11 351.414 415.571L351.687 417.396C355.542 416.628 358.288 414.343 358.288 410.284C358.288 407.094 356.514 405.405 353.99 405.405C351.636 405.405 349.879 406.992 349.879 409.38C349.879 411.716 351.261 412.961 353.342 412.961C354.382 412.961 355.286 412.637 356.105 412.109ZM356.275 410.471C355.559 411 354.808 411.29 353.973 411.29C352.608 411.29 351.96 410.573 351.96 409.26C351.96 407.896 352.779 407.111 353.973 407.111C355.337 407.111 356.275 408.271 356.275 410.403V410.471ZM368.971 411.392C368.971 407.554 367.129 405.405 364.382 405.405C361.619 405.405 359.777 407.554 359.777 411.392C359.777 415.23 361.619 417.379 364.382 417.379C367.129 417.379 368.971 415.23 368.971 411.392ZM366.77 411.392C366.77 414.121 365.935 415.622 364.382 415.622C362.83 415.622 361.96 414.121 361.96 411.392C361.96 408.663 362.83 407.162 364.382 407.162C365.935 407.162 366.77 408.663 366.77 411.392Z" fill="#CDDBE4"/>
<path d="M420.373 391.974C420.373 390.405 419.452 389.501 418.054 389.109C419.128 388.665 419.845 387.796 419.845 386.533C419.845 384.777 418.634 383.6 416.212 383.6H413.483V395.369H416.195C418.719 395.369 420.373 394.226 420.373 391.974ZM418.685 386.585C418.685 387.813 417.815 388.717 416.143 388.717H414.643V384.623H416.178C417.866 384.623 418.685 385.357 418.685 386.585ZM419.214 392.043C419.214 393.51 418.088 394.345 416.297 394.345H414.643V389.689H416.229C418.071 389.689 419.214 390.439 419.214 392.043ZM423.783 395.369V383.122L422.674 383.327V395.369H423.783ZM432.334 395.369V389.621C432.334 387.966 431.413 387.13 429.622 387.13C428.48 387.13 427.558 387.42 426.62 387.83L426.774 388.836C427.661 388.41 428.599 388.12 429.554 388.12C430.577 388.12 431.226 388.58 431.226 389.672V390.201C427.576 390.559 426.04 391.446 426.04 393.339C426.04 394.772 427.047 395.539 428.445 395.539C429.605 395.539 430.543 394.993 431.294 394.294L431.481 395.369H432.334ZM431.226 393.373C430.441 394.106 429.486 394.584 428.616 394.584C427.763 394.584 427.166 394.141 427.166 393.271C427.166 392.179 428.053 391.412 431.226 391.087V393.373ZM440.782 394.618L440.628 393.595C439.792 394.311 439.025 394.55 438.172 394.55C436.535 394.55 435.545 393.322 435.545 391.326C435.545 389.348 436.535 388.103 438.07 388.103C438.991 388.103 439.758 388.427 440.526 389.075L440.713 387.949C440.048 387.472 439.178 387.13 438.087 387.13C436.04 387.13 434.402 388.631 434.402 391.343C434.402 394.004 435.989 395.539 438.053 395.539C439.127 395.539 439.997 395.232 440.782 394.618ZM449.204 395.266L445.162 390.9L448.914 387.301H447.499L443.968 390.763V383.122L442.842 383.327V395.369H443.968V391.087L447.976 395.488L449.204 395.266ZM426.275 417.369L425.371 405.6H422.557L419.589 414.486L416.604 405.6H413.739L412.835 417.369H414.864L415.461 408.772L418.446 417.403H420.425L423.392 408.772L424.024 417.369H426.275ZM430.548 406.589C430.548 405.89 430.002 405.395 429.337 405.395C428.655 405.395 428.109 405.89 428.109 406.589C428.109 407.271 428.655 407.749 429.337 407.749C430.002 407.749 430.548 407.271 430.548 406.589ZM430.343 417.369V409.13H428.297V417.369H430.343ZM439.536 417.369V411.433C439.536 409.898 438.717 408.96 437.182 408.96C436.074 408.96 435.204 409.557 434.436 410.29L434.249 409.13H432.509V417.369H434.556V411.808C435.153 411.177 435.784 410.768 436.432 410.768C437.182 410.768 437.489 411.262 437.489 411.979V417.369H439.536ZM448.495 413.156C448.495 410.819 447.386 408.96 444.913 408.96C442.764 408.96 441.16 410.58 441.16 413.258C441.16 416.226 442.883 417.539 445.186 417.539C446.516 417.539 447.591 417.147 448.477 416.533L448.239 414.93C447.335 415.561 446.465 415.953 445.407 415.953C444.145 415.953 443.292 415.254 443.19 413.65H448.477C448.477 413.531 448.495 413.326 448.495 413.156ZM446.499 412.371H443.224C443.378 411.024 444.043 410.376 444.862 410.376C445.851 410.376 446.362 411.092 446.499 412.371ZM455.112 410.99L454.788 408.96C453.508 409.028 452.69 409.83 452.144 410.785L451.888 409.13H450.148V417.369H452.195V412.644C452.775 411.757 453.832 411.075 455.112 410.99ZM462.661 417.369V411.723C462.661 409.744 461.603 408.96 459.471 408.96C458.158 408.96 457.152 409.25 456.197 409.625L456.452 411.262C457.339 410.87 458.243 410.597 459.198 410.597C460.102 410.597 460.614 410.938 460.614 411.825V412.064C457.288 412.388 455.651 413.258 455.651 415.254C455.651 416.686 456.589 417.539 457.987 417.539C459.216 417.539 460.068 416.993 460.734 416.294L460.904 417.369H462.661ZM460.614 415.1C460.051 415.663 459.386 415.987 458.687 415.987C458.056 415.987 457.68 415.629 457.68 415.032C457.68 414.247 458.243 413.548 460.614 413.258V415.1ZM466.821 417.369V405.054L464.775 405.378V417.369H466.821ZM476.711 417.369V405.821H474.784L471.935 407.135L472.174 408.858L474.528 407.954V417.369H476.711ZM488.051 411.604C488.051 407.766 486.209 405.617 483.463 405.617C480.7 405.617 478.857 407.766 478.857 411.604C478.857 415.441 480.7 417.59 483.463 417.59C486.209 417.59 488.051 415.441 488.051 411.604ZM485.851 411.604C485.851 414.333 485.015 415.834 483.463 415.834C481.911 415.834 481.041 414.333 481.041 411.604C481.041 408.875 481.911 407.374 483.463 407.374C485.015 407.374 485.851 408.875 485.851 411.604ZM498.744 411.604C498.744 407.766 496.902 405.617 494.156 405.617C491.393 405.617 489.551 407.766 489.551 411.604C489.551 415.441 491.393 417.59 494.156 417.59C496.902 417.59 498.744 415.441 498.744 411.604ZM496.544 411.604C496.544 414.333 495.708 415.834 494.156 415.834C492.604 415.834 491.734 414.333 491.734 411.604C491.734 408.875 492.604 407.374 494.156 407.374C495.708 407.374 496.544 408.875 496.544 411.604Z" fill="#CDDBE4"/>
</svg>
