<svg width="244" height="200" viewBox="0 0 244 200" fill="none" xmlns="http://www.w3.org/2000/svg">
<path d="M104.293 17.7071C104.683 18.0976 105.317 18.0976 105.707 17.7071C106.098 17.3166 106.098 16.6834 105.707 16.2929L101.414 12L105.707 7.70711C106.098 7.31658 106.098 6.68342 105.707 6.29289C105.317 5.90237 104.683 5.90237 104.293 6.29289L100 10.5858L95.7071 6.29289C95.3166 5.90237 94.6834 5.90237 94.2929 6.29289C93.9024 6.68342 93.9024 7.31658 94.2929 7.70711L98.5858 12L94.2929 16.2929C93.9024 16.6834 93.9024 17.3166 94.2929 17.7071C94.6834 18.0976 95.3166 18.0976 95.7071 17.7071L100 13.4142L104.293 17.7071Z" fill="#414F58"/>
<path fill-rule="evenodd" clip-rule="evenodd" d="M100 50C100.552 50 101 50.4477 101 51V55H105C105.552 55 106 55.4477 106 56C106 56.5523 105.552 57 105 57H101V61C101 61.5523 100.552 62 100 62C99.4477 62 99 61.5523 99 61V57H95C94.4477 57 94 56.5523 94 56C94 55.4477 94.4477 55 95 55H99V51C99 50.4477 99.4477 50 100 50Z" fill="#414F58"/>
<path fill-rule="evenodd" clip-rule="evenodd" d="M94 100C94 99.4477 94.4477 99 95 99H105C105.552 99 106 99.4477 106 100C106 100.552 105.552 101 105 101H95C94.4477 101 94 100.552 94 100Z" fill="#414F58"/>
<path fill-rule="evenodd" clip-rule="evenodd" d="M50.2929 141.293C50.6834 140.902 51.3166 140.902 51.7071 141.293L56 145.586L60.2929 141.293C60.6834 140.902 61.3166 140.902 61.7071 141.293C62.0976 141.683 62.0976 142.317 61.7071 142.707L56.7071 147.707C56.3166 148.098 55.6834 148.098 55.2929 147.707L50.2929 142.707C49.9024 142.317 49.9024 141.683 50.2929 141.293Z" fill="#414F58"/>
<path fill-rule="evenodd" clip-rule="evenodd" d="M50.2929 102.707C50.6834 103.098 51.3166 103.098 51.7071 102.707L56 98.4142L60.2929 102.707C60.6834 103.098 61.3166 103.098 61.7071 102.707C62.0976 102.317 62.0976 101.683 61.7071 101.293L56.7071 96.2929C56.3166 95.9024 55.6834 95.9024 55.2929 96.2929L50.2929 101.293C49.9024 101.683 49.9024 102.317 50.2929 102.707Z" fill="#414F58"/>
<path fill-rule="evenodd" clip-rule="evenodd" d="M178 4.71429C178 3.21523 179.215 2 180.714 2H190C191.657 2 193 3.34315 193 5V6C193 6.55228 192.552 7 192 7C191.448 7 191 6.55228 191 6V5C191 4.44772 190.552 4 190 4H180.714C180.32 4 180 4.3198 180 4.71429V11.1429C180 11.6951 179.552 12.1429 179 12.1429C178.448 12.1429 178 11.6951 178 11.1429V4.71429ZM192 15C192.552 15 193 15.4477 193 16V17C193 18.6569 191.657 20 190 20H187C186.448 20 186 19.5523 186 19C186 18.4477 186.448 18 187 18H190C190.552 18 191 17.5523 191 17V16C191 15.4477 191.448 15 192 15Z" fill="#414F58"/>
<path fill-rule="evenodd" clip-rule="evenodd" d="M178 5.56155C178 3.60984 179.834 2.17777 181.728 2.65113L185.728 3.65113C187.063 3.985 188 5.18495 188 6.56155V18.4384C188 20.3902 186.166 21.8222 184.272 21.3489L180.272 20.3489C178.937 20.015 178 18.815 178 17.4384V5.56155ZM181.243 4.59141C180.611 4.43362 180 4.91098 180 5.56155V17.4384C180 17.8973 180.312 18.2973 180.757 18.4086L184.757 19.4086C185.389 19.5664 186 19.089 186 18.4384V6.56155C186 6.10268 185.688 5.7027 185.243 5.59141L181.243 4.59141Z" fill="#414F58"/>
<path fill-rule="evenodd" clip-rule="evenodd" d="M193.293 7.29289C193.683 6.90237 194.317 6.90237 194.707 7.29289L197.707 10.2929C198.098 10.6834 198.098 11.3166 197.707 11.7071L194.707 14.7071C194.317 15.0976 193.683 15.0976 193.293 14.7071C192.902 14.3166 192.902 13.6834 193.293 13.2929L194.586 12H190C189.448 12 189 11.5523 189 11C189 10.4477 189.448 10 190 10H194.586L193.293 8.70711C192.902 8.31658 192.902 7.68342 193.293 7.29289Z" fill="#414F58"/>
<path fill-rule="evenodd" clip-rule="evenodd" d="M51.415 10.6508C50.859 10.0021 51.3199 9 52.1742 9H59.8258C60.6801 9 61.141 10.0021 60.585 10.6508L56.7593 15.1142C56.3602 15.5798 55.6398 15.5798 55.2407 15.1142L51.415 10.6508Z" fill="#414F58"/>
<path fill-rule="evenodd" clip-rule="evenodd" d="M51.415 57.3492C50.859 57.9979 51.3199 59 52.1742 59H59.8258C60.6801 59 61.141 57.9979 60.585 57.3492L56.7593 52.8858C56.3602 52.4202 55.6398 52.4202 55.2407 52.8858L51.415 57.3492Z" fill="#414F58"/>
<path fill-rule="evenodd" clip-rule="evenodd" d="M107.703 138.289C108.096 138.677 108.099 139.31 107.711 139.703L97.8289 149.703C97.4484 150.088 96.8306 150.1 96.435 149.731L92.3174 145.885C91.9138 145.508 91.8922 144.875 92.2692 144.471C92.6462 144.068 93.279 144.046 93.6826 144.423L97.0898 147.606L106.289 138.297C106.677 137.904 107.31 137.901 107.703 138.289Z" fill="#414F58"/>
<path fill-rule="evenodd" clip-rule="evenodd" d="M177 93C177 91.3431 178.343 90 180 90H196C197.657 90 199 91.3431 199 93V107C199 108.657 197.657 110 196 110H180C178.343 110 177 108.657 177 107V93ZM180 92C179.448 92 179 92.4477 179 93V107C179 107.552 179.448 108 180 108H196C196.552 108 197 107.552 197 107V93C197 92.4477 196.552 92 196 92H180Z" fill="#414F58"/>
<path fill-rule="evenodd" clip-rule="evenodd" d="M177 93C177 91.3431 178.343 90 180 90H196C197.657 90 199 91.3431 199 93C199 94.6569 197.657 96 196 96H180C178.343 96 177 94.6569 177 93ZM180 92C179.448 92 179 92.4477 179 93C179 93.5523 179.448 94 180 94H196C196.552 94 197 93.5523 197 93C197 92.4477 196.552 92 196 92H180Z" fill="#414F58"/>
<path d="M181 99C181 98.4477 181.448 98 182 98H183C183.552 98 184 98.4477 184 99V100C184 100.552 183.552 101 183 101H182C181.448 101 181 100.552 181 100V99Z" fill="#414F58"/>
<path d="M191 99C191 98.4477 191.448 98 192 98H193C193.552 98 194 98.4477 194 99V100C194 100.552 193.552 101 193 101H192C191.448 101 191 100.552 191 100V99Z" fill="#414F58"/>
<path d="M186 99.5C186 98.6716 186.672 98 187.5 98C188.328 98 189 98.6716 189 99.5C189 100.328 188.328 101 187.5 101C186.672 101 186 100.328 186 99.5Z" fill="#414F58"/>
<path d="M181 104C181 103.448 181.448 103 182 103H183C183.552 103 184 103.448 184 104V105C184 105.552 183.552 106 183 106H182C181.448 106 181 105.552 181 105V104Z" fill="#414F58"/>
<path d="M186 104C186 103.448 186.448 103 187 103H188C188.552 103 189 103.448 189 104V105C189 105.552 188.552 106 188 106H187C186.448 106 186 105.552 186 105V104Z" fill="#414F58"/>
<path fill-rule="evenodd" clip-rule="evenodd" d="M188 137C188.552 137 189 137.448 189 138V139H191C191.552 139 192 139.448 192 140C192 140.552 191.552 141 191 141H189V143H190C191.657 143 193 144.343 193 146C193 147.657 191.657 149 190 149H189V150C189 150.552 188.552 151 188 151C187.448 151 187 150.552 187 150V149H185C184.448 149 184 148.552 184 148C184 147.448 184.448 147 185 147H187V145H186C184.343 145 183 143.657 183 142C183 140.343 184.343 139 186 139H187V138C187 137.448 187.448 137 188 137ZM187 141H186C185.448 141 185 141.448 185 142C185 142.552 185.448 143 186 143H187V141ZM189 145V147H190C190.552 147 191 146.552 191 146C191 145.448 190.552 145 190 145H189Z" fill="#414F58"/>
<path fill-rule="evenodd" clip-rule="evenodd" d="M188 136C183.582 136 180 139.582 180 144C180 148.418 183.582 152 188 152C192.418 152 196 148.418 196 144C196 139.582 192.418 136 188 136ZM178 144C178 138.477 182.477 134 188 134C193.523 134 198 138.477 198 144C198 149.523 193.523 154 188 154C182.477 154 178 149.523 178 144Z" fill="#414F58"/>
<path fill-rule="evenodd" clip-rule="evenodd" d="M231 137C227.134 137 224 140.134 224 144C224 147.866 227.134 151 231 151C232.776 151 234.395 150.34 235.63 149.25C236.044 148.885 236.676 148.924 237.041 149.338C237.407 149.752 237.367 150.384 236.953 150.75C235.367 152.15 233.282 153 231 153C226.029 153 222 148.971 222 144C222 139.029 226.029 135 231 135C235.034 135 238.448 137.654 239.591 141.31L240.168 140.445C240.474 139.986 241.095 139.862 241.555 140.168C242.014 140.474 242.138 141.095 241.832 141.555L239.832 144.555C239.526 145.014 238.905 145.138 238.445 144.832L235.445 142.832C234.986 142.526 234.862 141.905 235.168 141.445C235.474 140.986 236.095 140.862 236.555 141.168L237.687 141.923C236.802 139.071 234.143 137 231 137Z" fill="#414F58"/>
<path fill-rule="evenodd" clip-rule="evenodd" d="M178 49C178 47.3431 179.343 46 181 46H195C196.657 46 198 47.3431 198 49V56C198 57.6569 196.657 59 195 59H181C179.343 59 178 57.6569 178 56V49ZM181 48C180.448 48 180 48.4477 180 49V56C180 56.5523 180.448 57 181 57H195C195.552 57 196 56.5523 196 56V49C196 48.4477 195.552 48 195 48H181Z" fill="#414F58"/>
<path fill-rule="evenodd" clip-rule="evenodd" d="M178 64C178 62.3431 179.343 61 181 61H195C196.657 61 198 62.3431 198 64V65C198 65.5523 197.552 66 197 66C196.448 66 196 65.5523 196 65V64C196 63.4477 195.552 63 195 63H181C180.448 63 180 63.4477 180 64V65C180 65.5523 179.552 66 179 66C178.448 66 178 65.5523 178 65V64Z" fill="#414F58"/>
<path fill-rule="evenodd" clip-rule="evenodd" d="M194.997 52.642C195.026 53.0418 194.814 53.4202 194.457 53.6036L190 55.8959V57C190 57.5523 189.552 58 189 58C188.448 58 188 57.5523 188 57V51C188 50.677 188.156 50.374 188.419 50.1863C188.682 49.9986 189.019 49.9493 189.324 50.0541L194.324 51.7683C194.703 51.8983 194.968 52.2422 194.997 52.642ZM190 53.6469L191.455 52.8988L190 52.4V53.6469Z" fill="#414F58"/>
<path fill-rule="evenodd" clip-rule="evenodd" d="M178 54C178 53.4477 178.448 53 179 53H183C183.552 53 184 53.4477 184 54C184 54.5523 183.552 55 183 55H179C178.448 55 178 54.5523 178 54Z" fill="#414F58"/>
<path fill-rule="evenodd" clip-rule="evenodd" d="M178 51C178 50.4477 178.448 50 179 50H185C185.552 50 186 50.4477 186 51C186 51.5523 185.552 52 185 52H179C178.448 52 178 51.5523 178 51Z" fill="#414F58"/>
<path fill-rule="evenodd" clip-rule="evenodd" d="M237.578 6.42189C236.896 5.73985 235.79 5.73985 235.108 6.4219L234.828 6.70166L237.298 9.17156L237.578 8.89179C238.26 8.20975 238.26 7.10394 237.578 6.42189ZM235.948 10.5224L233.478 8.05249L227.665 13.8655L230.134 16.3354L235.948 10.5224ZM228.366 17.2688L226.731 15.6338L225.914 18.0863L228.366 17.2688ZM233.757 5.07106C235.185 3.64298 237.501 3.64298 238.929 5.07106C240.357 6.49915 240.357 8.81453 238.929 10.2426L230.81 18.3617C230.705 18.4665 230.577 18.5455 230.437 18.5924L226.518 19.8987C225.024 20.3965 223.604 18.9757 224.101 17.4822L225.408 13.5635C225.454 13.4228 225.533 13.295 225.638 13.1901L233.757 5.07106Z" fill="#414F58"/>
<path fill-rule="evenodd" clip-rule="evenodd" d="M145.889 102.222C148.159 102.222 150 100.382 150 98.1111C150 95.8406 148.159 94 145.889 94C143.618 94 141.778 95.8406 141.778 98.1111C141.778 100.382 143.618 102.222 145.889 102.222ZM145.889 104.222C149.264 104.222 152 101.486 152 98.1111C152 94.736 149.264 92 145.889 92C142.514 92 139.778 94.736 139.778 98.1111C139.778 101.486 142.514 104.222 145.889 104.222Z" fill="#414F58"/>
<path fill-rule="evenodd" clip-rule="evenodd" d="M142.707 101.293C143.098 101.683 143.098 102.316 142.707 102.707L137.707 107.707C137.317 108.097 136.683 108.097 136.293 107.707C135.902 107.316 135.902 106.683 136.293 106.293L141.293 101.293C141.683 100.902 142.317 100.902 142.707 101.293Z" fill="#414F58"/>
<path fill-rule="evenodd" clip-rule="evenodd" d="M142 137C141.448 137 141 137.448 141 138H147C147 137.448 146.552 137 146 137H142ZM149 138C149 136.343 147.657 135 146 135H142C140.343 135 139 136.343 139 138C137.343 138 136 139.343 136 141V142C136 142.74 136.402 143.387 137 143.732V151C137 152.657 138.343 154 140 154H148C149.657 154 151 152.657 151 151V143.732C151.598 143.387 152 142.74 152 142V141C152 139.343 150.657 138 149 138ZM149 144H139V151C139 151.552 139.448 152 140 152H148C148.552 152 149 151.552 149 151V144ZM139 140C138.448 140 138 140.448 138 141V142H150V141C150 140.448 149.552 140 149 140H139ZM142 145C142.552 145 143 145.448 143 146V150C143 150.552 142.552 151 142 151C141.448 151 141 150.552 141 150V146C141 145.448 141.448 145 142 145ZM146 145C146.552 145 147 145.448 147 146V150C147 150.552 146.552 151 146 151C145.448 151 145 150.552 145 150V146C145 145.448 145.448 145 146 145Z" fill="#414F58"/>
<path d="M145.352 60.2941C145.514 60.8219 146.074 61.1182 146.602 60.9558C147.13 60.7934 147.426 60.2338 147.264 59.7059L146.895 58.5092C147.429 58.3237 147.95 58.0858 148.451 57.7964L149.265 58.6783C149.64 59.0841 150.273 59.1094 150.678 58.7348C151.084 58.3602 151.11 57.7275 150.735 57.3217L150.078 56.6106C150.725 56.0275 151.317 55.3396 151.836 54.5486C152.139 54.0869 152.011 53.467 151.549 53.1639C151.087 52.8609 150.467 52.9896 150.164 53.4513C148.59 55.8504 146.272 57 144 57C141.728 57 139.411 55.8503 137.836 53.4513C137.533 52.9896 136.913 52.8609 136.451 53.1639C135.99 53.467 135.861 54.0869 136.164 54.5486C136.683 55.3396 137.275 56.0275 137.922 56.6106L137.265 57.3217C136.891 57.7275 136.916 58.3602 137.322 58.7348C137.728 59.1094 138.36 59.0841 138.735 58.6783L139.549 57.7964C140.051 58.0858 140.571 58.3237 141.105 58.5092L140.737 59.7059C140.574 60.2338 140.87 60.7933 141.398 60.9558C141.926 61.1182 142.486 60.8219 142.648 60.2941L143.062 58.9496C143.373 58.9832 143.686 59 144 59C144.314 59 144.627 58.9832 144.938 58.9496L145.352 60.2941Z" fill="#414F58"/>
<path fill-rule="evenodd" clip-rule="evenodd" d="M141.398 7.04423C141.926 6.88181 142.486 7.17806 142.648 7.70592L143.06 9.0446C143.685 8.98516 144.315 8.98513 144.94 9.04453L145.352 7.70592C145.514 7.17806 146.074 6.88181 146.602 7.04423C147.13 7.20665 147.426 7.76623 147.263 8.29409L146.912 9.43684C147.47 9.60854 148.016 9.83086 148.543 10.1038L149.265 9.32173C149.64 8.91591 150.272 8.8906 150.678 9.2652C151.084 9.63981 151.109 10.2725 150.735 10.6783L150.237 11.2171C150.69 11.5862 151.117 12.0013 151.513 12.4625C151.812 12.8111 151.793 13.3205 151.465 13.6421C149.678 15.3927 143.639 20.2141 136.615 13.6745C136.256 13.3401 136.211 12.7801 136.533 12.41C136.916 11.9699 137.328 11.5724 137.763 11.2175L137.265 10.6783C136.891 10.2725 136.916 9.63981 137.322 9.2652C137.728 8.8906 138.36 8.91591 138.735 9.32173L139.457 10.1041C139.984 9.83111 140.53 9.60877 141.088 9.43704L140.737 8.29409C140.574 7.76623 140.87 7.20665 141.398 7.04423ZM141.389 14.4783C141.141 14.042 141 13.5375 141 13C141 12.4218 141.164 11.8818 141.447 11.4237C140.505 11.7458 139.612 12.2515 138.822 12.9408C139.724 13.6608 140.581 14.1549 141.389 14.4783ZM146.603 14.4933C146.855 14.0535 147 13.5437 147 13C147 12.4217 146.836 11.8816 146.553 11.4235C147.507 11.7498 148.412 12.2646 149.209 12.968C148.538 13.5025 147.648 14.0886 146.603 14.4933ZM145 13C145 13.5523 144.552 14 144 14C143.448 14 143 13.5523 143 13C143 12.4477 143.448 12 144 12C144.552 12 145 12.4477 145 13Z" fill="#414F58"/>
<path fill-rule="evenodd" clip-rule="evenodd" d="M12.1805 4.26721C12.5852 4.64301 12.6086 5.27574 12.2328 5.68046L7.29321 11H19C19.5523 11 20 11.4477 20 12C20 12.5523 19.5523 13 19 13H7.29321L12.2328 18.3196C12.6086 18.7243 12.5852 19.357 12.1805 19.7328C11.7757 20.1086 11.143 20.0852 10.7672 19.6805L4.26721 12.6805C3.91093 12.2968 3.91093 11.7032 4.26721 11.3196L10.7672 4.31955C11.143 3.91484 11.7757 3.89141 12.1805 4.26721Z" fill="#414F58"/>
<path fill-rule="evenodd" clip-rule="evenodd" d="M4.26721 143.82C4.64301 143.415 5.27574 143.391 5.68045 143.767L11 148.707L11 137C11 136.448 11.4477 136 12 136C12.5523 136 13 136.448 13 137L13 148.707L18.3196 143.767C18.7243 143.391 19.357 143.415 19.7328 143.82C20.1086 144.224 20.0852 144.857 19.6805 145.233L12.6805 151.733C12.2968 152.089 11.7032 152.089 11.3196 151.733L4.31955 145.233C3.91484 144.857 3.89141 144.224 4.26721 143.82Z" fill="#414F58"/>
<path fill-rule="evenodd" clip-rule="evenodd" d="M19.7328 100.18C19.357 100.585 18.7243 100.609 18.3195 100.233L13 95.2932L13 107C13 107.552 12.5523 108 12 108C11.4477 108 11 107.552 11 107L11 95.2932L5.68045 100.233C5.27574 100.609 4.643 100.585 4.2672 100.18C3.8914 99.7757 3.91483 99.143 4.31954 98.7672L11.3195 92.2672C11.7032 91.9109 12.2968 91.9109 12.6804 92.2672L19.6804 98.7672C20.0852 99.143 20.1086 99.7757 19.7328 100.18Z" fill="#414F58"/>
<path fill-rule="evenodd" clip-rule="evenodd" d="M11.8195 63.7328C11.4148 63.357 11.3914 62.7243 11.7672 62.3195L16.7068 57L5 57C4.44772 57 4 56.5523 4 56C4 55.4477 4.44772 55 5 55L16.7068 55L11.7672 49.6804C11.3914 49.2757 11.4148 48.643 11.8195 48.2672C12.2243 47.8914 12.857 47.9148 13.2328 48.3195L19.7328 55.3195C20.0891 55.7032 20.0891 56.2968 19.7328 56.6804L13.2328 63.6804C12.857 64.0852 12.2243 64.1086 11.8195 63.7328Z" fill="#414F58"/>
<path fill-rule="evenodd" clip-rule="evenodd" d="M234.351 49.1556C234.032 49.1025 233.708 49.2065 233.479 49.4349L231.793 51.1213C231.605 51.3089 231.5 51.5632 231.5 51.8284V54.5576C231.5 55.1211 231.262 55.6585 230.845 56.0375L226 60.4424V62.5H227.5V61.5C227.5 60.9477 227.948 60.5 228.5 60.5H229.5V59.5C229.5 58.9477 229.948 58.5 230.5 58.5H232.086L233 57.5858C233.375 57.2107 233.884 57 234.414 57H236.672C236.937 57 237.191 56.8947 237.379 56.7071L239.065 55.0207C239.293 54.7923 239.397 54.4677 239.344 54.1492L239.218 53.3918C238.867 51.2844 237.216 49.6331 235.108 49.2818L234.351 49.1556ZM229.5 62.5V63.5C229.5 64.0523 229.052 64.5 228.5 64.5H225C224.448 64.5 224 64.0523 224 63.5V60C224 59.7183 224.119 59.4496 224.327 59.2601L229.5 54.5576V51.8284C229.5 51.0328 229.816 50.2697 230.379 49.7071L232.065 48.0207C232.75 47.3356 233.724 47.0235 234.68 47.1828L235.437 47.309C238.387 47.8008 240.699 50.1127 241.191 53.063L241.317 53.8204C241.476 54.776 241.164 55.7498 240.479 56.4349L238.793 58.1213C238.23 58.6839 237.467 59 236.672 59H234.414L233.207 60.2071C233.02 60.3947 232.765 60.5 232.5 60.5H231.5V61.5C231.5 62.0523 231.052 62.5 230.5 62.5H229.5Z" fill="#414F58"/>
<path d="M237 53C237 53.8284 236.328 54.5 235.5 54.5C234.672 54.5 234 53.8284 234 53C234 52.1716 234.672 51.5 235.5 51.5C236.328 51.5 237 52.1716 237 53Z" fill="#414F58"/>
<path fill-rule="evenodd" clip-rule="evenodd" d="M225.118 96.2485C225.811 93.2221 228.689 91 232 91C235.888 91 239 94.3635 239 98V98.1501C241.276 98.6965 243 100.514 243 103C243 104.383 242.547 105.647 241.649 106.571C240.746 107.499 239.475 108 238 108H236C235.448 108 235 107.552 235 107C235 106.448 235.448 106 236 106H238C239.011 106 239.739 105.666 240.215 105.177C240.695 104.683 241 103.947 241 103C241 101.411 239.785 100.156 237.915 99.9964C237.397 99.9521 237 99.5193 237 99V98C237 95.4233 234.739 93 232 93C229.382 93 227.272 94.8703 226.992 97.123C226.944 97.5175 226.666 97.8456 226.285 97.9587C224.301 98.5475 223 100.241 223 102C223 104.122 225.048 106 228 106C228.552 106 229 106.448 229 107C229 107.552 228.552 108 228 108C224.325 108 221 105.573 221 102C221 99.449 222.709 97.2085 225.118 96.2485Z" fill="#414F58"/>
<path fill-rule="evenodd" clip-rule="evenodd" d="M228.293 102.707C227.902 102.317 227.902 101.683 228.293 101.293L231.293 98.2929C231.683 97.9024 232.317 97.9024 232.707 98.2929L235.707 101.293C236.098 101.683 236.098 102.317 235.707 102.707C235.317 103.098 234.683 103.098 234.293 102.707L233 101.414L233 108C233 108.552 232.552 109 232 109C231.448 109 231 108.552 231 108L231 101.414L229.707 102.707C229.317 103.098 228.683 103.098 228.293 102.707Z" fill="#414F58"/>
</svg>
