<svg width="165" height="224" viewBox="0 0 165 224" fill="none" xmlns="http://www.w3.org/2000/svg">
<rect x="8" y="47" width="98" height="38" rx="3" fill="#007B7D" stroke="#004748" stroke-width="2"/>
<rect x="4" y="43" width="106" height="46" rx="7" stroke="#DEF7F7" stroke-width="6"/>
<rect x="6" y="45" width="102" height="42" rx="5" stroke="#54DEDC" stroke-width="2"/>
<path fill-rule="evenodd" clip-rule="evenodd" d="M28.3334 61.3333C25.756 61.3333 23.6667 63.4227 23.6667 66C23.6667 68.5773 25.756 70.6667 28.3334 70.6667C29.5174 70.6667 30.5969 70.2266 31.42 69.5002C31.696 69.2565 32.1173 69.2828 32.361 69.5588C32.6046 69.8349 32.5783 70.2562 32.3023 70.4998C31.245 71.433 29.8546 72 28.3334 72C25.0197 72 22.3334 69.3137 22.3334 66C22.3334 62.6863 25.0197 60 28.3334 60C31.0225 60 33.2984 61.7691 34.0609 64.2069L34.4453 63.6302C34.6496 63.3238 35.0635 63.2411 35.3698 63.4453C35.6762 63.6495 35.759 64.0634 35.5547 64.3698L34.2214 66.3698C34.0172 66.6762 33.6033 66.7589 33.2969 66.5547L31.2969 65.2214C30.9906 65.0171 30.9078 64.6032 31.112 64.2969C31.3162 63.9905 31.7302 63.9077 32.0365 64.112L32.7911 64.615C32.2011 62.714 30.4285 61.3333 28.3334 61.3333Z" fill="white"/>
<path d="M51.816 66.816C52.968 66.432 53.608 65.712 53.608 64.64C53.608 63.12 52.68 62 49.976 62H46.152V72H50.04C52.936 72 53.928 70.784 53.928 69.136C53.928 67.952 53.128 67.104 51.816 66.816ZM51.656 64.896C51.656 65.76 51 66.288 49.752 66.288C49.72 66.288 48.072 66.288 48.072 66.288V63.568C48.072 63.568 49.832 63.568 49.912 63.568C51.048 63.568 51.656 64.048 51.656 64.896ZM51.96 69.056C51.96 69.968 51.32 70.432 50.008 70.432C49.896 70.432 48.072 70.432 48.072 70.432V67.712C48.072 67.712 49.832 67.712 49.864 67.712C51.096 67.712 51.96 68.064 51.96 69.056ZM55.4284 64.624V69.696C55.4284 71.28 56.3084 72.24 57.7484 72.24C58.6924 72.24 59.5724 71.776 60.1804 71.12C60.1804 71.184 60.1804 72.208 60.1804 72.208L62.0684 71.952V64.624H60.1804V69.92C59.8284 70.256 59.2364 70.56 58.5644 70.56C57.7644 70.56 57.3164 70.208 57.3164 69.12V64.624H55.4284ZM68.4061 71.952L68.1501 70.416C67.7661 70.544 67.3821 70.64 66.9981 70.64C66.3581 70.64 66.0061 70.32 66.0221 69.632L66.1181 66.224H68.2621L68.3101 64.672H66.2301L66.2621 62.944H64.4381L64.4061 64.576L63.2541 64.944L63.2061 66.144L64.3581 66.272L64.2461 69.744C64.1821 71.52 65.0461 72.24 66.6941 72.24C67.3341 72.24 67.8461 72.144 68.4061 71.952ZM74.1405 71.952L73.8845 70.416C73.5005 70.544 73.1165 70.64 72.7325 70.64C72.0925 70.64 71.7405 70.32 71.7565 69.632L71.8525 66.224H73.9965L74.0445 64.672H71.9645L71.9965 62.944H70.1725L70.1405 64.576L68.9885 64.944L68.9405 66.144L70.0925 66.272L69.9805 69.744C69.9165 71.52 70.7805 72.24 72.4285 72.24C73.0685 72.24 73.5805 72.144 74.1405 71.952ZM82.5968 68.304C82.5968 65.872 81.0448 64.368 78.8688 64.368C76.6928 64.368 75.0448 65.888 75.0448 68.32C75.0448 70.768 76.6128 72.24 78.7728 72.24C80.9328 72.24 82.5968 70.72 82.5968 68.304ZM80.7248 68.32C80.7248 69.744 80.0528 70.704 78.8368 70.704C77.6048 70.704 76.9008 69.712 76.9008 68.304C76.9008 66.88 77.5728 65.888 78.8048 65.888C80.0208 65.888 80.7248 66.896 80.7248 68.32ZM90.8679 72V66.928C90.8679 65.344 89.9879 64.384 88.4999 64.384C87.6039 64.384 86.7239 64.848 86.0679 65.568C86.0679 65.52 86.0679 64.4 86.0679 64.4L84.1799 64.656V72H86.0679V66.736C86.4359 66.384 87.0439 66.048 87.6999 66.048C88.5479 66.048 88.9799 66.416 88.9799 67.504V72H90.8679Z" fill="white"/>
<rect x="10.5" y="49.5" width="93" height="33" stroke="#CC005C"/>
<rect x="19" y="56" width="19" height="20" stroke="#CC005C"/>
<rect x="41" y="58" width="54" height="18" stroke="#CC005C"/>
<path d="M25 83V108.5" stroke="#CC005C"/>
<path d="M66 85L66 109" stroke="#CC005C"/>
<path d="M126 81L108 81" stroke="#CC005C"/>
<path d="M111 53L139 53" stroke="#CC005C"/>
<circle cx="25" cy="14" r="14" fill="#CC005C"/>
<path d="M28.334 20L28.28 17.768C28.28 17.768 23.42 17.768 23.582 17.768C26.552 15.248 28.01 13.844 28.01 11.9C28.01 10.064 26.696 8.642 24.266 8.642C22.826 8.642 21.44 9.236 20.504 9.956L21.35 11.936C22.052 11.342 22.916 10.892 23.798 10.892C24.698 10.892 25.31 11.504 25.31 12.314C25.31 13.844 23.852 14.924 20.54 18.074L20.594 20H28.334Z" fill="white"/>
<circle cx="67" cy="14" r="14" fill="#CC005C"/>
<path d="M65.834 20H68.588V8.696L63.224 9.794L63.296 12.08L65.834 11.54V20Z" fill="white"/>
<path d="M67 28V58" stroke="#CC005C"/>
<path d="M25 28V56" stroke="#CC005C"/>
<circle cx="151" cy="53" r="14" fill="#CC005C"/>
<path d="M146.414 54.338C146.414 57.164 147.872 59.288 150.536 59.288C153.146 59.288 154.604 57.47 154.604 55.202C154.604 53.114 153.29 51.818 151.598 51.818C150.59 51.818 149.744 52.304 149.06 52.862L148.988 52.808C149.438 51.116 151.166 49.928 153.47 49.514L152.894 47.534C148.79 48.164 146.414 51.008 146.414 54.338ZM148.988 55.148C148.988 54.896 149.006 54.662 149.06 54.41C149.366 54.104 149.996 53.762 150.608 53.762C151.526 53.762 152.102 54.41 152.102 55.436C152.102 56.588 151.49 57.29 150.608 57.29C149.528 57.29 148.988 56.282 148.988 55.148Z" fill="white"/>
<circle cx="66" cy="109" r="14" fill="#CC005C"/>
<path d="M69.784 112.372L69.73 110.32H68.452V103.804H65.338L61.324 110.554L61.45 112.372H66.112V115H68.452V112.372H69.784ZM66.184 110.41H63.502L66.184 105.82V110.41Z" fill="white"/>
<circle cx="134" cy="81" r="14" fill="#CC005C"/>
<path d="M132.348 80.232L132.618 78.072H137.064L137.01 75.876H130.566L129.828 81.96L130.188 82.356C130.71 82.122 131.538 81.942 132.51 81.942C133.878 81.942 134.688 82.554 134.688 83.526C134.688 84.588 133.86 85.128 132.762 85.128C131.754 85.128 130.548 84.786 129.846 84.372L129.594 86.622C130.53 87.054 131.88 87.27 132.906 87.27C135.768 87.27 137.244 85.668 137.244 83.436C137.244 81.456 135.804 80.142 133.32 80.142C132.96 80.142 132.564 80.196 132.348 80.232Z" fill="white"/>
<circle cx="25" cy="109" r="14" fill="#CC005C"/>
<path d="M25.13 109.186C26.93 108.7 27.884 107.764 27.884 106.45C27.884 104.578 26.372 103.642 24.194 103.642C22.736 103.642 21.476 104.128 20.54 104.74L21.314 106.72C21.998 106.216 23.042 105.82 23.924 105.82C24.932 105.82 25.382 106.288 25.382 106.9C25.382 107.872 24.05 108.268 21.836 108.7V110.572C22.322 110.5 22.952 110.41 23.582 110.41C25.148 110.374 25.868 111.004 25.868 111.778C25.868 112.714 24.914 113.164 23.762 113.164C22.844 113.164 21.728 112.822 20.9 112.48L20.522 114.532C21.422 114.946 22.556 115.27 23.852 115.27C26.354 115.27 28.316 113.938 28.316 111.76C28.316 110.302 27.272 109.114 25.13 109.186Z" fill="white"/>
<rect x="4" y="182" width="33" height="4" rx="2" fill="#54DEDC"/>
<path d="M13.616 180V178.288H9.104V170H7.152V180H13.616ZM17.2294 170.144C17.2294 169.472 16.8134 169.008 16.0614 169.008C15.3254 169.008 14.9094 169.472 14.9094 170.144C14.9094 170.832 15.3254 171.28 16.0614 171.28C16.8134 171.28 17.2294 170.832 17.2294 170.144ZM17.0054 180V172.4L15.1174 172.672V180H17.0054ZM25.7116 180V174.928C25.7116 173.344 24.8316 172.384 23.3436 172.384C22.4476 172.384 21.5676 172.848 20.9116 173.568C20.9116 173.52 20.9116 172.4 20.9116 172.4L19.0236 172.656V180H20.9116V174.736C21.2796 174.384 21.8876 174.048 22.5436 174.048C23.3916 174.048 23.8236 174.416 23.8236 175.504V180H25.7116ZM29.5999 176.448L32.2559 180H34.5119L31.4399 176.128L34.4959 172.624H32.2399L29.5999 175.904H29.5679V169.056L27.6799 169.312V180H29.5679V176.448H29.5999Z" fill="#2E3942"/>
<path d="M22 184L22 205" stroke="#CC005C"/>
<circle cx="22" cy="210" r="14" fill="#CC005C"/>
<path d="M22.868 207.09L18.332 216H20.834L25.478 206.838L25.424 204.876H17.594L17.54 207.09H22.868Z" fill="white"/>
<path d="M40 175H69" stroke="#CC005C"/>
<rect x="1" y="168" width="39" height="14" stroke="#CC005C"/>
<circle cx="81" cy="174" r="14" fill="#CC005C"/>
<path d="M79.834 180H82.588V168.696L77.224 169.794L77.296 172.08L79.834 171.54V180Z" fill="white"/>
</svg>
