<svg width="108" height="95" viewBox="0 0 108 95" fill="none" xmlns="http://www.w3.org/2000/svg">
<rect y="42" width="80" height="10" rx="5" fill="#54DEDC"/>
<path d="M76.5 47H87C90.866 47 94 50.134 94 54V71.5" stroke="#54DEDC" stroke-width="3"/>
<circle cx="94" cy="81" r="14" fill="#54DEDC"/>
<path d="M94.868 78.09L90.332 87H92.834L97.478 77.838L97.424 75.876H89.594L89.54 78.09H94.868Z" fill="#004748"/>
<path d="M23.3173 33V28.72H12.0373V8H7.15734V33H23.3173ZM32.3508 8.36C32.3508 6.68 31.3108 5.52 29.4308 5.52C27.5908 5.52 26.5508 6.68 26.5508 8.36C26.5508 10.08 27.5908 11.2 29.4308 11.2C31.3108 11.2 32.3508 10.08 32.3508 8.36ZM31.7908 33V14L27.0708 14.68V33H31.7908ZM53.5564 33V20.32C53.5564 16.36 51.3564 13.96 47.6364 13.96C45.3964 13.96 43.1964 15.12 41.5564 16.92C41.5564 16.8 41.5564 14 41.5564 14L36.8364 14.64V33H41.5564V19.84C42.4764 18.96 43.9964 18.12 45.6364 18.12C47.7564 18.12 48.8364 19.04 48.8364 21.76V33H53.5564ZM63.277 24.12L69.917 33H75.557L67.877 23.32L75.517 14.56H69.877L63.277 22.76H63.197V5.64L58.477 6.28V33H63.197V24.12H63.277Z" fill="#2E3942"/>
</svg>
