<svg width="166" height="67" viewBox="0 0 166 67" fill="none" xmlns="http://www.w3.org/2000/svg">
<rect x="0.230469" y="0.230835" width="165.77" height="66.3078" rx="6.63078" fill="#CDDBE4"/>
<path fill-rule="evenodd" clip-rule="evenodd" d="M35.5949 25.6487C31.3224 25.6487 27.8589 29.1122 27.8589 33.3846C27.8589 37.6571 31.3224 41.1206 35.5949 41.1206C37.5575 41.1206 39.3471 40.3911 40.7115 39.1869C41.1691 38.783 41.8675 38.8265 42.2714 39.2841C42.6753 39.7417 42.6317 40.4401 42.1741 40.844C40.4214 42.3909 38.1166 43.3308 35.5949 43.3308C30.1017 43.3308 25.6487 38.8778 25.6487 33.3846C25.6487 27.8915 30.1017 23.4385 35.5949 23.4385C40.0526 23.4385 43.8254 26.3711 45.0893 30.4123L45.7266 29.4562C46.0652 28.9484 46.7513 28.8112 47.2592 29.1497C47.767 29.4883 47.9042 30.1744 47.5657 30.6823L45.3554 33.9977C45.0169 34.5055 44.3307 34.6427 43.8229 34.3042L40.5075 32.0939C39.9996 31.7554 39.8624 31.0692 40.201 30.5614C40.5395 30.0535 41.2257 29.9163 41.7335 30.2549L42.9844 31.0888C42.0063 27.9374 39.0679 25.6487 35.5949 25.6487Z" fill="black"/>
<path d="M74.522 34.5296C76.4317 33.893 77.4926 32.6995 77.4926 30.9224C77.4926 28.4027 75.9542 26.5461 71.4718 26.5461H65.1328V43.123H71.5779C76.3786 43.123 78.023 41.1073 78.023 38.3754C78.023 36.4127 76.6969 35.007 74.522 34.5296ZM74.2568 31.3468C74.2568 32.779 73.1693 33.6543 71.1005 33.6543C71.0475 33.6543 68.3156 33.6543 68.3156 33.6543V29.1454C68.3156 29.1454 71.2331 29.1454 71.3657 29.1454C73.2489 29.1454 74.2568 29.9411 74.2568 31.3468ZM74.7607 38.2428C74.7607 39.7546 73.6998 40.5238 71.5249 40.5238C71.3392 40.5238 68.3156 40.5238 68.3156 40.5238V36.0148C68.3156 36.0148 71.2331 36.0148 71.2862 36.0148C73.3285 36.0148 74.7607 36.5984 74.7607 38.2428ZM80.5102 30.8959V39.3037C80.5102 41.9295 81.969 43.5209 84.3561 43.5209C85.9209 43.5209 87.3797 42.7517 88.3876 41.6643C88.3876 41.7704 88.3876 43.4678 88.3876 43.4678L91.5173 43.0435V30.8959H88.3876V39.675C87.8041 40.232 86.8227 40.736 85.7087 40.736C84.3826 40.736 83.6399 40.1525 83.6399 38.3489V30.8959H80.5102ZM102.023 43.0435L101.599 40.4973C100.962 40.7094 100.326 40.8686 99.6893 40.8686C98.6284 40.8686 98.0449 40.3381 98.0714 39.1976L98.2306 33.5482H101.785L101.864 30.9755H98.4162L98.4693 28.111H95.4456L95.3926 30.8163L93.4829 31.4263L93.4034 33.4156L95.313 33.6278L95.1274 39.3833C95.0213 42.3274 96.4535 43.5209 99.1854 43.5209C100.246 43.5209 101.095 43.3618 102.023 43.0435ZM111.529 43.0435L111.105 40.4973C110.468 40.7094 109.832 40.8686 109.195 40.8686C108.134 40.8686 107.551 40.3381 107.577 39.1976L107.736 33.5482H111.291L111.37 30.9755H107.922L107.975 28.111H104.951L104.898 30.8163L102.989 31.4263L102.909 33.4156L104.819 33.6278L104.633 39.3833C104.527 42.3274 105.959 43.5209 108.691 43.5209C109.752 43.5209 110.601 43.3618 111.529 43.0435ZM125.547 36.9962C125.547 32.9647 122.974 30.4715 119.367 30.4715C115.76 30.4715 113.028 32.9912 113.028 37.0227C113.028 41.0808 115.627 43.5209 119.208 43.5209C122.789 43.5209 125.547 41.0012 125.547 36.9962ZM122.444 37.0227C122.444 39.3833 121.33 40.9747 119.314 40.9747C117.272 40.9747 116.105 39.3302 116.105 36.9962C116.105 34.6356 117.219 32.9912 119.261 32.9912C121.277 32.9912 122.444 34.6622 122.444 37.0227ZM139.258 43.123V34.7152C139.258 32.0894 137.799 30.498 135.333 30.498C133.847 30.498 132.389 31.2672 131.301 32.4608C131.301 32.3812 131.301 30.5246 131.301 30.5246L128.171 30.9489V43.123H131.301V34.3969C131.911 33.8134 132.919 33.2564 134.007 33.2564C135.412 33.2564 136.128 33.8665 136.128 35.67V43.123H139.258Z" fill="black"/>
<path d="M1.05957 34.4624H22.6096M1.05957 34.4624V30.1523M1.05957 34.4624V38.7724M22.6096 34.4624V30.1523M22.6096 34.4624V38.7724" stroke="#CC005C" stroke-width="2" stroke-linecap="round" stroke-linejoin="round"/>
<path d="M82.9498 2.13721L82.9498 19.3772M82.9498 2.13721L87.2598 2.13721M82.9498 2.13721L78.6397 2.13721M82.9498 19.3772L87.2598 19.3772M82.9498 19.3772L78.6397 19.3772" stroke="#D16900" stroke-width="2" stroke-linecap="round" stroke-linejoin="round"/>
<path d="M143.29 34.4624H164.84M143.29 34.4624V30.1523M143.29 34.4624V38.7724M164.84 34.4624V30.1523M164.84 34.4624V38.7724" stroke="#CC005C" stroke-width="2" stroke-linecap="round" stroke-linejoin="round"/>
<path d="M82.9498 47.3921L82.9498 64.6321M82.9498 47.3921L87.2598 47.3921M82.9498 47.3921L78.6397 47.3921M82.9498 64.6321L87.2598 64.6321M82.9498 64.6321L78.6397 64.6321" stroke="#D16900" stroke-width="2" stroke-linecap="round" stroke-linejoin="round"/>
<path d="M50.6248 34.4624H63.5548M50.6248 34.4624V30.1523M50.6248 34.4624V38.7724M63.5548 34.4624V30.1523M63.5548 34.4624V38.7724" stroke="#0077CC" stroke-width="2" stroke-linecap="round" stroke-linejoin="round"/>
</svg>
