<svg width="223" height="137" viewBox="0 0 223 137" fill="none" xmlns="http://www.w3.org/2000/svg">
<rect x="-4.66463" y="4.66463" width="159.329" height="72.3293" rx="10.8841" transform="matrix(1 0 0 -1 10 91.3293)" fill="#007B7D" stroke="#DEF7F7" stroke-width="9.32927"/>
<path d="M108.526 21C60.6005 21 37.4157 21 37.4157 21C37.4157 21 37.4157 21 37.4157 21H20.714H16C13.7909 21 12 22.7909 12 25V76.2131C12 78.4223 13.7909 80.2131 16 80.2131H135C139.418 80.2131 143 83.7948 143 88.2131V111" stroke="#004748" stroke-width="4"/>
<path d="M93.2652 17C43.1827 17 42.7921 17 42.7921 17C42.7921 17 42.7921 17 42.7921 17H27.1112H16C11.5817 17 8 20.5817 8 25V75.8211C8 80.2393 11.5817 83.8211 16 83.8211H93C97.4183 83.8211 101 87.4028 101 91.8211V109" stroke="#54DEDC" stroke-width="4"/>
<path d="M59.192 49.9395C60.9833 49.3424 61.9784 48.2229 61.9784 46.5561C61.9784 44.1927 60.5355 42.4512 56.3311 42.4512H50.3852V58H56.4306C60.9335 58 62.4759 56.1093 62.4759 53.5468C62.4759 51.7059 61.232 50.3873 59.192 49.9395ZM58.9433 46.9541C58.9433 48.2976 57.9233 49.1185 55.9828 49.1185C55.933 49.1185 53.3706 49.1185 53.3706 49.1185V44.8893C53.3706 44.8893 56.1072 44.8893 56.2316 44.8893C57.9979 44.8893 58.9433 45.6356 58.9433 46.9541ZM59.4159 53.4224C59.4159 54.8405 58.4208 55.562 56.3808 55.562C56.2067 55.562 53.3706 55.562 53.3706 55.562V51.3327C53.3706 51.3327 56.1072 51.3327 56.1569 51.3327C58.0725 51.3327 59.4159 51.88 59.4159 53.4224ZM64.8088 46.5312V54.4176C64.8088 56.8805 66.1771 58.3732 68.4162 58.3732C69.884 58.3732 71.2523 57.6517 72.1976 56.6317C72.1976 56.7312 72.1976 58.3234 72.1976 58.3234L75.1332 57.9254V46.5312H72.1976V54.7659C71.6503 55.2883 70.7298 55.761 69.6849 55.761C68.441 55.761 67.7445 55.2137 67.7445 53.522V46.5312H64.8088ZM84.9877 57.9254L84.5896 55.5371C83.9925 55.7361 83.3955 55.8854 82.7984 55.8854C81.8033 55.8854 81.256 55.3878 81.2808 54.318L81.4301 49.019H84.7638L84.8384 46.6059H81.6042L81.654 43.919H78.8179L78.7681 46.4566L76.9769 47.0288L76.9023 48.8946L78.6935 49.0937L78.5194 54.4922C78.4199 57.2537 79.7633 58.3732 82.3257 58.3732C83.3208 58.3732 84.1169 58.2239 84.9877 57.9254ZM93.9039 57.9254L93.5059 55.5371C92.9088 55.7361 92.3117 55.8854 91.7146 55.8854C90.7195 55.8854 90.1722 55.3878 90.1971 54.318L90.3464 49.019H93.68L93.7546 46.6059H90.5205L90.5703 43.919H87.7342L87.6844 46.4566L85.8932 47.0288L85.8185 48.8946L87.6098 49.0937L87.4356 54.4922C87.3361 57.2537 88.6795 58.3732 91.242 58.3732C92.2371 58.3732 93.0332 58.2239 93.9039 57.9254ZM107.052 52.2532C107.052 48.4717 104.639 46.1332 101.256 46.1332C97.8724 46.1332 95.3099 48.4966 95.3099 52.278C95.3099 56.0844 97.748 58.3732 101.107 58.3732C104.465 58.3732 107.052 56.0098 107.052 52.2532ZM104.142 52.278C104.142 54.4922 103.097 55.9849 101.206 55.9849C99.2904 55.9849 98.1958 54.4424 98.1958 52.2532C98.1958 50.039 99.2406 48.4966 101.156 48.4966C103.047 48.4966 104.142 50.0639 104.142 52.278ZM119.913 58V50.1137C119.913 47.6507 118.545 46.158 116.231 46.158C114.838 46.158 113.47 46.8795 112.45 47.999C112.45 47.9244 112.45 46.1829 112.45 46.1829L109.514 46.581V58H112.45V49.8151C113.022 49.2678 113.967 48.7454 114.987 48.7454C116.306 48.7454 116.977 49.3176 116.977 51.0093V58H119.913Z" fill="white"/>
<path d="M197 14L150 14" stroke="#DEF7F7" stroke-width="9"/>
<circle cx="143" cy="123" r="14" fill="#004748"/>
<path d="M146.784 126.372L146.73 124.32H145.452V117.804H142.338L138.324 124.554L138.45 126.372H143.112V129H145.452V126.372H146.784ZM143.184 124.41H140.502L143.184 119.82V124.41Z" fill="white"/>
<circle cx="101" cy="123" r="14" fill="#54DEDC"/>
<path d="M99.348 122.232L99.618 120.072H104.064L104.01 117.876H97.566L96.828 123.96L97.188 124.356C97.71 124.122 98.538 123.942 99.51 123.942C100.878 123.942 101.688 124.554 101.688 125.526C101.688 126.588 100.86 127.128 99.762 127.128C98.754 127.128 97.548 126.786 96.846 126.372L96.594 128.622C97.53 129.054 98.88 129.27 99.906 129.27C102.768 129.27 104.244 127.668 104.244 125.436C104.244 123.456 102.804 122.142 100.32 122.142C99.96 122.142 99.564 122.196 99.348 122.232Z" fill="#004748"/>
<circle cx="209" cy="14" r="14" fill="#DEF7F7"/>
<path d="M204.414 15.338C204.414 18.164 205.872 20.288 208.536 20.288C211.146 20.288 212.604 18.47 212.604 16.202C212.604 14.114 211.29 12.818 209.598 12.818C208.59 12.818 207.744 13.304 207.06 13.862L206.988 13.808C207.438 12.116 209.166 10.928 211.47 10.514L210.894 8.534C206.79 9.164 204.414 12.008 204.414 15.338ZM206.988 16.148C206.988 15.896 207.006 15.662 207.06 15.41C207.366 15.104 207.996 14.762 208.608 14.762C209.526 14.762 210.102 15.41 210.102 16.436C210.102 17.588 209.49 18.29 208.608 18.29C207.528 18.29 206.988 17.282 206.988 16.148Z" fill="#005F61"/>
</svg>
