<svg width="164" height="123" viewBox="0 0 164 123" fill="none" xmlns="http://www.w3.org/2000/svg">
<rect x="7" y="47" width="98" height="38" rx="3" fill="#007B7D" stroke="#004748" stroke-width="2"/>
<rect x="3" y="43" width="106" height="46" rx="7" stroke="#DEF7F7" stroke-width="6"/>
<rect x="5" y="45" width="102" height="42" rx="5" stroke="#54DEDC" stroke-width="2"/>
<path fill-rule="evenodd" clip-rule="evenodd" d="M27.3334 61.3333C24.756 61.3333 22.6667 63.4227 22.6667 66C22.6667 68.5773 24.756 70.6667 27.3334 70.6667C28.5174 70.6667 29.5969 70.2266 30.42 69.5002C30.696 69.2565 31.1173 69.2828 31.361 69.5588C31.6046 69.8349 31.5783 70.2562 31.3023 70.4998C30.245 71.433 28.8546 72 27.3334 72C24.0197 72 21.3334 69.3137 21.3334 66C21.3334 62.6863 24.0197 60 27.3334 60C30.0225 60 32.2984 61.7691 33.0609 64.2069L33.4453 63.6302C33.6496 63.3238 34.0635 63.2411 34.3698 63.4453C34.6762 63.6495 34.759 64.0634 34.5547 64.3698L33.2214 66.3698C33.0172 66.6762 32.6033 66.7589 32.2969 66.5547L30.2969 65.2214C29.9906 65.0171 29.9078 64.6032 30.112 64.2969C30.3162 63.9905 30.7302 63.9077 31.0365 64.112L31.7911 64.615C31.2011 62.714 29.4285 61.3333 27.3334 61.3333Z" fill="white"/>
<path d="M50.816 66.816C51.968 66.432 52.608 65.712 52.608 64.64C52.608 63.12 51.68 62 48.976 62H45.152V72H49.04C51.936 72 52.928 70.784 52.928 69.136C52.928 67.952 52.128 67.104 50.816 66.816ZM50.656 64.896C50.656 65.76 50 66.288 48.752 66.288C48.72 66.288 47.072 66.288 47.072 66.288V63.568C47.072 63.568 48.832 63.568 48.912 63.568C50.048 63.568 50.656 64.048 50.656 64.896ZM50.96 69.056C50.96 69.968 50.32 70.432 49.008 70.432C48.896 70.432 47.072 70.432 47.072 70.432V67.712C47.072 67.712 48.832 67.712 48.864 67.712C50.096 67.712 50.96 68.064 50.96 69.056ZM54.4284 64.624V69.696C54.4284 71.28 55.3084 72.24 56.7484 72.24C57.6924 72.24 58.5724 71.776 59.1804 71.12C59.1804 71.184 59.1804 72.208 59.1804 72.208L61.0684 71.952V64.624H59.1804V69.92C58.8284 70.256 58.2364 70.56 57.5644 70.56C56.7644 70.56 56.3164 70.208 56.3164 69.12V64.624H54.4284ZM67.4061 71.952L67.1501 70.416C66.7661 70.544 66.3821 70.64 65.9981 70.64C65.3581 70.64 65.0061 70.32 65.0221 69.632L65.1181 66.224H67.2621L67.3101 64.672H65.2301L65.2621 62.944H63.4381L63.4061 64.576L62.2541 64.944L62.2061 66.144L63.3581 66.272L63.2461 69.744C63.1821 71.52 64.0461 72.24 65.6941 72.24C66.3341 72.24 66.8461 72.144 67.4061 71.952ZM73.1405 71.952L72.8845 70.416C72.5005 70.544 72.1165 70.64 71.7325 70.64C71.0925 70.64 70.7405 70.32 70.7565 69.632L70.8525 66.224H72.9965L73.0445 64.672H70.9645L70.9965 62.944H69.1725L69.1405 64.576L67.9885 64.944L67.9405 66.144L69.0925 66.272L68.9805 69.744C68.9165 71.52 69.7805 72.24 71.4285 72.24C72.0685 72.24 72.5805 72.144 73.1405 71.952ZM81.5968 68.304C81.5968 65.872 80.0448 64.368 77.8688 64.368C75.6928 64.368 74.0448 65.888 74.0448 68.32C74.0448 70.768 75.6128 72.24 77.7728 72.24C79.9328 72.24 81.5968 70.72 81.5968 68.304ZM79.7248 68.32C79.7248 69.744 79.0528 70.704 77.8368 70.704C76.6048 70.704 75.9008 69.712 75.9008 68.304C75.9008 66.88 76.5728 65.888 77.8048 65.888C79.0208 65.888 79.7248 66.896 79.7248 68.32ZM89.8679 72V66.928C89.8679 65.344 88.9879 64.384 87.4999 64.384C86.6039 64.384 85.7239 64.848 85.0679 65.568C85.0679 65.52 85.0679 64.4 85.0679 64.4L83.1799 64.656V72H85.0679V66.736C85.4359 66.384 86.0439 66.048 86.6999 66.048C87.5479 66.048 87.9799 66.416 87.9799 67.504V72H89.8679Z" fill="white"/>
<rect x="9.5" y="49.5" width="93" height="33" stroke="#CC005C"/>
<rect x="18" y="56" width="19" height="20" stroke="#CC005C"/>
<rect x="40" y="58" width="54" height="18" stroke="#CC005C"/>
<path d="M24 83V108.5" stroke="#CC005C"/>
<path d="M65 85L65 109" stroke="#CC005C"/>
<path d="M125 81L107 81" stroke="#CC005C"/>
<path d="M110 53L138 53" stroke="#CC005C"/>
<circle cx="24" cy="14" r="14" fill="#CC005C"/>
<path d="M27.334 20L27.28 17.768C27.28 17.768 22.42 17.768 22.582 17.768C25.552 15.248 27.01 13.844 27.01 11.9C27.01 10.064 25.696 8.642 23.266 8.642C21.826 8.642 20.44 9.236 19.504 9.956L20.35 11.936C21.052 11.342 21.916 10.892 22.798 10.892C23.698 10.892 24.31 11.504 24.31 12.314C24.31 13.844 22.852 14.924 19.54 18.074L19.594 20H27.334Z" fill="white"/>
<circle cx="66" cy="14" r="14" fill="#CC005C"/>
<path d="M64.834 20H67.588V8.696L62.224 9.794L62.296 12.08L64.834 11.54V20Z" fill="white"/>
<path d="M66 28V58" stroke="#CC005C"/>
<path d="M24 28V56" stroke="#CC005C"/>
<circle cx="150" cy="53" r="14" fill="#CC005C"/>
<path d="M145.414 54.338C145.414 57.164 146.872 59.288 149.536 59.288C152.146 59.288 153.604 57.47 153.604 55.202C153.604 53.114 152.29 51.818 150.598 51.818C149.59 51.818 148.744 52.304 148.06 52.862L147.988 52.808C148.438 51.116 150.166 49.928 152.47 49.514L151.894 47.534C147.79 48.164 145.414 51.008 145.414 54.338ZM147.988 55.148C147.988 54.896 148.006 54.662 148.06 54.41C148.366 54.104 148.996 53.762 149.608 53.762C150.526 53.762 151.102 54.41 151.102 55.436C151.102 56.588 150.49 57.29 149.608 57.29C148.528 57.29 147.988 56.282 147.988 55.148Z" fill="white"/>
<circle cx="65" cy="109" r="14" fill="#CC005C"/>
<path d="M68.784 112.372L68.73 110.32H67.452V103.804H64.338L60.324 110.554L60.45 112.372H65.112V115H67.452V112.372H68.784ZM65.184 110.41H62.502L65.184 105.82V110.41Z" fill="white"/>
<circle cx="133" cy="81" r="14" fill="#CC005C"/>
<path d="M131.348 80.232L131.618 78.072H136.064L136.01 75.876H129.566L128.828 81.96L129.188 82.356C129.71 82.122 130.538 81.942 131.51 81.942C132.878 81.942 133.688 82.554 133.688 83.526C133.688 84.588 132.86 85.128 131.762 85.128C130.754 85.128 129.548 84.786 128.846 84.372L128.594 86.622C129.53 87.054 130.88 87.27 131.906 87.27C134.768 87.27 136.244 85.668 136.244 83.436C136.244 81.456 134.804 80.142 132.32 80.142C131.96 80.142 131.564 80.196 131.348 80.232Z" fill="white"/>
<circle cx="24" cy="109" r="14" fill="#CC005C"/>
<path d="M24.13 109.186C25.93 108.7 26.884 107.764 26.884 106.45C26.884 104.578 25.372 103.642 23.194 103.642C21.736 103.642 20.476 104.128 19.54 104.74L20.314 106.72C20.998 106.216 22.042 105.82 22.924 105.82C23.932 105.82 24.382 106.288 24.382 106.9C24.382 107.872 23.05 108.268 20.836 108.7V110.572C21.322 110.5 21.952 110.41 22.582 110.41C24.148 110.374 24.868 111.004 24.868 111.778C24.868 112.714 23.914 113.164 22.762 113.164C21.844 113.164 20.728 112.822 19.9 112.48L19.522 114.532C20.422 114.946 21.556 115.27 22.852 115.27C25.354 115.27 27.316 113.938 27.316 111.76C27.316 110.302 26.272 109.114 24.13 109.186Z" fill="white"/>
</svg>
