<svg width="600" height="95" viewBox="0 0 600 95" fill="none" xmlns="http://www.w3.org/2000/svg">
<rect x="4" y="28" width="33" height="4" rx="2" fill="#54DEDC"/>
<path d="M13.616 26V24.288H9.104V16H7.152V26H13.616ZM17.2294 16.144C17.2294 15.472 16.8134 15.008 16.0614 15.008C15.3254 15.008 14.9094 15.472 14.9094 16.144C14.9094 16.832 15.3254 17.28 16.0614 17.28C16.8134 17.28 17.2294 16.832 17.2294 16.144ZM17.0054 26V18.4L15.1174 18.672V26H17.0054ZM25.7116 26V20.928C25.7116 19.344 24.8316 18.384 23.3436 18.384C22.4476 18.384 21.5676 18.848 20.9116 19.568C20.9116 19.52 20.9116 18.4 20.9116 18.4L19.0236 18.656V26H20.9116V20.736C21.2796 20.384 21.8876 20.048 22.5436 20.048C23.3916 20.048 23.8236 20.416 23.8236 21.504V26H25.7116ZM29.5999 22.448L32.2559 26H34.5119L31.4399 22.128L34.4959 18.624H32.2399L29.5999 21.904H29.5679V15.056L27.6799 15.312V26H29.5679V22.448H29.5999Z" fill="#2E3942"/>
<path d="M22 30L22 51" stroke="#CC005C"/>
<circle cx="22" cy="56" r="14" fill="#CC005C"/>
<path d="M25.334 62L25.28 59.768C25.28 59.768 20.42 59.768 20.582 59.768C23.552 57.248 25.01 55.844 25.01 53.9C25.01 52.064 23.696 50.642 21.266 50.642C19.826 50.642 18.44 51.236 17.504 51.956L18.35 53.936C19.052 53.342 19.916 52.892 20.798 52.892C21.698 52.892 22.31 53.504 22.31 54.314C22.31 55.844 20.852 56.924 17.54 60.074L17.594 62H25.334Z" fill="white"/>
<path d="M40 21H69" stroke="#CC005C"/>
<rect x="1" y="14" width="39" height="14" stroke="#CC005C"/>
<circle cx="81" cy="20" r="14" fill="#CC005C"/>
<path d="M79.834 26H82.588V14.696L77.224 15.794L77.296 18.08L79.834 17.54V26Z" fill="white"/>
<path d="M344.408 18H346.856V7.952L342.088 8.928L342.152 10.96L344.408 10.48V18ZM352.52 16.784C352.52 15.904 351.912 15.328 351.016 15.328C350.104 15.328 349.496 15.904 349.496 16.784C349.496 17.648 350.104 18.24 351.016 18.24C351.912 18.24 352.52 17.648 352.52 16.784ZM364.417 18V15.872H360.225V8H357.681V18H364.417ZM369.833 16.112C369.577 16.4 369.177 16.608 368.681 16.608C368.137 16.608 367.753 16.288 367.753 15.808C367.753 15.152 368.313 14.864 369.833 14.688V16.112ZM369.897 17.104C370.233 17.92 371.033 18.352 372.649 18.144L372.889 16.384C372.377 16.336 372.281 16.288 372.281 15.776L372.297 13.568C372.329 11.488 371.481 10.32 368.905 10.32C367.497 10.32 366.265 10.784 365.481 11.2L365.993 13.008C366.857 12.576 367.753 12.256 368.521 12.256C369.433 12.256 369.833 12.608 369.833 13.392V13.536C366.489 13.632 365.433 14.768 365.433 16.176C365.433 17.328 366.425 18.24 367.705 18.24C368.729 18.24 369.321 17.728 369.849 17.104H369.897ZM381.733 14.192C381.733 11.824 380.405 10.32 378.565 10.32C377.621 10.32 376.933 10.848 376.469 11.328C376.469 11.248 376.469 7.12 376.469 7.12L374.005 7.424V18.24L376.325 17.92C376.805 18.096 377.509 18.224 378.005 18.224C380.021 18.224 381.733 16.656 381.733 14.192ZM379.269 14.32C379.269 15.552 378.661 16.384 377.605 16.384C377.141 16.384 376.757 16.272 376.469 16.08C376.469 16.08 376.469 12.784 376.469 12.8C376.805 12.496 377.173 12.288 377.717 12.288C378.725 12.288 379.269 13.04 379.269 14.32ZM385.099 14.832L389.819 14.752C389.915 14.432 389.979 13.84 389.979 13.44C389.979 11.584 388.827 10.32 386.715 10.32C384.347 10.32 382.683 11.904 382.683 14.336C382.683 16.816 384.315 18.224 386.843 18.224C387.915 18.224 388.987 18 389.739 17.616L389.499 15.712C388.747 16.144 387.883 16.432 387.067 16.432C385.867 16.432 385.179 15.856 385.099 14.864V14.832ZM385.115 13.6C385.195 12.752 385.707 12.016 386.555 12.016C387.323 12.016 387.691 12.56 387.691 13.44C387.691 13.472 387.691 13.552 387.691 13.584L385.115 13.6ZM393.828 18V7.12L391.364 7.424V18H393.828ZM348.408 42L348.36 40.016C348.36 40.016 344.04 40.016 344.184 40.016C346.824 37.776 348.12 36.528 348.12 34.8C348.12 33.168 346.952 31.904 344.792 31.904C343.512 31.904 342.28 32.432 341.448 33.072L342.2 34.832C342.824 34.304 343.592 33.904 344.376 33.904C345.176 33.904 345.72 34.448 345.72 35.168C345.72 36.528 344.424 37.488 341.48 40.288L341.528 42H348.408ZM352.52 40.784C352.52 39.904 351.912 39.328 351.016 39.328C350.104 39.328 349.496 39.904 349.496 40.784C349.496 41.648 350.104 42.24 351.016 42.24C351.912 42.24 352.52 41.648 352.52 40.784ZM366.785 42V32H364.241V35.888H360.225V32H357.681V42H360.225V38.032H364.241V42H366.785ZM376.02 34.56H373.396L371.956 39.456L370.372 34.56H367.732L370.644 41.952L370.436 42.528C370.148 43.248 369.908 43.44 369.38 43.44C368.996 43.44 368.708 43.312 368.228 43.104L367.492 44.976C368.18 45.296 368.9 45.456 369.7 45.456C371.268 45.456 372.196 44.8 372.964 42.624L373.332 41.648L376.02 34.56ZM379.297 35.328C379.297 35.296 379.297 34.384 379.297 34.384L376.833 34.688V45.312H379.297V41.984C379.761 42.128 380.337 42.224 380.833 42.224C382.849 42.224 384.561 40.656 384.561 38.192C384.561 35.824 383.217 34.32 381.377 34.32C380.433 34.32 379.761 34.848 379.297 35.328ZM379.297 36.8C379.633 36.496 380.001 36.288 380.545 36.288C381.553 36.288 382.097 37.04 382.097 38.32C382.097 39.552 381.489 40.384 380.433 40.384C379.969 40.384 379.585 40.272 379.297 40.08C379.297 40.08 379.297 36.784 379.297 36.8ZM387.974 38.832L392.694 38.752C392.79 38.432 392.854 37.84 392.854 37.44C392.854 35.584 391.702 34.32 389.59 34.32C387.222 34.32 385.558 35.904 385.558 38.336C385.558 40.816 387.19 42.224 389.718 42.224C390.79 42.224 391.862 42 392.614 41.616L392.374 39.712C391.622 40.144 390.758 40.432 389.942 40.432C388.742 40.432 388.054 39.856 387.974 38.864V38.832ZM387.99 37.6C388.07 36.752 388.582 36.016 389.43 36.016C390.198 36.016 390.566 36.56 390.566 37.44C390.566 37.472 390.566 37.552 390.566 37.584L387.99 37.6ZM396.703 37.664C397.151 36.88 397.695 36.576 398.303 36.576C398.623 36.576 398.943 36.656 399.231 36.8L399.727 34.624C399.327 34.416 398.895 34.32 398.495 34.32C397.711 34.32 397.135 34.72 396.703 35.472V34.384L394.239 34.688V42H396.703V37.664ZM403.125 42V31.12L400.661 31.424V42H403.125ZM407.568 32.192C407.568 31.328 407.024 30.864 406.112 30.864C405.216 30.864 404.656 31.328 404.656 32.192C404.656 33.04 405.216 33.504 406.112 33.504C407.024 33.504 407.568 33.04 407.568 32.192ZM407.344 42V34.384L404.88 34.688V42H407.344ZM416.427 42V36.88C416.427 35.296 415.547 34.32 414.059 34.32C413.099 34.32 412.219 34.848 411.563 35.6C411.563 35.488 411.563 34.384 411.563 34.384L409.099 34.688V42H411.563V36.976C411.883 36.688 412.363 36.416 412.907 36.416C413.563 36.416 413.963 36.704 413.963 37.6V42H416.427ZM420.626 38.512L422.946 42H425.746L422.994 38.096L425.73 34.56H422.898L420.626 37.76H420.61V31.12L418.146 31.424V42H420.61V38.512H420.626ZM432.99 32.192C432.99 31.328 432.446 30.864 431.534 30.864C430.638 30.864 430.078 31.328 430.078 32.192C430.078 33.04 430.638 33.504 431.534 33.504C432.446 33.504 432.99 33.04 432.99 32.192ZM432.766 42V34.384L430.302 34.688V42H432.766ZM441.849 42V36.88C441.849 35.296 440.969 34.32 439.481 34.32C438.521 34.32 437.641 34.848 436.985 35.6C436.985 35.488 436.985 34.384 436.985 34.384L434.521 34.688V42H436.985V36.976C437.305 36.688 437.785 36.416 438.329 36.416C438.985 36.416 439.385 36.704 439.385 37.6V42H441.849ZM448.448 34.592C447.984 34.432 447.456 34.336 446.911 34.336C444.912 34.336 443.184 35.904 443.184 38.368C443.184 40.72 444.528 42.224 446.368 42.224C447.296 42.224 447.984 41.712 448.448 41.232C448.448 41.312 448.448 42 448.448 42H450.911V31.12L448.448 31.424V34.592ZM448.448 36.48C448.448 36.48 448.448 39.776 448.448 39.744C448.128 40.064 447.744 40.256 447.2 40.256C446.288 40.256 445.648 39.504 445.648 38.24C445.648 37.008 446.272 36.16 447.312 36.16C447.776 36.16 448.176 36.288 448.448 36.48ZM455.381 32.192C455.381 31.328 454.837 30.864 453.924 30.864C453.029 30.864 452.469 31.328 452.469 32.192C452.469 33.04 453.029 33.504 453.924 33.504C454.837 33.504 455.381 33.04 455.381 32.192ZM455.157 42V34.384L452.693 34.688V42H455.157ZM463.279 41.632L462.911 39.76C462.335 40.112 461.695 40.32 460.943 40.32C459.791 40.32 459.039 39.584 459.039 38.256C459.039 37.056 459.695 36.224 460.879 36.224C461.535 36.224 462.255 36.464 462.847 36.8L463.327 34.944C462.655 34.56 461.663 34.32 460.623 34.32C458.127 34.32 456.527 35.872 456.527 38.336C456.527 40.864 458.095 42.24 460.559 42.24C461.631 42.24 462.655 42.016 463.279 41.632ZM468.661 40.112C468.405 40.4 468.005 40.608 467.509 40.608C466.965 40.608 466.581 40.288 466.581 39.808C466.581 39.152 467.141 38.864 468.661 38.688V40.112ZM468.725 41.104C469.061 41.92 469.861 42.352 471.477 42.144L471.717 40.384C471.205 40.336 471.109 40.288 471.109 39.776L471.125 37.568C471.157 35.488 470.309 34.32 467.733 34.32C466.325 34.32 465.093 34.784 464.309 35.2L464.821 37.008C465.685 36.576 466.581 36.256 467.349 36.256C468.261 36.256 468.661 36.608 468.661 37.392V37.536C465.317 37.632 464.261 38.768 464.261 40.176C464.261 41.328 465.253 42.24 466.533 42.24C467.557 42.24 468.149 41.728 468.677 41.104H468.725ZM477.633 41.968L477.345 40.048C477.009 40.16 476.673 40.24 476.369 40.24C475.761 40.24 475.361 39.952 475.393 39.264L475.473 36.592H477.457L477.505 34.656H475.649L475.665 32.88H473.281L473.249 34.576L472.129 34.944L472.081 36.512L473.201 36.704L473.089 39.536C472.993 41.488 473.985 42.24 475.825 42.24C476.577 42.24 477.057 42.144 477.633 41.968ZM486.37 38.256C486.37 35.76 484.674 34.32 482.434 34.32C480.178 34.32 478.386 35.776 478.386 38.304C478.386 40.832 480.098 42.24 482.338 42.24C484.562 42.24 486.37 40.752 486.37 38.256ZM483.922 38.272C483.922 39.552 483.394 40.352 482.386 40.352C481.378 40.352 480.834 39.552 480.834 38.288C480.834 37.008 481.362 36.192 482.37 36.192C483.378 36.192 483.922 37.024 483.922 38.272ZM490.188 37.664C490.636 36.88 491.18 36.576 491.788 36.576C492.108 36.576 492.428 36.656 492.716 36.8L493.212 34.624C492.812 34.416 492.38 34.32 491.98 34.32C491.196 34.32 490.62 34.72 490.188 35.472V34.384L487.724 34.688V42H490.188V37.664Z" fill="#2E3942"/>
<rect x="152" y="42" width="80" height="10" rx="5" fill="#54DEDC"/>
<path d="M228.5 47H239C242.866 47 246 50.134 246 54V71.5" stroke="#54DEDC" stroke-width="3"/>
<circle cx="246" cy="81" r="14" fill="#54DEDC"/>
<path d="M249.334 87L249.28 84.768C249.28 84.768 244.42 84.768 244.582 84.768C247.552 82.248 249.01 80.844 249.01 78.9C249.01 77.064 247.696 75.642 245.266 75.642C243.826 75.642 242.44 76.236 241.504 76.956L242.35 78.936C243.052 78.342 243.916 77.892 244.798 77.892C245.698 77.892 246.31 78.504 246.31 79.314C246.31 80.844 244.852 81.924 241.54 85.074L241.594 87H249.334Z" fill="#004748"/>
<path d="M175.317 33V28.72H164.037V8H159.157V33H175.317ZM184.351 8.36C184.351 6.68 183.311 5.52 181.431 5.52C179.591 5.52 178.551 6.68 178.551 8.36C178.551 10.08 179.591 11.2 181.431 11.2C183.311 11.2 184.351 10.08 184.351 8.36ZM183.791 33V14L179.071 14.68V33H183.791ZM205.556 33V20.32C205.556 16.36 203.356 13.96 199.636 13.96C197.396 13.96 195.196 15.12 193.556 16.92C193.556 16.8 193.556 14 193.556 14L188.836 14.64V33H193.556V19.84C194.476 18.96 195.996 18.12 197.636 18.12C199.756 18.12 200.836 19.04 200.836 21.76V33H205.556ZM215.277 24.12L221.917 33H227.557L219.877 23.32L227.517 14.56H221.877L215.277 22.76H215.197V5.64L210.477 6.28V33H215.197V24.12H215.277Z" fill="#2E3942"/>
</svg>
